<?xml version="1.0" standalone="no"?>
<!DOCTYPE svg PUBLIC "-//W3C//DTD SVG 1.1//EN" "http://www.w3.org/Graphics/SVG/1.1/DTD/svg11.dtd" >
<svg xmlns="http://www.w3.org/2000/svg" xmlns:xlink="http://www.w3.org/1999/xlink" version="1.1">
<metadata>
Created by FontForge 20170731 at Sun Feb  3 21:29:55 2019
 By Aleksey,,,
Copyright (c) 2019 by Indotitas. All rights reserved.
</metadata>
<defs>
<font id="Bretageds-Regular" horiz-adv-x="0" >
  <font-face 
    font-family="Bretageds"
    font-weight="400"
    font-stretch="normal"
    units-per-em="1000"
    panose-1="0 0 0 0 0 0 0 0 0 0"
    ascent="800"
    descent="-200"
    x-height="410"
    cap-height="737"
    bbox="-267.778 -460.8 719 778.2"
    underline-thickness="0"
    underline-position="0"
    unicode-range="U+000A-007E"
  />
<missing-glyph horiz-adv-x="206" 
 />
    <glyph glyph-name="t_h" unicode="th" horiz-adv-x="384" 
d="M380 299q6 10 13.5 13t13.5 2.5t9 -3t1 -5.5t-14.5 -22.5t-29 -46.5t-33.5 -56.5t-28 -51.5q0 -1 -1 -1q-10 -25 -20.5 -49t-24.5 -47q-6 -11 -13 -13t-18 3q-13 4 -19.5 13t-9.5 22q-1 13 0 25q5 29 9.5 56t13.5 54q2 7 4.5 13t6.5 13q5 11 8 21.5t11 21.5q-5 -1 -7 -3
l-4 -4q-38 -48 -70.5 -99.5t-56.5 -108.5q-2 -4 -3.5 -8t-3.5 -7q-2 -8 -9 -7t-12 -8q-1 -4 -6 -7q-11 -6 -15 4q-5 8 -6 17.5t1 18.5q4 17 6.5 34t7.5 35q7 23 11 47.5t9 48.5q-8 -10 -15 -18.5t-12 -14.5q-19 -29 -36.5 -56.5t-36.5 -56.5q-8 -13 -17 -26t-19 -25
q-8 -7 -10 -7t-10 5q-5 5 -10 8.5t-10 8.5q-16 18 -11 41q5 29 13 57t18 57q6 18 12.5 36.5t13.5 37.5l12 34t14 33q2 5 4 11t4 11q1 5 6 18t10.5 27.5t11 27t7.5 17.5q-29 -3 -45 -3h-1h-6h-25t-24 5q-20 11 -29 23t-14 20q-4 13 1 32q6 17 23 23q2 0 4 0.5t4 -1.5
q3 -5 -2 -9q-5 -3 -8 -7q-3 -5 -4.5 -10t-3.5 -10q-3 -8 5 -11q6 -3 13 -4t14 -1q14 1 27 3.5t27 4.5q19 5 37 8.5t38 6.5q2 6 4.5 10.5t4.5 9.5q5 7 9.5 14t10.5 13q4 5 8 8.5t11 0.5q17 -9 17 -22q-5 -12 -9 -27q4 1 7.5 1.5t8.5 1.5q6 2 12.5 1t12.5 -1q7 1 12.5 1h11.5
q2 3 4.5 7.5t6.5 14.5q5 13 10.5 26t10.5 26l3 6q7 7 14 2l3 -3q9 -11 13.5 -17t5.5 -11t-1.5 -12t-6.5 -19q-2 -7 -3.5 -12t-3.5 -10q21 -2 42 -5t42 -7q12 -2 24.5 -5.5t23.5 -9.5q18 -8 22 -25q2 -6 2 -8q-1 -3 -0.5 -6.5t-1.5 -5.5q-3 -2 -5 0.5t-4 4.5q-4 3 -7.5 4
t-7.5 3q-8 2 -17 2.5t-18 1.5q-28 3 -56.5 1.5t-57.5 -3.5q-2 -8 -4.5 -16t-5.5 -19q-2 -8 -7.5 -23.5t-12 -33t-12 -33.5t-8.5 -23q-2 -4 -4 -7v-5.5t-2 -5.5q-8 -13 -11.5 -26.5t-4.5 -27.5q-2 -14 -7 -27.5t-8 -27.5l-2 -6t-1 -8q10 11 18 21t16 21t17 21t18 19
q11 10 19.5 20t17.5 20q8 8 15.5 15t18.5 13q11 7 21 6q5 0 4 -6q2 -11 -0.5 -20.5t-6.5 -19.5q-3 -8 -5.5 -15t-5.5 -14q-2 -4 -2 -7q2 -14 -3 -27t-9 -27q-7 -22 -11 -44.5t-8 -45.5v-7q4 2 5 4.5t3 5.5q15 25 29 50t29 50q14 24 29 47.5t32 46.5zM-51 462q-8 2 -13 2
q8 -2 13 -2zM-41 463h1h-1zM173 307l1 1q1 -1 1 -2q-1 1 -2 1zM356 477q-21 5 -54 7t-64 2q0 -1 -0.5 -1.5t-0.5 -1.5q29 1 59 0t60 -6zM177 483q-3 -1 -5.5 -1t-4.5 -1h9q1 1 1 2zM47 470v-1v1zM5 466q4 -2 6 0h-6zM-18 462q1 0 2 1zM-8 445q3 -2 3 1l-2 1q-2 0 -2 -1t1 -1
zM-13 463q2 0 4.5 -0.5t4.5 1.5q-2 0 -4.5 0.5t-4.5 -1.5zM-3 464h4t4 2q-2 -1 -4 -1t-4 -1zM6 447q1 0 1 2q-2 0 -2 -1q-1 0 -1.5 -0.5t0.5 -0.5q0 -2 2 0zM11 447q1 1 1 2h-2h-2l1 -1q1 0 2 -1zM20 466q1 0 0 1h-1v-1h1zM29 468h-1v-1h1v1zM38 468l-1 1v-1h1zM23 137
q4 2 6 7q-6 -2 -6 -7zM29 146q5 6 10.5 13t7.5 15q-8 -5 -12 -12.5t-6 -15.5zM47 175q6 3 8 10q-8 -4 -8 -10zM58 189q1 1 1 1.5t1 1.5q-1 -1 -1 -1.5t-1 -1.5zM82 258q7 7 14 13t14 13q1 2 3 4q2 1 2.5 1.5t2.5 1.5q3 13 6 25.5t6 26.5q1 5 6 18.5t10.5 28.5t10.5 28t6 19
q1 5 1.5 9.5t2.5 9.5h-1q-10 0 -15 -4q-11 -2 -23 -2.5t-24 -2.5l-6 -21h1q-2 -6 -6.5 -20t-10.5 -29.5t-11 -30t-7 -20.5q-6 -20 -15.5 -39t-18.5 -39q-11 -25 -19 -49.5t-17 -50.5q0 -2 -0.5 -4.5t1.5 -5.5q4 4 6.5 8t5.5 9q17 28 35.5 54t39.5 49zM173 163q3 2 5 7
q-5 -3 -5 -7zM178 171q2 1 5 6q-3 -1 -5 -6zM219 237q3 5 5.5 8.5t5.5 8.5q-7 -3 -9 -8t-8 -8q-8 -7 -9.5 -10.5t-6.5 -13.5l-11 -12q-7 -5 -8.5 -6t-6.5 -8q2 0 -1 -4.5t-4 -6.5t-2.5 -4.5t-3.5 -5.5q-2 -4 -2 -4.5v-0.5l0.5 -0.5t-0.5 -4.5q8 10 11 16.5t11 15.5
t13.5 13.5t13.5 14.5q4 5 6.5 10t5.5 10zM248 264q3 2 6 4.5t4 7.5q-9 -5 -10 -12zM266 287q-2 0 -2 -4q1 1 2 1.5t0 2.5z" />
    <glyph glyph-name=".notdef" horiz-adv-x="206" 
 />
    <glyph glyph-name=".null" 
 />
    <glyph glyph-name=".null" 
 />
    <glyph glyph-name="nonmarkingreturn" horiz-adv-x="333" 
 />
    <glyph glyph-name="LF" unicode="&#xa;" 
 />
    <glyph glyph-name="controlCR" unicode="&#xd;" 
 />
    <glyph glyph-name="space" unicode=" " horiz-adv-x="206" 
 />
    <glyph glyph-name="exclam" unicode="!" horiz-adv-x="135" 
d="M149 515q6 -5 3 -13q-2 -11 -4.5 -20t-6.5 -19q-2 -4 -2.5 -8t-2.5 -8q-3 -16 -9 -35q0 -3 -2 -5q-8 -8 -10 -17t-5 -18q3 -10 -0.5 -18t-5.5 -17q-2 -10 -4.5 -19t-5.5 -18q-8 -29 -18 -56.5t-17 -56.5q-5 -16 -8.5 -32t-8.5 -33q-2 -5 -4 -11l-4 -12q0 -5 -3 -5
q-6 0 -7 3q-3 6 -9 8q-4 1 -4 8q2 6 2.5 12.5t1.5 12.5q2 10 4 19l4 18q5 19 8 38.5t6 39.5q3 18 7 35t9 34q2 7 3.5 13t2.5 12q4 15 7 29t8 28q6 16 11 31.5t10 31.5q3 9 7 17t7 16l2 8t3 7l9 18q1 2 1 3t1 2q6 6 11 0q1 -2 1.5 -3.5t2.5 -3.5q2 -3 4 -7t5 -6v-3zM22 107
q2 4 3.5 12.5t1.5 14.5q-8 -20 -5 -27zM97 328q3 5 4 12q-2 -2 -2.5 -5.5t-1.5 -5.5v-1zM101 340v1v-1zM102 348q2 3 3 5.5t2 5.5q-4 -3 -4 -11h-1zM106 360q0 1 0.5 1t0.5 1h-1v-2zM13 55q2 -2 5 -2t5 -1q4 -3 2 -5q-4 -5 -5.5 -9.5t-3.5 -9.5q-9 -32 -15 -63q-2 -4 -2 -8
v-9q0 -7 -4 -9q-3 -1 -5 1.5t-4 4.5q-3 3 -3 8q-2 7 -2 13t-1 11q1 5 -0.5 7.5t-1.5 5.5q2 7 2 13t1 13q2 7 3 14t3 14l3 6q9 16 23 6v-1z" />
    <glyph glyph-name="quotedbl" unicode="&#x22;" horiz-adv-x="73" 
d="M87 489q4 -5 4 -13q0 -16 -6 -29q-4 -9 -8 -17.5t-10 -16.5q-5 -5 -8 -11t-7 -11q-2 -4 -4.5 -7.5t-6.5 -6.5q-5 -3 -7 -2q-3 1 -3 7q0 7 1 10q4 11 7 22t8 22q2 4 4.5 7t4.5 8q4 14 7 27.5t1 27.5q0 4 5 4q4 0 7 -5q4 -8 12 -16h-1zM44 485q0 -16 -5 -25
q-15 -36 -39 -70q-3 -4 -6 -7t-8 -4q-8 -3 -7 6t10 18q2 8 6 14t7 13t6 13.5t5 13.5q2 8 4 15.5t4 15.5q3 12 1 22q0 2 1 4q0 -1 3 2q3 1 3 -1q2 -5 5.5 -8t6.5 -7q6 -5 6 -15h-3zM-13 398q-3 0 -3 -3zM-13 400q2 2 2 3h-2v-3zM18 457q2 1 2 4q-2 -2 -1 -4h-1zM22 469v1v-1z
" />
    <glyph glyph-name="numbersign" unicode="#" horiz-adv-x="376" 
d="M398 263q-1 -4 0 -7.5t2 -8.5q0 -6 -5 -8q-2 -1 -5 -2t-5 -2q-17 -5 -34 -8.5t-34 -3.5q-7 0 -8.5 -2t-3.5 -9q-2 -9 -2.5 -17.5t-2.5 -16.5q-1 -3 2 -5q9 -2 10.5 -4t1.5 -11q0 -2 2 -6q1 -5 -0.5 -7.5t-7.5 -4.5q-3 -1 -6.5 -2t-7.5 -1q-5 -1 -6.5 -3.5t-3.5 -6.5
q-3 -14 -7 -28l-8 -28q-1 -2 -2 -5t-3 -5q-1 2 0 5t0 6q-3 -8 -5.5 -14.5t-2.5 -14.5q0 -11 -5 -26q-2 -8 -4.5 -16.5t-5.5 -16.5q-2 -4 -4 -6q-3 -5 -6 0q-7 -2 -4 4q2 6 2 9q-1 -1 -3 -4q-5 -5 -11 -3q-8 4 -6 10q5 17 6 35.5t6 35.5q4 14 5.5 27t3.5 27q2 7 -5 6
q-26 -2 -53 -4.5t-53 -5.5l-36 -3q-6 -1 -7 -2t-3 -6q-6 -20 -10.5 -39t-9.5 -39q-5 -23 -9.5 -44.5t-9.5 -43.5q-3 -11 -12 -5q-12 10 -9 25q4 36 12 76q3 16 5.5 32.5t5.5 33.5q1 5 0 6t-7 1h-13.5t-13.5 1q-11 1 -15 5t-4 15q0 2 -0.5 2.5t-0.5 2.5q0 5 4 6
q11 4 22.5 6.5t22.5 4.5q2 1 6 1q6 1 7 7q4 21 6 42q1 4 2.5 7t0.5 8q-9 -1 -18.5 -2t-18.5 0q-2 2 -2 0q-10 2 -10 11q0 2 -1.5 4.5t-2.5 4.5q-2 5 3 5q5 1 10.5 2t11.5 1q8 1 15 2t15 3q7 1 9 9q5 21 11.5 41.5t12.5 40.5q3 14 8.5 27t10.5 27q2 7 4 13.5t4 13.5
q2 10 5.5 19.5t7.5 19.5l12 32t14 31q2 6 4 6q6 2 8 -3q1 -2 2 -3.5t2 -3.5q2 -5 4 -9t5 -8q5 -5 5 -15q0 -11 -2 -20.5t-5 -19.5q-5 -19 -11.5 -37.5t-12.5 -36.5q-5 -14 -9.5 -27t-9.5 -27q-4 -13 -7.5 -25t-8.5 -24q0 -1 -0.5 -1.5t-0.5 -2.5q-1 -5 0 -6t6 0q21 4 42 7
t43 6q13 2 25.5 3.5t26.5 3.5q7 1 10 7q10 26 18 52.5t19 52.5l18 45q2 5 3.5 9t3.5 9q5 5 8 11t7 11q2 7 6.5 14.5t9.5 11.5q2 -7 5.5 -12.5t7.5 -11.5q4 -4 2 -11q-1 -8 -3 -15l-4 -14q-11 -38 -23 -74.5t-25 -74.5q0 -1 -0.5 -1.5t0.5 -2.5q5 -1 9.5 -1h9.5q8 0 16 0.5
t16 -1.5h8q7 -2 9.5 -4t0.5 -10zM355 469q0 1 -2 1v-2l1 1h1zM18 217q13 0 25 3q-6 0 -12.5 -0.5t-12.5 -1.5v-1zM44 220q2 0 4.5 0.5t4.5 -0.5h-9zM4 127q2 2 2 6q-4 0 -3 -4v-2h1zM7 132q1 1 3 0h-3zM23 128q2 1 5 0.5t3 2.5q1 3 -2 3t-5 2q-4 2 -7 -2q-1 -7 4 -6h2z
M64 220h2h1h-2h-1zM182 234q-3 0 -6.5 0.5t-6.5 -1.5q3 1 6.5 0.5t6.5 0.5zM199 217q-5 0 -8.5 -0.5t-8.5 -1.5v-1q9 0 17 4v-1zM175 212q2 2 0 2h-1q-2 -2 0 -2q1 0 1 0.5t1 0.5zM158 232q4 -3 9 0h-9zM167 212q-1 0 -1 -1h1v1zM161 209v1v-1zM150 229h-9q4 1 9 0zM140 228
h-9q2 0 4.5 -0.5t4.5 1.5v-1zM122 226h2h-2h-1h1zM236 -16v4q1 -2 0.5 -2.5t-0.5 -1.5v0zM240 -28q-1 0 -1.5 -0.5t-2.5 -0.5q2 2 2 3q0 2 1 2v-2v-2h1zM243 -19v1h1zM244 21v1v-1zM247 -10v5v-5zM248 -4q0 6 3 12q0 -7 -3 -11v-1zM253 13v-1v1zM261 206q1 4 0.5 5t-5.5 1
h-4q-14 -1 -28.5 -1.5t-28.5 -2.5q-20 -3 -39 -5l-38 -4q-9 0 -10 -8l-4 -12t-4 -13l-2 -6t0 -6q2 -2 7 0q10 2 20 2.5t21 2.5q25 3 49.5 5.5t49.5 4.5q6 1 7 7q2 8 3.5 15t3.5 15h2zM184 234q21 2 42 4.5t42 4.5q-1 1 -3 1q-17 -2 -33.5 -4t-33.5 -4q-4 -1 -7.5 -1t-6.5 -2
v1zM322 247q18 2 35 3.5t35 3.5q-3 2 -8 2q-15 -2 -30.5 -3.5t-30.5 -3.5v-1q0 -1 -1 -1z" />
    <glyph glyph-name="dollar" unicode="$" horiz-adv-x="312" 
d="M330 391q3 -12 -5 -19q-4 -4 -8 -7t-9 -5v4q-3 -3 -4 0q-2 2 0 4q3 3 5 7q4 5 7 13q2 5 1 6t-6 3q-21 3 -45 -2q-8 -2 -15.5 -4.5t-15.5 -4.5q-2 -1 -4.5 -2t-5.5 -1q3 4 7 4.5t7 3.5q-3 1 -7 0l-7 -3.5l-7 -3.5q-5 -2 -7 -6.5t-4 -9.5l-24 -74t-25 -74q-2 -6 -3.5 -12.5
t-3.5 -12.5q-2 -5 -1.5 -5.5t5.5 -1.5q13 -3 25 -7t23 -9q9 -4 16 -9t14 -12q4 -6 6 -12q3 -10 9 -17q12 -20 0 -40q-7 -13 -17 -23t-22 -18q-15 -11 -31.5 -17.5t-33.5 -11.5q-12 -4 -23.5 -7.5t-23.5 -6.5q-7 -1 -8 -8q-3 -11 -7.5 -20.5t-7.5 -19.5l-15 -60
q-2 -7 -5 -12.5t-5 -11.5q-3 -5 -8 -5q-13 3 -13 18q1 24 4.5 47t8.5 46q2 6 2 9q1 4 -3 3q-5 -1 -10 -1.5t-10 -1.5q-4 -1 -14 -1q-13 -3 -23 11q-4 6 3 7q14 3 27.5 7.5t27.5 8.5q12 4 13 15q2 13 5 26t7 25q2 2 1 4t1 4q3 19 9 39q2 8 4.5 16t4.5 16q2 5 -3 7
q-13 5 -21.5 15t-15.5 21q-3 5 -5.5 10t-4.5 10q-8 16 -4 31q0 3 -1 5q0 10 4 18.5t9 16.5q18 31 41 57t55 43q6 4 12.5 7t12.5 6t7 8q5 12 10.5 23.5t11.5 22.5q2 4 2.5 7.5t2.5 8.5q6 18 17 37q1 1 1 1.5t1 1.5q5 2 9 -2q2 -5 3 -9.5t4 -8.5q1 -3 0 -3q-5 -6 -6 -12.5
t-3 -13.5q-3 -8 -5.5 -16.5t-5.5 -16.5q-2 -2 0 -4q5 10 8 20t8 20q0 2 2 8q4 -4 2 -11t-3.5 -14t-3.5 -14q-1 -2 -1 -3t-1 -3q-2 -5 4 -3q5 1 10.5 2t10.5 1q13 2 25.5 1.5t24.5 -3.5q24 -6 28 -28q0 -7 3 -13zM128 347l-1 -1l1 -2v2v1zM76 290q3 4 6 6q0 -2 -1 -3t-2 -3
q-5 -5 -5 -9h-4v-6q-3 -2 -3 -4h1h2q1 1 2 1t2 1q0 3 2 7v2q1 3 6 3q1 4 4.5 6t5.5 5q0 2 2 2q0 1 0.5 2t0.5 2q13 9 23.5 19.5t21.5 20.5q6 5 8 17q-6 -2 -10.5 -5.5t-9.5 -7.5q-3 -2 -6.5 -4.5t-6.5 -4.5q-2 -1 -3.5 -1.5t0.5 -4.5q1 -2 -3 -2h-2q-5 -5 -9.5 -9t-6.5 -10
l-2 -2q-10 -7 -11 -16zM83 284q0 -1 -1 -1h2zM70 282q-2 0 -2 -3h3q0 3 -1 3zM68 270q-2 -2 -3 -4q2 0 2 3zM53 268v-1v1zM53 251q-2 -2 0 -5q2 2 3.5 4t1.5 6q2 1 2.5 2t1.5 2q3 3 3 5q-2 0 -4 -2h-2q-1 -1 -1.5 -2.5t-1.5 -3.5v-2q0 -2 -0.5 -2t-1.5 -2h-1zM52 243h-1v-1
l2 2zM96 205q1 1 1 3q4 10 6 20t7 20q4 8 6.5 15t4.5 14q2 5 3.5 9.5t3.5 9.5q3 8 5.5 15.5t4.5 15.5q0 1 -0.5 1t-0.5 1q-3 0 -6 -3q-17 -13 -34 -33q-18 -20 -29 -40q-10 -19 -13 -35q0 -5 0.5 -7t5.5 -4q13 -7 25 -8q6 -2 7.5 -1t3.5 6zM157 54q-2 0 -2 -1zM230 117
q-3 3 -3 -1q-6 -6 -7 -10l-3 -3q-3 -9 -11 -14q-3 -3 -3 -4q12 6 21 15q2 2 2.5 4t2.5 4t2 5q0 2 -1 3v1zM217 134q-20 8 -40 11.5t-40 7.5q-4 2 -4 -2q-2 -4 -2 -5q-8 -25 -14.5 -49.5t-14.5 -49.5q-1 -2 -1.5 -4t0.5 -5q3 1 5.5 2t4.5 2q23 11 45.5 22.5t42.5 27.5
q7 5 13 10.5t11 13.5t4 11.5t-10 6.5zM144 262q4 10 7.5 19t6.5 19q2 6 5 12t4 13q-2 -2 -2.5 -3l-1.5 -3q-7 -14 -11 -27t-9 -27q0 -2 2 -2zM166 326q2 2 2 5q-2 -2 -2 -5zM235 390q0 4 6 3q-2 -2 -6 -2v-1zM256 412q8 1 14.5 1t14.5 1q-8 2 -14.5 1.5t-14.5 -2.5v-1z
M287 403q0 1 -1 1v-1h1zM295 413h1h-1zM306 363q2 2 3 3.5t3 2.5q-2 -5 -5 -5z" />
    <glyph glyph-name="percent" unicode="%" horiz-adv-x="242" 
d="M155 217q-2 -4 -1.5 -8t-1.5 -9q-8 -23 -14.5 -46.5t-13.5 -46.5q-11 -37 -20.5 -73t-19.5 -73q-2 -10 -4 -14q-3 -8 -10 -5q-12 4 -12 14q2 11 3.5 21.5t3.5 21.5q5 31 12 61l14 60q2 8 3.5 14.5t3.5 14.5q2 13 6 25t9 23q2 8 2 12q0 5 1 10.5t3 10.5l16 54t17 53
q2 9 6 18t7 18q5 14 10 27.5t10 27.5q4 8 6.5 16.5t5.5 16.5q7 20 19 38q3 5 5.5 9t4.5 9q4 9 9 1q4 -4 6 -8.5t6 -9.5q2 -4 0 -7l-6 -18q-7 -17 -13 -34.5t-11 -34.5q-3 -8 -5.5 -16t-5.5 -16q-1 -4 -1.5 -8t-2.5 -8q-4 -15 -9 -29.5t-10 -29.5q-2 -10 -4 -15l-2 -6t-4 -6
q-2 -2 -4 -9q-2 -9 -5 -18l-6 -18q0 -2 -1 -4.5t2 -4.5zM170 298v-1v1zM168 290v2v-2zM77 6h-1v-1zM163 278v-2v2zM161 270v-2v1v1zM131 205v2v-2zM130 183v-2v1v1zM130 196q-1 0 -1 -1h1v1zM127 187v-2v2zM127 168q-2 -2 -2 -4q2 1 2 5v-1zM124 176h1v1zM124 157v1v-1z
M123 170v2v-2zM122 170v-2v2zM101 76q5 9 7 18.5t4 20.5q-4 -10 -6.5 -19.5t-4.5 -19.5zM113 119q2 1 2 2t1 3q-3 -1 -2 -5h-1zM116 124q2 2 2 4v5q-4 -4 -2 -9zM122 107h1h-1zM124 113q0 5 3 7q0 -3 -2 -7h-1zM128 142q2 8 5 15t6 15q7 20 11 39.5t10 39.5q1 3 0 4
q-3 -5 -4 -10t-4 -10q0 -4 -1.5 -7t-3.5 -6q-2 -5 -3.5 -9.5t-4.5 -9.5q1 -8 -1.5 -14.5t-5.5 -13.5v3q-2 -2 -2 -4q-2 -2 -2 -5h2q0 -6 -1 -9q-2 -3 -4 -2q-1 -2 0.5 -3.5t1.5 -3.5q-2 -3 0 -4q0 -3 -0.5 -5t-5.5 -1q-2 0 -2 -3q0 -1 2 -1q4 -6 6 2zM85 247q-8 -17 -18 -30
q-17 -19 -29 -19t-28 13q-4 3 -8 6.5t-7 6.5q-9 9 -9 23v10.5t-1 10.5q0 5 -1 6q-2 -4 -1.5 -7t-0.5 -8q-2 16 1 28q7 34 19 62q5 9 10.5 17.5t13.5 15.5q6 4 10 6q11 6 20 -3l6 -8t7 -7q1 0 1 -2q2 -7 6.5 -11.5l9.5 -9.5q14 -13 14 -33q1 -18 -3.5 -35t-12.5 -34zM45 391
v-1h-1zM7 302q3 -2 3 -1t1 3q-2 0 -4 -2zM11 304q2 5 4.5 9.5t4.5 9.5t3.5 10t3.5 10t3.5 9.5t0.5 9.5q-5 -7 -9 -14.5t-7 -15.5q-3 -7 -5.5 -13.5t0.5 -14.5h1zM32 232q12 9 21 21q11 16 16 33.5t7 35.5q0 15 -6 29q-2 4 -9 6q-4 1 -4.5 -1t-2.5 -4q-1 -2 -1 -2.5t-1 -2.5
q-6 -12 -11 -25t-8 -27q-4 -14 -6.5 -27t-3.5 -27v-9q0 -6 5 -3q1 0 1.5 0.5t1.5 0.5zM43 230q1 1 1 1.5t1 1.5l-1 1q-1 -1 -1 -3q0 -1 1 -1h-1zM50 238q5 0 5 4q-5 0 -6 -4h1zM55 243q4 0 6 5q3 6 6 11.5t5 12.5q2 5 3.5 10t1.5 10q-2 -6 -4.5 -11.5t-4.5 -10.5t-4 -8.5
t-3 -8.5q-2 -2 -3.5 -4.5t-1.5 -6.5zM216 44q-2 -1 -5 -4q6 1 9.5 4.5t8.5 7.5q1 -2 0 -3l-2 -2q-6 -6 -10 -8q-18 -12 -39 -1q-8 5 -14.5 11t-12.5 13q-4 4 -4.5 8t-0.5 9q0 8 2.5 15.5t4.5 15.5q3 9 7 17q4 10 7 20.5t6 21.5q4 16 20.5 22t30.5 -1q5 -2 11 -10
q5 -9 16 -20q8 -8 11 -23q2 -13 0.5 -25.5t-8.5 -23.5q-8 -12 -16.5 -23.5t-20.5 -20.5h-1zM214 174l-2 -2l2 1h1h-1v1zM200 68q17 15 23.5 34t8.5 41q-2 6 -2 11q-1 8 -3 10t-10 1q-2 0 -3.5 -0.5t-3.5 -0.5q-5 -2 -4 -6v-3.5t-3 -3.5q-1 0 -1 -4q-2 -12 -5.5 -24t-6.5 -23
q-6 -19 -9 -35q-3 -8 5 -5q5 2 8.5 4.5t7.5 5.5z" />
    <glyph glyph-name="ampersand" unicode="&#x26;" horiz-adv-x="269" 
d="M277 383q5 -18 8.5 -36t3.5 -37q0 -20 -3.5 -38.5t-12.5 -36.5l-10 -16t-13 -15q-7 -6 -12.5 -12.5t-12.5 -12.5q-17 -12 -33.5 -24.5t-33.5 -25.5q-6 -4 -7 -9q2 -11 3.5 -21.5t3.5 -21.5q1 -6 1.5 -12t1.5 -13t6 -2q16 15 30.5 31t25.5 34q4 9 12 18q2 1 3 2.5t3 -0.5
q5 -2 3 -7q-1 -5 -1.5 -9.5t-2.5 -9.5q-1 -4 -3 -7.5t2 -7.5q2 -2 0.5 -3.5t-2.5 -3.5q-6 -14 -13.5 -27t-18.5 -25q-7 -8 -14 -15.5t-15 -13.5q-7 -5 -4 -13q7 -26 12 -53l10 -54q2 -8 2 -15.5v-15.5q0 -5 -1.5 -6t-6.5 1q-20 8 -28 26q-8 21 -14.5 42t-10.5 44q0 1 -0.5 2
t-0.5 3q-1 8 -3 8.5t-9 -3.5q-8 -5 -16 -9t-17 -7q-12 -5 -24.5 -7.5t-25.5 2.5q-21 7 -37 18l-6 3q-15 11 -15 30q1 11 4 20t8 18q7 14 16 26t20 23q17 18 35 35t38 31q5 4 4 11q-1 12 -3 24.5t-3 24.5q-2 20 -3.5 40t-1.5 40q0 25 3 48.5t8 46.5q2 11 6 21t9 20
q5 11 13 20.5t16 17.5q12 11 27 11.5t29 -7.5q9 -5 15 -12q5 -6 11 -12l12 -12q23 -23 32 -52zM105 113q-1 0 -1 -1v-2q2 0 2 1t0.5 1t0.5 1h-1h-1zM105 105q1 1 -1 1v-1l2 1zM103 111q-7 -1 -12 -10q4 2 7 4.5t5 4.5v1zM82 95v-1q0 -3 2 -1q5 5 6 8q-4 -1 -8 -5v-1zM39 50
q-8 -6 -4 -6q3 1 3 6h1zM31 39q0 -1 -0.5 -1t-0.5 -1q-1 0 -1 -0.5t1 -0.5t1 1v1v1zM11 -3q1 0 1 2v1l-1 -1v-1v-1zM13 0v2v-2zM115 -22l1 1q1 0 1 1h-2h-1v-1zM121 16q4 2 3 8q-2 9 -2.5 18t-2.5 18l-6 36q-1 5 -2 5.5t-6 -1.5q-5 0 -5 -5q-1 -1 -3 -1v3q-6 0 -4 -6
q-4 -4 -5 -6q-2 3 -4 0q-7 -3 -8 -8q-6 -3 -9 -9q-4 -2 -5 -1t2 4q3 2 6 4.5t5 6.5l4 4q1 2 2 2.5t-1 2.5q-2 0 -4 -2q-7 -5 -13 -11.5t-11 -13.5q-1 0 -1.5 -1t1.5 -2q2 1 3 2.5t3 3.5q2 -3 0 -8q-2 -4 -4.5 -7t-4.5 -7q-14 -17 -22 -37t-5 -30q3 2 3 8q2 8 4 15.5t8 14.5
q0 -5 -2 -6q-4 -7 -5 -13.5t-1 -14.5q0 -6 5 -4q4 0 10 2q20 5 38.5 14t36.5 20zM126 -16q2 0 2 2q0 1 -1 1l-2 -1v-2h1zM131 211v2v-2zM232 78v1v-1zM238 92q-4 -1 -6 -9q5 0 4.5 3.5t1.5 5.5zM226 73v-2v-4q0 1 0.5 2t0.5 2q2 0 2 3l1 2h-1q-1 1 -2 0l-2 -4zM226 67
q-3 0 -5 -2q2 -1 5 2zM181 41h2h2h-2h-2v1v-1zM176 37h-1h1zM177 26q-7 -7 -3 -9q3 -1 4 1t3 4q26 26 40 55q-3 -2 -5.5 -5.5t-7.5 -5.5q0 -2 -1 -3q-3 -1 -5 -6q-2 -2 -3 -4q-7 -3 -9 -10q-3 -3 -6 -2q0 -2 -2 -6v-1q-1 -3 -6 -8h1zM146 114v2v-2zM155 100q-2 5 -2.5 9.5
t-2.5 9.5q-1 2 1 3l4 2q-2 -6 0 -12t0 -12zM156 137q19 10 34 27q-2 0 -2 -1q-7 -4 -12.5 -8t-12.5 -9q-7 -2 -7 -9zM242 318q0 2 0.5 4.5t0.5 4.5v22.5t-1 22.5v10t-1 10q-2 9 -5.5 18t-5.5 18q-1 5 -3 8.5t-4 8.5q-4 5 -10 5q-8 0 -13.5 -2.5t-11.5 -7.5q-7 -5 -12 -11.5
t-10 -13.5q-5 -8 -8.5 -17t-6.5 -17q-5 -14 -7 -28.5t-4 -29.5q-1 -15 0 -30t-3 -30q-2 -8 -1.5 -15t-0.5 -15q0 -3 1 -5.5t0 -4.5q-2 -6 -1 -11.5t3 -10.5q4 -6 2 -17q3 0 7 2q14 11 29 21.5t27 23.5q11 11 19 21.5t13 24.5q3 11 5.5 21t4.5 21z" />
    <glyph glyph-name="quotesingle" unicode="'" horiz-adv-x="97" 
d="M68 489q5 -7 5 -13q-2 -16 -6 -29q-4 -9 -8.5 -17.5t-10.5 -16.5q-7 -10 -14 -22q-2 -4 -4.5 -7.5t-6.5 -6.5l-4 -2t-4 0t-2 7q0 7 1 10q4 11 7 22t8 22q2 4 4 7t4 8q5 14 7.5 27.5t1.5 27.5q-1 4 4 4t7 -5t5.5 -8.5t6.5 -7.5h-1z" />
    <glyph glyph-name="parenleft" unicode="(" horiz-adv-x="152" 
d="M164 508q6 -3 0 -7q-9 -7 -16 -16q-12 -14 -21 -30q-14 -26 -27.5 -53t-24.5 -55q-12 -32 -21 -63.5t-17 -63.5q-14 -57 -21 -114q-2 -24 -2.5 -47.5t1.5 -46.5q1 -5 2 -10.5t4 -10.5q2 -5 -2 -7q-20 -8 -28 11q-4 8 -5.5 17t-3.5 18q-1 7 -1.5 13.5t-0.5 13.5
q-2 8 -1 15t2 15q1 3 1.5 5.5t1.5 5.5v12q1 24 1 47t4 46q2 8 4 15l4 14q4 17 8 34.5t8 34.5q3 13 7.5 25.5t8.5 25.5q4 14 9.5 27.5t13.5 26.5q1 2 2 3t1 3q2 9 6 17t9 16q9 14 18.5 28.5t21.5 26.5q10 10 21 17q7 5 10.5 5t10.5 -5q1 -1 5 -3q3 -2 5.5 -3t5.5 -3h-4z
M-7 176q2 3 1 5h-1q-1 -3 0 -5zM-6 187q1 3 1 8q-2 -3 0 -8h-1zM-4 203l-1 -1h1v1zM13 248q5 18 6.5 37t6.5 36q-5 -15 -9.5 -30.5t-6.5 -32.5q-2 -6 2 -9zM134 509h1h-1z" />
    <glyph glyph-name="parenright" unicode=")" horiz-adv-x="110" 
d="M124 362q1 -14 0 -27q-2 -15 -3.5 -30t-3.5 -30q-2 -17 -5.5 -34.5t-7.5 -35.5l-3 -18q-1 -16 -6 -31l-10 -30q-2 -7 -4.5 -14t-7.5 -12q0 -2 1 -3q-1 -5 -3.5 -9.5t-4.5 -9.5t-3.5 -10.5t-2.5 -10.5q0 -1 -0.5 -1.5t-0.5 -1.5q-3 -12 -8.5 -22.5t-10.5 -21.5l-8 -12
t-9 -12q-3 -4 -6 -7.5t-7 -6.5q-8 -7 -15.5 -5t-13.5 7q-4 3 0 7q8 7 13 15.5t10 17.5q18 36 29.5 74t19.5 76q8 37 14.5 73.5t8.5 73.5q3 52 0 103q0 8 -0.5 17t-1.5 17q-3 30 -15 55q-2 5 -1.5 6.5t6.5 2.5q5 0 10.5 0.5t10.5 2.5q6 1 11 -4q3 -4 5.5 -7.5t4.5 -7.5
q7 -14 10.5 -28.5t5.5 -28.5q5 -23 5 -42q0 -2 0.5 -4.5t-0.5 -4.5q-2 -7 -1 -13.5t2 -13.5zM82 144q1 1 1 2q-1 0 -1 -3v1zM86 157v-1v1zM88 505v-2h1q0 2 -1 2zM97 215q5 17 8.5 34t4.5 34q-3 -2 -3 -5q-2 -5 -2.5 -10.5t-2.5 -10.5q-4 -9 -6 -18.5t-4 -18.5q0 -5 5 -5z
" />
    <glyph glyph-name="asterisk" unicode="*" horiz-adv-x="76" 
d="M92 424q3 -12 -9 -12h-18q-9 1 -10.5 -1t0.5 -10t3.5 -16.5t4.5 -16.5q-2 -2 -4.5 -1.5t-4.5 0.5q-4 1 -7.5 2.5t-5.5 6.5q-1 2 -2 5t-2 5q-2 5 -3 5.5t-6 -1.5q6 9 -2 17q-5 -5 -10.5 -11t-10.5 -13h3q-1 -5 -9 -13q-5 -5 -9 0q-5 4 -5.5 6.5t2.5 7.5q2 3 4.5 5.5
t4.5 5.5q4 3 6.5 6.5t4.5 7.5q1 4 -3 4q-4 1 -8 1.5t-8 1.5q-8 1 -8 11q0 8 7 10q6 2 11.5 2.5t11.5 1.5q5 1 5.5 1.5t-1.5 4.5q-2 6 -5 12.5t-5 12.5q-2 2 -2 4q-1 2 -1.5 3.5t1.5 3.5q4 1 7 -1q8 -7 14.5 -14t11.5 -16q1 -2 2 -3.5t4 -3.5l10 10l10 10l6 6t6 7q8 5 13 -3
q2 -2 3.5 -5t3.5 -5q3 -4 -1 -10q-4 -8 -9 -13q-4 -6 2 -8q7 -3 9 -11zM86 460q-2 -2 -3 -2v-4q2 1 2 4zM70 440q4 -2 5 1q2 3 4.5 6t3.5 7l-2 -1q-3 -2 -5.5 -5t-7.5 -5q-1 0 1 -2zM77 427q3 1 6 0q-4 0 -6 1v-1zM83 428q4 -2 7 -1h-7v1z" />
    <glyph glyph-name="plus" unicode="+" horiz-adv-x="220" 
d="M237 290q2 -5 1 -6.5t-6 -3.5q-12 -4 -26 -6q-23 -4 -44.5 -7.5t-43.5 -6.5q-8 -1 -11 -9q-2 -8 -5 -16.5t-6 -16.5q-4 -10 -7.5 -20t-8.5 -20q-3 -6 -5 -11.5t-5 -11.5q-3 -8 -5.5 -15.5t-7.5 -15.5q-1 -2 -3 -8q-2 -7 -8 -3l-4 2t-4 0q-2 0 -6 2q-5 4 -6 8.5t1 10.5
q5 19 9.5 38t9.5 38q2 8 3.5 16t4.5 16q3 9 -6 9q-8 -1 -14.5 -1.5t-14.5 1.5q-2 1 -4.5 1t-4.5 1q-9 2 -13 8.5t-7 14.5q-2 5 -3.5 9.5t-5.5 8.5q-3 3 2 5l21 3q16 2 31.5 4t31.5 3q5 0 7 5q3 5 4.5 9.5t3.5 9.5q5 23 14.5 44t18.5 42q7 12 16 1q9 -10 17 -20q3 -4 3 -12
q-3 -23 -12 -48q-2 -6 -4 -12.5t-4 -12.5q2 -2 4 -2q15 -1 30.5 -1t30.5 -1q14 0 29 -3q6 -1 8 -2.5t2 -8.5q0 -5 3 -11zM21 294q-2 0 -2 -3h6q0 4 -3 4zM7 281h8t8 2q-2 4 -5.5 3t-5.5 2q2 2 3.5 1.5t3.5 0.5q-6 2 -9 2h-2h-2h-2q0 -1 2 -3h2q0 -3 -2 -3t-2 -2q0 -3 2 -3h1
z" />
    <glyph glyph-name="comma" unicode="," horiz-adv-x="67" 
d="M83 8q6 -5 1 -10q-11 -13 -21 -25.5t-21 -24.5q-3 -3 -5.5 -6.5t-4.5 -6.5q-8 -11 -17 -19l-18 -16q-3 -2 -6 -3t-6 -3q-4 0 -4 5q2 6 4 10q3 6 7 11t7 10q28 40 54 81q2 0 2 2q5 8 7 8.5t10 -4.5q8 -6 11 -9zM14 -78l3.5 3.5t1.5 3.5q-5 -3 -6 -7h1z" />
    <glyph glyph-name="hyphen" unicode="-" horiz-adv-x="220" 
d="M237 302q3 -5 -2 -9q-6 -2 -14 -4q-17 -4 -34.5 -5.5t-34.5 -3.5q-21 -3 -42.5 -6t-42.5 -5l-22 -2l-22 -2q-18 0 -28 14q-8 11 -13 27q2 2 8 2q10 -2 19.5 -0.5t18.5 3.5q35 5 70.5 9.5t70.5 6.5q8 1 15.5 1t15.5 1q3 0 6 -0.5t6 0.5q7 0 11 -3t6 -7l9 -18z" />
    <glyph glyph-name="period" unicode="." horiz-adv-x="11" 
d="M20 43q10 -6 11 -17q-2 -11 -8 -19q-6 -6 -13 -3q-11 5 -19 12.5t-10 20.5q0 8 1 12q3 8 10 9.5t13 -3.5q6 -6 15 -12z" />
    <glyph glyph-name="slash" unicode="/" horiz-adv-x="347" 
d="M380 635q4 -4 3.5 -9t-1.5 -10q-2 -9 -5.5 -18t-8.5 -20q-1 5 -0.5 9t-1.5 8q-5 -7 -7.5 -15t-5.5 -16l-33 -87l-3 -9q-6 -11 -10.5 -22.5t-9.5 -22.5l-39 -84q-2 -4 -4 -12v-3q-2 -3 -1.5 -6t1.5 -6l12 12q0 -7 -3 -13q-16 -33 -30 -66.5t-29 -66.5l-33 -75
q-7 -13 -8 -26q4 2 8 10q11 19 19 38.5t17 39.5q2 4 3.5 8.5t6.5 6.5q-2 -11 -7.5 -21t-9.5 -21q-5 -12 -10 -23.5t-10 -23.5q-13 -35 -27 -68.5t-28 -67.5q-15 -35 -28 -70.5t-27 -70.5q-2 -4 -3.5 -8t-3.5 -8q-11 -20 -18 -41.5t-12 -44.5q-1 -2 -1 -4t-1 -4
q-3 -12 -13 -7q-8 5 -16 8t-16 9q-15 12 -14 30q2 21 6.5 41.5t10.5 40.5q2 9 3.5 18.5t6.5 18.5q2 15 6 29t9 28q6 16 12 31.5t11 32.5q2 6 4 8q8 9 11 19.5t7 21.5q11 32 21 63t23 62q8 20 15.5 41t16.5 41q2 4 3 7.5t5 6.5q3 -4 0.5 -8t-0.5 -9q10 22 19 42.5t18 40.5
q3 6 3 12l3 6q2 3 0.5 3h-3.5q2 11 8 16q3 12 8.5 23t9.5 23q9 26 21 50.5t25 48.5q3 5 5.5 11t8.5 10v3q2 9 5.5 16.5t7.5 15.5l26 54t27 54q2 6 5 8q7 6 13 -2q7 -8 11 -17.5t12 -17.5zM114 14q-6 -9 -3 -17q1 4 2.5 7.5t0.5 8.5v1zM137 31q2 3 3 6t-1 8q-6 -10 -11.5 -19
t-8.5 -20q-2 -5 -6 -8l-12 -27q-7 -15 -12 -30.5t-10 -31.5q-3 -9 -6.5 -18.5t-4.5 -20.5q5 6 6.5 12t3.5 11q14 35 27.5 69t29.5 68zM146 59q-1 -1 0 -1v1zM151 69h1h-1zM162 128q-5 -7 -5 -13q3 4 5 13zM163 129q5 4 5 12q-3 -3 -5 -11v-1zM230 274q-5 -5 -7.5 -11.5
t-6.5 -12.5q13 9 13 25zM215 243v3v3v-3q0 -3 -1 -3h1zM229 278q2 2 2 3h-1q-2 0 -2 -2v-3h3zM365 596q3 0 3 3h-2v-3h-1z" />
    <glyph glyph-name="colon" unicode=":" horiz-adv-x="29" 
d="M44 427q4 -7 4 -15q-2 -17 -13 -25q-7 -6 -16 -1q-10 7 -16.5 15t-4.5 21q1 5 1 9t2 9q5 10 13 13q5 2 11 0t9 -7q2 -5 5 -9t5 -9v-1zM17 201q4 -5 7.5 -9t7.5 -8q3 -4 2 -8q-2 -5 -2.5 -11t-1.5 -11q0 -3 -4 -9q-5 -10 -17 -6q-7 2 -13 7t-9.5 12t-4.5 15t3 17
q3 7 9.5 11t13.5 5q4 0 8 -4z" />
    <glyph glyph-name="semicolon" unicode=";" horiz-adv-x="82" 
d="M54 190q2 -5 5 -8.5t6 -6.5q5 -7 4 -14q-1 -5 -2 -8.5t-3 -7.5q-13 -26 -26 -51t-27 -50q-2 -2 -3.5 -5t-3.5 -5q-6 -4 -10 -5q-10 -4 -13 8v4q0 5 1 9t3 9q10 27 21 53.5t22 52.5q3 6 4.5 12t4.5 11q4 6 7 8q4 1 7 -1q1 -1 2 -1.5t2 -2.5zM25 95q4 8 4 12q-2 -2 -2.5 -5
t-1.5 -6v-1zM41 126q5 8 9 16.5t6 17.5q-1 -2 -2 -3t-2 -3q-5 -11 -10 -20.5t-10 -20.5q-2 -4 -2 -7q4 5 6 10.5t5 10.5v-1zM97 425q3 -2 3 -9q-3 -15 -13 -25q-9 -10 -20 -2q-6 4 -10 9t-8 11q-2 3 -2 10q0 9 4.5 16t12.5 8q7 2 13.5 0.5t11.5 -9.5q4 -7 8 -9z" />
    <glyph glyph-name="less" unicode="&#x3c;" horiz-adv-x="275" 
d="M284 178q1 -5 5 -13q5 -8 -5 -6l-12 2t-13 3q-19 4 -37.5 8t-37.5 9l-24 4t-24 5q-18 3 -35.5 5t-35.5 4q-11 1 -22.5 2t-22.5 2q-21 3 -28 21q-3 7 -5 14l-4 14q-2 5 3 10l6.5 6.5t7.5 5.5q14 10 29 17.5t30 15.5q7 3 13 6.5t12 7.5q-4 -1 -7.5 -2.5t-6.5 -2.5
q-5 -3 -9 -3q11 7 22.5 12.5t22.5 11.5l19 9.5t19 8.5l26 12t25 13q8 5 17 10t18 9q14 5 25.5 12.5t23.5 15.5q2 1 7 1t6 -4q0 -5 1.5 -9.5t1.5 -9.5q1 -9 -6 -18q-7 -8 -15 -14.5t-16 -12.5q-5 -4 -10.5 -7.5t-11.5 -5.5q5 5 11 8.5t11 8.5q2 1 4 2.5t2 4.5q-6 -3 -12 -6.5
t-12 -7.5q-8 -4 -14 -4l-2 -1q-5 -2 -9.5 -5.5t-9.5 -6.5q-2 -2 -2 -3t-1 -3q-2 -3 -5.5 -5t-6.5 -4q-2 -2 -4.5 -3t-4.5 -4q-2 0 -2.5 -1t-2.5 -2h-2q-2 -1 -3.5 -1.5t-3.5 -2.5v-1q-5 -5 -8 -6q-9 -8 -25 -15q-20 -11 -39.5 -22.5t-39.5 -22.5q-2 -2 -3 -4q2 -1 5 -1t5 -1
q34 -4 67.5 -9t67.5 -13q20 -5 38 -11t36 -15q12 -5 13 -14v2zM265 373q1 1 2 0h-2zM291 404q-6 -5 -11.5 -9t-10.5 -9q-3 -2 -3 -5q14 10 18.5 14t5.5 9h1zM266 381q-3 2 -5 -0.5t-5 -4.5q4 0 6 1.5t4 2.5v1zM193 336q-2 2 -2 -1q-1 0 -1 -1h2q1 0 1 1v1z" />
    <glyph glyph-name="equal" unicode="=" horiz-adv-x="269" 
d="M287 355q2 -5 -3 -5q-7 -2 -13 -3t-12 -3q-32 -6 -63 -9q3 2 6.5 2.5t6.5 2.5q-2 5 1.5 5.5t4.5 2.5q1 1 2 1t3 1q-1 1 -3 1q-13 -2 -25.5 -3t-25.5 0q-1 0 -3 -2q-2 3 -5.5 2t-6.5 -1q-2 1 -1 -1t0 -4q-2 -1 -3.5 1.5t-3.5 0.5h-2q-4 1 -8 0.5t-8 -0.5q-26 -5 -51 -6
q-14 -2 -29 -4t-30 -3l-12 -3q14 -1 28 -1t28 3v-3.5t-4 -2.5t-7 -2.5t-8 -0.5q-2 0 -3 -1q-9 -3 -18 -2.5t-18 2.5q-8 3 -12 9q-9 12 -9 26q0 6 7 6q18 -1 35.5 1.5t35.5 4.5q23 3 45.5 6t45.5 6q11 1 22.5 1t22.5 1q20 1 38.5 1.5t37.5 -0.5h4q9 -2 11 -4t1 -11
q0 -3 -0.5 -6t1.5 -5v-1zM11 348h9h-9v0zM29 349q4 1 7 0.5t6 -0.5h-13zM53 350h8h-8zM70 353q3 -1 6.5 -1.5t6.5 1.5h-13zM83 353h9t8 2h-9t-8 -2zM102 355h14q-4 1 -7.5 1.5t-7.5 -1.5h1zM128 358h9h-9zM156 359h-9h9zM168 361h9h-9zM203 363h-13h13zM233 365h-18h18z
M250 367h3h-3zM255 347h1h-1zM263 366h2h-2zM271 349q3 0 3 1q0 2 -1 2t-3 -2h1v-1zM267 284q8 3 8 -5q2 -10 2 -16q-8 -7 -18 -8q-1 0 -5 -2q-3 -2 -6.5 -2t-5.5 -4h-1q-1 0 -2 1q-4 0 -7 -3h-2q-18 -5 -36.5 -10.5t-37.5 -7.5q-2 -1 -7 -1q-4 0 -4 2q0 1 2 3q2 1 5 1.5
t5 3.5q-5 0 -8 -0.5t-6 -0.5q-6 0 -12 -2t-12 1q-5 -3 -9.5 -1.5t-9.5 -2.5q0 -1 -1 0h-1q-3 2 -6.5 1t-6.5 1q-2 -2 -5.5 -2.5t-5.5 -2.5h-1q-8 0 -15 -1l-14 -2q-8 -1 -14.5 -1h-14.5q-8 1 -10 3.5t-3 9.5q-2 9 -0.5 11t10.5 4q41 8 81.5 13.5t81.5 10.5q20 2 39.5 4.5
t39.5 4.5q6 0 11 3zM25 232q4 1 8 1t8 2h-16v-2v-1zM42 234q4 -1 13 1q-8 2 -13 -1zM63 236h9h-9zM82 238q3 -2 6 0q-2 1 -3 0.5t-3 -0.5zM100 239h-4h4zM111 241h4h-4zM258 260h-1h1v0z" />
    <glyph glyph-name="greater" unicode="&#x3e;" horiz-adv-x="298" 
d="M310 329q8 -11 -5 -21q-14 -11 -35 -21q-31 -15 -62 -29t-63 -27q-5 -2 -9 -4t-9 -1q-2 -2 -5.5 -3t-5.5 -3q-6 -3 -12 -3q-1 -2 -2 -2.5t-2 -1.5q-14 -5 -26 -11.5t-25 -11.5q-8 -4 -16 -7t-16 -8q-2 -2 -6 -2q-7 0 -7 8q-2 12 6 18q13 13 28 20q6 2 11 5.5t10 5.5
q22 12 44 22q8 4 12 8q7 6 15 9.5t16 8.5q15 8 30.5 15t29.5 15q11 6 20.5 12t20.5 12q3 0 3 3q0 2 -5 2q-5 1 -11 1.5t-12 1.5q1 2 4 5v2q1 2 1.5 4t2.5 4q-3 2 -6.5 0t-7.5 0t-8 2.5t-8 1.5h-16h-15.5t-15.5 -1q-5 0 -8.5 -1t-8.5 -1t-9 -0.5t-9 -0.5q-4 0 -6 -2
q1 -1 5 -1h41q2 -2 3.5 0t3.5 1q3 2 5 0h2q3 0 5.5 0.5t5.5 -1.5q1 -2 4 1q5 2 8 -1t6 -5q0 -4 -4 -4q-10 1 -19.5 -0.5t-19.5 -0.5t-20 1h-20l-24 2t-24 0q-2 0 -2.5 0.5t-1.5 0.5q-2 -2 -3 -1t-3 1q-4 1 -8 1h-8q-17 -3 -36 2q-10 1 -16 10q-4 6 -6.5 12t-1.5 14
q1 2 0 3.5t-1 3.5q-4 10 -1.5 14.5t11.5 6.5q18 5 33 2q13 -3 5 -14q2 -2 5 -2h5q23 0 44.5 0.5t44.5 0.5q35 -1 69 -2.5t69 -9.5q15 -3 30 -9q15 -8 14 -22q-1 -5 0 -10t-1 -10q-1 -4 2 -9zM298 322q-2 2 -3 2t-3 -4q2 2 5 2h1zM272 367l2 1h-2v-1zM270 368q-3 3 -8 1
q2 -1 4.5 -1t4.5 -1zM257 303q0 -4 3 -1h2q2 0 0 2v1l-2 -1l-1 1l-2 2q-1 -1 -1 -3zM257 296v1h-1q0 -1 0.5 -1t0.5 -1v1zM92 355q3 0 6 0.5t6 -0.5h-12zM162 376q24 -1 48.5 -2.5t48.5 -5.5q-2 2 -5.5 2.5t-5.5 0.5q-26 5 -50.5 6.5t-50.5 2.5h-68h-45q-7 0 -13 0.5
t-14 -0.5q8 -2 10 -2h42q26 -1 53 0t53 -1zM256 350q-3 0 -3 1q0 -1 0.5 -1t0.5 -1zM247 353q-5 2 -10 2h-10q2 -4 4.5 -3t4.5 -1q7 -2 15 0q-2 2 -4 2zM225 342q-3 -2 -3 2q3 0 4 -1q0 -2 -2 -2zM229 340q6 0 12 -0.5t12 -1.5q2 0 4 2q0 1 0.5 1.5t0.5 1.5l-1 1
q-2 -1 -4 -0.5t-4 0.5h-2q-2 1 -4.5 0.5t-4.5 -0.5q0 2 -2 0q-4 2 -7 0q-3 -3 0 -3v-1zM244 295v-3v3zM242 299q0 -2 2 0h-1h-1zM242 289h-2h2l2 1h-2v-1zM236 292v-1v1zM230 292q-2 -2 2 -5l-2 4v1zM227 286q1 -4 5 0h-5zM224 289q-1 0 -1 -1q0 -2 4 -2q-2 4 -3 3zM137 235
q5 2 10 4.5t9 5.5q-4 0 -10 -2l-14 -6t-14 -7q-5 -2 -10 -5t-8 -8q-5 0 -11 -4q5 2 11 -1q4 4 7 6h2h-2q3 3 6 4q6 3 11.5 5.5t11.5 5.5zM158 245q0 2 -1 2v-2l1 1v-1zM161 257l2 1h2h-2h-2v-1zM188 271l1 1h-1v2l-2 -2q-6 -1 -10.5 -4.5t-9.5 -5.5q-2 0 -2 -3q6 3 12.5 5
t11.5 6v1zM199 275q3 1 3 5q-2 -1 -4.5 -1.5t-4.5 -3.5q2 -1 3 -0.5t3 0.5zM202 280q1 -3 5 -1q2 1 3.5 1.5t3.5 2.5h2q3 2 2 5q-4 -2 -8 -3.5t-8 -4.5zM208 266q4 2 8.5 3t6.5 5q-5 1 -8 -2t-7 -4v-2h1h-1zM283 304h-2h2h2h-2zM293 311q1 0 3 2v1q0 5 -0.5 5.5t-5.5 -0.5
q-6 -9 -17 -14q-5 -2 -9.5 -3.5t-7.5 -5.5q-2 -2 -6 -2q-2 -2 -3 -2q-6 -2 -11.5 -5.5t-10.5 -6.5q-2 -1 -2 -5q4 -1 10 5q2 2 4 3t5 -1q4 1 5.5 3.5t3.5 4.5q8 4 15.5 8t15.5 7q2 2 5 3t5 4h1v-1z" />
    <glyph glyph-name="question" unicode="?" horiz-adv-x="262" 
d="M272 512q7 -11 7.5 -23t-3.5 -25q-4 -12 -8 -18q-7 -8 -12 -16t-12 -16q-2 -4 -1 -6q3 2 4.5 4.5t4.5 4.5q-2 -4 -4 -6.5t-4 -5.5q-13 -18 -27 -35.5t-28 -34.5q-24 -30 -47.5 -61t-43.5 -63q-8 -14 -15.5 -27t-14.5 -27q-2 -3 -3.5 -6t-3.5 -6q-2 -4 -4 -7t-3 -7
q-2 -7 -4.5 -12.5t-2.5 -13.5q0 -6 -8 -8q-6 0 -8 6q-5 8 -5 16t2 16t4 14.5t3 14.5q3 14 11 29q13 31 27 56q2 5 4.5 9t4.5 9q5 12 12.5 23t14.5 22q11 18 23.5 35t27.5 32q14 15 26 31t26 31q11 13 19.5 26.5t15.5 29.5q4 9 6 20q0 7 -5 10q-14 8 -30 10q-12 2 -24.5 0.5
t-24.5 -3.5q-39 -6 -71 -25q-17 -11 -31.5 -23.5t-26.5 -28.5q-13 -18 -17 -36v-9q3 -7 8 -6q4 0 6 -5q0 -1 2 -3q-4 -2 -13 0q-16 8 -24 24t-1 35q14 33 38 57q55 50 129 61q34 6 64 -5q22 -10 31 -34q2 -5 4.5 -10t4.5 -10v-4zM23 61q3 -4 6.5 -6.5t7.5 -5.5q6 -8 4 -15
q-2 -6 -4 -11t-7 -10q2 -5 0 -9t-4 -9q-5 -21 -12 -38q-2 -7 -3.5 -14t-3.5 -14q-2 -8 -4.5 -15t-5.5 -15q-4 -13 -11 -2q-6 7 -6 20q0 14 2.5 28.5t4.5 28.5q3 14 7.5 29t6.5 29l3 9q2 6 6.5 10t6.5 9q3 3 6 1z" />
    <glyph glyph-name="at" unicode="@" horiz-adv-x="332" 
d="M312 259l4.5 4.5t3.5 6.5q-2 0 -3 -1t-3 -2h-2v-2l-3 -3h-2v-2q-2 -4 -5 -1q-1 -2 -2 -2.5t-2 -1.5q-6 -5 -12.5 -8t-13.5 -6q-2 -2 -4.5 -2.5t-4.5 -2.5q-2 -1 -3 -0.5t-2 -1.5v-2q-4 2 -8 -1t-9 1l-12 8t-11 10q-4 4 -8 10q-4 0 -4 -3q-5 -10 -11.5 -18.5t-13.5 -17.5
q-3 -5 -7 -8t-7 -7q-7 -10 -14 -19t-15 -18q-2 -2 -4 -6q7 5 12.5 11.5t10.5 12.5q6 9 15 15q-2 -4 -3 -8t-5 -7q-8 -12 -17 -22.5t-20 -19.5q-2 -2 -4 -1.5t-4 -1.5h-2h-2q-9 -5 -18 0q-15 7 -25.5 17t-15.5 27q-1 4 -2 7.5t-2 6.5q-4 16 1 35q14 62 65 99q17 12 34 16
q22 4 41 -10q8 -6 13 -8t7.5 -6t4.5 -8q1 -2 1.5 -3.5t3.5 -3.5q1 0 1 -4t2 -3q4 -4 4 -10q-1 -5 -2.5 -9.5t-3.5 -9.5q-3 -7 1 -14q0 -8 7 -9q4 -1 7 0q13 1 24 9q35 23 47 64q2 7 3 13t1 13q0 8 -1.5 15t-3.5 14q-3 16 -17 25q-29 19 -62 20q-23 0 -44 -3q-20 -2 -37 -11
t-33 -22q-52 -42 -78 -108q-8 -21 -12.5 -43t-7.5 -45q-1 -9 -1.5 -18t-0.5 -18q0 -19 2.5 -37.5t10.5 -36.5q2 -2 3 -4.5t5 -2.5l1 -2q4 -7 10 -9l12 -4q22 -8 44 -7.5t44 5.5q39 9 66.5 32t47.5 57q4 8 8 14.5t9 13.5q3 4 4.5 7.5t3.5 7.5q3 10 11 16q6 6 14 1q2 -4 1 -5
l-6 -9q0 -1 -2 -3q-2 -4 -3 -7l-3 -9q-1 -1 -1 -2t-1 -3q-2 -2 -2 -4q-2 -3 -3 -6.5t-3 -6.5q-2 -4 -3.5 -8t-3.5 -9q5 3 5.5 8t4.5 9q1 -1 1 -4q-3 -2 -3 -8q-1 -1 -1 -3q-3 -3 -3 -7q-3 -2 -3 -6q5 0 1 -2q-7 -4 -7 -9q-5 -7 -9.5 -14t-10.5 -14q-3 -5 -7 -9t-8 -9l6 3
q9 8 17 17.5t15 20.5q1 1 1 2.5t2 1.5q3 0 3 2t1 4l5 5q3 -2 3 2q3 2 5 8q6 14 11 28.5t9 29.5q0 1 1 4q1 -6 -1 -12q-11 -59 -47 -103q-6 -8 -12.5 -15t-14.5 -13q-17 -14 -36.5 -21.5t-40.5 -11.5q-17 -2 -34 -2.5t-34 4.5q-55 15 -93 59q-11 13 -16.5 28t-8.5 31
q-4 25 0 49q1 6 0 10q-2 4 -2 11q4 26 9.5 50.5t16.5 47.5q7 17 16 32.5t20 29.5q14 17 28 32t32 26q56 37 117 30q10 -1 19.5 -4t19.5 -5q3 -3 4 -3q2 0 2.5 -0.5t1.5 -0.5v1q6 -1 14 -7q11 -8 19.5 -16t15.5 -19q10 -17 19 -31q13 -21 15 -45q3 -23 -9 -42q-8 -13 -17 -24
t-20 -20q-2 -2 -4 -3t-5 -1q3 5 7 8t8 8zM341 309v-1v1zM286 136h-1h-1q1 1 2 0v0zM179 41q1 0 1.5 -0.5t-0.5 -0.5l-1 -1q1 1 2 1zM133 408l1 1v1q-1 0 -1 -1q-1 0 -1 -0.5t1 -0.5zM148 415q-3 0 -3 -1q1 0 1 0.5t1 0.5h1zM240 430q-8 2 -14.5 2.5t-14.5 -0.5
q-15 -2 -29.5 -4.5t-28.5 -8.5q-5 -2 -5 -3q4 0 10 2q16 6 32.5 9.5t33.5 2.5h16zM184 334h-2l-1 -2h1q2 0 2 1v1zM176 332q2 -1 2.5 -0.5t1.5 0.5h-4zM130 146q-1 0 1 2v-2h-2h1zM198 314q1 6 -6 6t-11 -3q-25 -10 -43 -30q-30 -35 -43 -73l-4 -18t-2 -19q0 -5 2 -7
q2 3 1 6t0 5q2 19 8 35.5t15 32.5l3 3q0 -3 -1 -5.5t-2 -4.5q-13 -26 -17 -49q-1 -6 -2 -11.5t0 -10.5q1 -8 7 -3q17 11 30 31q5 10 11.5 19t14.5 18q10 13 16 23l15 30q6 12 9 25h-1zM244 244h3q-1 1 -3 1v-1zM323 269q0 1 1 1t-1 1v-2z" />
    <glyph glyph-name="A" unicode="A" horiz-adv-x="476" 
d="M459 675q6 -10 4 -23q-2 -11 -5.5 -21.5t-6.5 -21.5q-7 -26 -14.5 -51.5t-10.5 -51.5q2 2 4 3q-3 -21 -6 -41.5t-6 -40.5l-24 -159q-2 -15 -5 -30t-5 -30q-1 -8 0.5 -10.5t9.5 -4.5q34 -9 41 -41q0 -2 0.5 -3t0.5 -3q0 -10 -8 -6q-9 5 -18.5 7.5t-19.5 4.5q-8 1 -8 -7
l-2 -24l-2 -24q-4 -48 -7.5 -96t-2.5 -96v-3q-1 -3 -1.5 -6t-4.5 -5q-7 -3 -14 2q-14 12 -14 26v27v6t-2 5q-1 19 0.5 37.5t-0.5 37.5q-1 8 -0.5 16.5t0.5 16.5t0.5 15t-4.5 15q-2 3 -1 7.5t1 8.5q0 7 0.5 13.5t0.5 13.5q0 8 -1.5 9.5t-9.5 0.5q-17 -2 -33 -4.5t-33 -5.5
q-14 -2 -28.5 -5.5t-28.5 -6.5q-12 -3 -18 -15q-16 -34 -31.5 -67.5t-31.5 -66.5q-10 -20 -20.5 -40t-23.5 -39q-5 -6 -9.5 -12t-10.5 -11q-16 -14 -34 -2q-3 3 -4 3q-14 4 -18 13t-3 22q2 36 -0.5 71.5t-9.5 70.5q-2 7 -3 13.5t-5 12.5q-2 3 -2.5 6.5t-1.5 7.5q-2 8 5 12
q10 6 19.5 12t20.5 11q26 10 51.5 19.5t52.5 16.5q7 1 10 9q9 21 24 43q3 4 7 12q28 65 60.5 126.5t69.5 121.5q22 35 44.5 70t42.5 71l16 30t14 32q2 6 4.5 12t6.5 11q5 8 13 3q19 -13 29 -31v1zM23 -58q20 37 36.5 75t32.5 76l-2 1q-22 -5 -42.5 -13t-41.5 -15
q-4 -1 -4 -7q1 -9 1.5 -18t5.5 -17q5 -10 7 -20.5t3 -21.5l3 -39zM250 270q-2 -2 -1 -3q2 -2 2 2v3h-3zM243 258q2 0 1 1v-3zM215 212q4 4 4 11q-4 -6 -5 -10zM219 207q0 -2 -1 -3q0 1 2 3h-1zM223 212q0 -2 -1 -3q0 1 2 3h-1zM227 218q0 -4 -2 -5q0 3 3 5h-1zM225 232
q8 4 8 14q-2 -4 -3.5 -7.5t-3.5 -7.5zM233 230q-2 -7 -5 -9q0 6 5 9zM246 257q0 -2 -1 -3q1 1 1 3zM243 252q0 -1 -2 -3q0 2 1 3h1zM239 247q0 -1 -2 -3q0 1 2 3zM236 242q0 -4 -3 -5q0 3 3 5zM210 233q-3 -2 -3.5 -4.5t-1.5 -6.5q3 3 4 5.5t2 6.5zM211 205q0 -1 -2 -3l3 3
h-1zM208 200v-3q1 1 1 3h-1zM205 191q3 -3 5 1l3 6l-3 -3q-3 -3 -4 0q-2 -4 0 -6zM239 163q7 2 13.5 3t12.5 4q-2 2 -3 4.5t-5 1.5q-1 -4 -7 -6q-8 -2 -10 -8zM323 176q3 1 3 5t-3 4h-6q-10 -2 -20 -2t-20 -3q0 -2 1 -4t-4 -1q-6 1 -8 -5q14 -1 27 1.5t27 3.5q1 0 1.5 0.5
t1.5 0.5zM331 100h-3v18v-18h3zM328 124q2 7 2 11.5t-1 9.5q-4 -7 -1 -20v-1zM336 32q3 4 1 9q-1 -2 -2 -4.5t1 -5.5v1zM337 43q2 2 2 3q2 19 3 37.5t1 37.5q-5 -15 -6 -30.5t-2 -31.5v-9t2 -8v1zM357 461q1 4 2 8.5t0 10.5q-2 -4 -4 -7l-4 -6l-45 -81q-2 -5 -4.5 -9
t-7.5 -6v3q-6 -6 -9 -14q-5 -12 -11.5 -24t-13.5 -24v-3l3 -3q-1 -5 -5 -15l-42 -90l-4 -6t-1 -8q27 5 54 6t54 4q6 1 7 4t2 7q5 26 7 51t4 51q2 38 6 74.5t13 72.5zM418 484q-2 -3 -2 -10q1 3 1 9zM412 451v3v-3zM416 463v10q-4 -4 -1 -10h1zM419 485q3 4 3 12
q-3 -6 -3 -12zM422 499q4 5 2 12q-2 -4 -2 -12z" />
    <glyph glyph-name="B" unicode="B" horiz-adv-x="434" 
d="M409 435q-19 -34 -44.5 -61.5t-55.5 -50.5q-6 -5 -12.5 -9t-11.5 -10l16 -10t15 -11q19 -18 30 -42q13 -28 16 -62l2 -18t3 -18q3 -25 0.5 -48.5t-13.5 -46.5q-12 -14 -19 -34q-6 -17 -16.5 -31t-23.5 -27q-3 -3 -6 -5.5t-5 -6.5h-3v-3q-2 -2 -4 -3.5t-4 -2.5
q-2 -3 -8 -5q-3 -4 -9 -4q-7 -7 -15 -10.5t-16 -7.5q-48 -22 -97 -29q-15 -2 -30 -3.5t-31 0.5q-57 7 -88 55l-9 15q-5 8 -5 16t4 10t8 -4q9 -12 21.5 -17.5t26.5 -8.5q16 -4 31 -2.5t30 3.5q26 5 51.5 12t51.5 15q30 11 54.5 28.5t46.5 40.5q25 25 36.5 55t17.5 63
q3 18 -3 35.5t-17 32t-24.5 23.5t-26.5 11q-24 3 -49 -2q-33 -7 -66 -26q-14 -9 -22 -24q-7 -14 -13 -29t-10 -31q-2 -11 -4.5 -21t-5.5 -21q-5 -17 -10.5 -32.5t-10.5 -31.5q-5 -13 -6.5 -26t-3.5 -27v-6q0 -3 -0.5 -6t-4.5 -4q-3 -1 -5 1l-4 4q-31 25 -22 65q9 42 19 83.5
t24 82.5q8 23 14.5 47t13.5 48q9 32 21.5 62t26.5 60q13 29 26.5 57t27.5 56q8 14 17.5 26.5t18.5 26.5l18 24q6 8 9.5 8t9.5 -7q6 -6 8 -10q14 -21 4 -41q-23 -45 -42 -91t-39 -92q-8 -17 -15 -35t-15 -35q-2 -2 -3.5 -4.5t0.5 -7.5q5 1 9.5 3.5t9.5 5.5q54 40 99 88
t84 103q28 39 37 84q3 17 -9 30q-15 17 -34.5 26t-41.5 14q-51 10 -98 1.5t-92 -30.5q-17 -8 -32 -17t-29 -22q-37 -37 -40 -93q0 -6 -2 -7q-3 -1 -7 3q-10 12 -12 29q-6 44 17 85q2 4 4 6q15 14 28.5 29t30.5 27q17 13 35 21t38 15q80 28 159 13q20 -4 37.5 -11.5
t33.5 -21.5q32 -27 33 -67l3 -54q2 -31 -7 -59.5t-24 -55.5zM215 649v1h1zM272 656q-11 -2 -22.5 -3.5t-25.5 -2.5q20 7 45.5 8t49.5 -4l-24 2t-24 -1zM328 651h3h-3zM351 371v1h-1zM257 277h3h3h-3q-3 0 -3 1v-1zM266 276h3q0 1 -2 1h-3q2 -2 3 -2zM181 -42q-5 0 -6 -3
q2 1 3 1t3 2zM174 -45l-6 -3q2 2 8 2zM168 -48q-7 0 -10 -2q6 0 9 2h1zM158 -51q-10 0 -22 -7q5 2 10.5 2.5t10.5 4.5h1zM192 -39q3 0 6 0.5t7 3.5q-5 -2 -8 -2.5t-5 -2.5v1z" />
    <glyph glyph-name="C" unicode="C" horiz-adv-x="423" 
d="M451 613q8 -12 -5 -15q-29 -8 -50 -27t-38 -42q-8 -11 -16 -22.5t-16 -22.5q-20 -28 -35 -58.5t-26 -62.5q-4 -11 -6 -22l-4 -22q-1 -5 -1.5 -9.5t-3.5 -9.5q-5 -8 -10 -2q-10 10 -13 24q-3 12 -3.5 24t1.5 24q3 22 8.5 43t14.5 41q5 10 8.5 19.5t8.5 19.5q6 14 13 28
t17 26q4 4 3 8q-5 -2 -9 -4.5t-8 -5.5q-55 -43 -95 -96q-17 -23 -32.5 -47.5t-30.5 -49.5q-14 -24 -25.5 -49t-23.5 -50q-5 -11 -9 -23l-8 -24q9 1 6 -8q-8 -27 -12.5 -54.5t-9.5 -55.5q-9 -54 -1 -111l3 -12q1 -6 9 -8q15 -2 30 3q20 6 38 15.5t33 24.5q26 27 53.5 52.5
t53.5 53.5l42 48l6 6q5 2 6 1q1 -2 -1 -6q-2 -5 -5 -10.5t-5 -11.5l30 33q5 5 11 9.5t14 5.5q2 -11 -0.5 -20t-7.5 -18q-7 -11 -15 -21.5t-15 -21.5q-14 -22 -31.5 -40t-34.5 -38t-33.5 -39t-35.5 -36q-13 -11 -26.5 -21t-29.5 -18q-17 -8 -34.5 -9t-34.5 9q-15 9 -27 21
l-24 27q-14 16 -21.5 34t-11.5 38q-8 40 -4 79t12 77q2 9 5.5 17t9.5 16q3 4 3.5 9.5t1.5 10.5q2 8 3.5 16.5t3.5 16.5q6 25 15.5 47.5t20.5 45.5q4 8 8 14.5t9 13.5q9 13 17 26t16 27q10 15 21.5 29t22.5 28l39 48q14 17 29 32t34 26q10 6 21 9.5t22 9.5q4 2 8 3.5t9 3.5
q21 6 39 -2q6 -4 13 1q5 4 10.5 6.5t10.5 4.5q22 9 42.5 -0.5t32.5 -26.5v-3zM297 129v-1v1zM46 150q1 6 0 10q-1 -2 -2 -4.5t1 -5.5h1zM48 161q5 8 7.5 17.5t4.5 18.5q0 2 -1 3t-2 3q-8 -18 -10 -41zM422 600h-1h1z" />
    <glyph glyph-name="D" unicode="D" horiz-adv-x="475" 
d="M404 597q8 -21 14 -43.5t9 -48t1.5 -54t-7.5 -62.5q-4 -51 -12 -101t-23 -99q-9 -29 -24 -54q-8 -13 -15.5 -25.5t-15.5 -25.5q-11 -17 -24.5 -33t-28.5 -31q-3 -3 -5.5 -6t-4.5 -7q-7 -15 -18 -26t-24 -21q-22 -17 -44 -32t-48 -26q-48 -19 -94 0q-15 6 -30 19.5t-26 32
t-16 39.5t1 42q5 17 12 33.5t15 32.5q7 13 13.5 25.5t14.5 24.5q14 23 30.5 42t34.5 37q8 8 14 17.5t8 21.5l4 16t7 15q2 2 2 5t1 5q4 19 7.5 37.5t8.5 36.5q11 34 19.5 68t20.5 67q2 6 4.5 11.5t6.5 10.5q0 -2 1 -3q3 -3 3 1q5 14 12 27t13 27q5 11 10 20.5t10 20.5
q-5 2 -8.5 1t-7.5 -3q-88 -31 -138 -104q-10 -14 -16 -30t-8 -34q0 -3 -0.5 -5.5t-0.5 -5.5q0 -6 -3 -7t-7 3q-6 8 -11 16t-7 17q-5 23 -2 45t13 43q2 5 5 10.5t6 10.5q4 7 9 12.5t11 10.5q10 8 20.5 16t18.5 19t17.5 17.5t20.5 12.5q55 33 120 33q20 0 39 -6t36 -17
q8 -5 15 -12.5t13 -15.5q12 -16 19.5 -33.5t12.5 -36.5zM237 699h39t38 -5q-36 13 -77 5zM318 647q-8 7 -20 4q6 -2 10.5 -2.5t9.5 -1.5zM177 331q-10 -17 -10 -33l9 33h1zM163 287q-2 -3 -2.5 -6t-1.5 -5q3 4 4 11zM53 -90q30 -7 61 4q-9 -1 -18 -1t-17 -2q-7 -2 -13.5 0
t-13.5 0zM390 442q2 26 3.5 52.5t-2.5 52.5q-6 47 -38 77q-23 22 -58 22q5 -14 5 -18t-5 -18q-9 -22 -19 -43t-17 -44q-11 -38 -24.5 -74.5t-27.5 -73.5q-6 -17 -12 -33.5t-11 -33.5q-12 -39 -22.5 -78t-18.5 -79q-9 -42 -21 -83t-20 -83q-3 -12 -14 -8q-3 1 -7 7
q-12 13 -10 36q2 32 8 62.5t11 61.5q2 13 4.5 25.5t7.5 24.5q1 2 1.5 5t-1.5 8q-11 -13 -21 -25t-18 -26q-14 -21 -26 -42.5t-24 -44.5q-25 -46 -19 -95q2 -11 8 -16q28 -24 64 -21q14 2 27.5 6.5t26.5 11.5q35 20 63.5 45.5t54.5 55.5q12 14 22.5 28.5t21.5 29.5
q17 23 31 47t25 50q7 18 12.5 36.5t10.5 37.5q11 38 20 76.5t12 78.5z" />
    <glyph glyph-name="E" unicode="E" horiz-adv-x="444" 
d="M549 685q31 -15 22 -51q-1 0 -2 -1q-20 13 -42 16t-45 4q-33 2 -65.5 -4t-64.5 -13q-8 -2 -16.5 -3.5t-16.5 -3.5q-7 -1 -7 -9t-3 -15.5t-6 -15.5q-8 -24 -15 -48t-17 -47q-4 -9 -7.5 -17.5t-7.5 -17.5q-2 -5 -4.5 -10.5t-3.5 -11.5h3q-2 -10 -5.5 -18.5t-6.5 -17.5
q-5 -14 -11 -27t-11 -27q-4 -8 6 -7q21 2 42 2.5t42 1.5q14 1 28.5 0t28.5 -3q5 -1 8.5 -2t7.5 -3q17 -9 14 -28q-2 -13 -16 -13q-48 1 -93 -8t-90 -20q-7 -2 -9.5 -6t-4.5 -9l-20 -60t-20 -61q-12 -38 -23.5 -76t-22.5 -76q-3 -11 -5.5 -21.5t-4.5 -21.5q5 -2 8 0l6 4
q26 11 52 19.5t54 13.5q23 4 47 5t48 -2l15 -3q17 -5 25 -17.5t6 -29.5q0 -4 -4 -4t-4 3q-2 11 -9.5 13.5t-15.5 2.5q-21 0 -42 -1.5t-41 -10.5q-23 -10 -46 -18t-46 -19q-32 -14 -62 -32.5t-59 -39.5l-18 -12q-11 -6 -18 4q-4 5 -7.5 11t-7.5 12t2 15q6 8 13 15.5t16 12.5
q14 8 19 20t6 27q3 38 17 77q16 46 27 95q5 20 10.5 39.5t11.5 39.5q5 14 9.5 27t9.5 27q2 4 1 8q-2 2 -4.5 1.5t-4.5 -1.5q-8 -2 -15 -4.5t-15 -4.5q-14 -3 -19 10q-2 5 -3.5 10.5t-3.5 10.5q-3 7 1 18q8 26 16.5 51.5t17.5 51.5q11 34 21 68t17 69q4 19 6.5 37.5t5.5 37.5
q2 9 -4 15q-2 2 -6 8q-3 7 3 8q42 13 80.5 30t80.5 28q11 3 21 6t21 5q5 1 8.5 2t7.5 3q8 4 14 4q23 -1 45 2t45 2q18 0 36 -1t35 -5q19 -3 35 -12zM271 -53q-11 1 -16 0t-12 -4q4 1 7.5 1t6.5 1l15 3zM239 -56q-3 0 -3 -1h3h3h-3v1zM383 305h-3h3zM377 307q-5 6 -14 2
l15 -3zM314 309h15h-15zM283 306h2q0 -2 0.5 -1t-1.5 1h-2q0 2 -0.5 1t1.5 -1zM256 303q0 -1 1 -1q0 2 0.5 1t-1.5 0h-1h1zM190 332q8 16 12.5 31.5t9.5 31.5q-2 0 -2 -1l-24 -57h1q1 0 1 -1q0 -2 1 -2zM213 396q0 2 2 6l-3 -6h1zM219 382v-3v1v2zM220 417q-1 -1 -2 -1t1 -2
v3h1zM220 381q3 3 3 6zM232 450l3 6q-2 -2 -2 -5zM236 426q-2 -4 -2 -6q3 3 3 6h-1zM231 413q-5 -5 -6.5 -11.5t-4.5 -12.5q6 5 7.5 11t3.5 13zM241 417h-1v-1zM244 425q-2 0 0 -1v3v-2zM246 426q2 2 2 3l-3 -3h1zM253 592q2 3 3.5 6t0.5 7q-2 1 -6 1q-20 -5 -39.5 -9
t-39.5 -7q-11 -2 -14 -6t-4 -15q-3 -32 -8 -63.5t-15 -62.5q-9 -29 -16 -57.5t-18 -56.5q-3 -8 -6 -16.5t-7 -19.5q25 10 45 16q6 2 8 3q9 5 9 13q0 5 1 9t2 9q5 20 13 39t14 39q14 45 32.5 88t42.5 84z" />
    <glyph glyph-name="F" unicode="F" horiz-adv-x="369" 
d="M547 629q1 -3 1 -9q0 -8 -5 -9q-4 -2 -8 5q-11 14 -26 20.5t-34 8.5q-43 4 -84 -2t-83 -14q-10 -2 -14 -10q-23 -57 -46 -112.5t-46 -112.5q-5 -14 -4 -16t15 0q24 2 47.5 0t46.5 -7q19 -3 34 -15q9 -6 12 -16q2 -5 -0.5 -7.5t-7.5 -1.5l-9 3q-16 8 -32 8.5t-33 -1.5
q-21 -3 -42 -7t-42 -10q-18 -6 -23 -22q-22 -64 -45 -126.5t-43 -126.5q-11 -35 -23.5 -69.5t-24.5 -69.5q-5 -14 -10.5 -16.5t-19.5 4.5q-12 6 -15 12t-1 21q2 24 7 47.5t9 47.5q12 68 17.5 136t-0.5 137q-1 5 -2 10.5t3 10.5q7 8 15 13t19 5q5 0 9.5 1t9.5 3q9 4 18 7.5
t18 6.5q10 3 11 12q1 5 2 9t2 9q2 14 7.5 27t13.5 25q4 8 3 13q-1 4 0.5 7t3.5 6q12 32 26.5 62t28.5 61l3.5 7t1.5 8q-4 2 -7 1l-6 -2l-69 -24l-12 -4t-13 -3q-14 -2 -20 11q-5 11 -7.5 16t-2.5 8t3.5 7t11.5 13q2 3 4.5 5.5t7.5 4.5q1 -4 -0.5 -6t-3.5 -4q9 -2 15 2
q32 17 66 28t68 23q11 4 21.5 6.5t21.5 3.5q27 2 53.5 6t53.5 3q26 -1 51 -3.5t50 -9.5q22 -6 33.5 -21t16.5 -35zM42 297h3v1h-3v-1zM87 276q1 2 1.5 4.5t-1.5 4.5q-3 2 -9 0q-8 -2 -16.5 -4.5t-16.5 -2.5q-7 0 -5 -7q2 -8 3 -15t2 -15q2 -23 1.5 -45t-1.5 -45q14 31 24 63
t19 64zM297 348q-13 0 -25.5 0.5t-25.5 -3.5h51v3zM245 346h-15q7 -3 15 -1v1zM214 342h1v1z" />
    <glyph glyph-name="G" unicode="G" horiz-adv-x="403" 
d="M335 554q6 9 11.5 18t10.5 18q2 2 3.5 4.5t0.5 5.5q-10 0 -30.5 -8t-36.5 -19v-3q-5 -6 -11 -9.5t-12 -8.5q-127 -93 -188 -244q-18 -46 -32.5 -92.5t-22.5 -95.5q-9 -57 -5 -112q1 -12 5.5 -22t9.5 -21q2 -6 12 -6q8 0 15.5 2.5t14.5 6.5q16 9 29 20.5t24 25.5
q25 30 45 68q12 22 25 43t27 42q16 25 31.5 49t29.5 50q4 8 7 15t6 15q4 9 8.5 17.5t11.5 16.5q6 8 11 10q10 4 14 -5q4 -8 8 -15t10 -13q7 -7 2 -16q-2 -6 -5 -12t-5 -12q-17 -42 -31 -84t-28 -85q-10 -30 -19 -60t-20 -59q-5 -14 -8.5 -29t-8.5 -30q-2 -5 -3.5 -11
t-4.5 -11v4l-3 -6q-2 -9 -4.5 -18.5t-5.5 -18.5q-2 -5 -2 -11.5t-8 -8.5q-1 0 -1 -3v-5q-5 -6 -11 0q-9 9 -9 21q1 12 1.5 24t2.5 23l24 111q4 17 7 34.5t7 37.5q-7 -8 -10 -15t-8 -14q-11 -17 -20.5 -34.5t-20.5 -34.5q-8 -15 -23 -28q-11 -9 -18 -21q-8 -9 -18 -15
q-23 -14 -47 -3q-47 21 -72 64l-10 16t-6 18q-1 8 -2 15t-2 15q-2 8 -2 16.5v16.5q-1 14 -3 28.5t-1 28.5q3 48 13 93t30 89q7 16 13 31.5t13 31.5q14 36 35.5 67t47.5 59q14 14 27.5 28.5t28.5 27.5q22 18 44 35.5t47 31.5q18 11 37 18.5t40 11.5q14 3 28 2.5t28 -8.5
q7 -3 13 0q10 4 15 5q22 5 25 -17q1 -5 1 -10.5t4 -10.5q-9 0 -15 -4t-11 -9q-26 -24 -46.5 -52.5t-39.5 -58.5q-8 -12 -13 -24.5t-7 -26.5q0 -7 -5 -8t-7 5q-11 21 -7 40q9 35 30 67zM134 442q6 4 7 9q-5 -3 -7 -10v1zM141 454q8 7 15.5 14.5t12.5 17.5q-18 -14 -27 -33z
M191 499q9 9 18.5 17t17.5 19q-11 -7 -19.5 -15.5t-16.5 -19.5v-1z" />
    <glyph glyph-name="H" unicode="H" horiz-adv-x="519" 
d="M539 614q-2 -5 -1 -6q5 -6 2 -11.5t-5 -10.5q-13 -35 -26 -68.5t-28 -67.5q-8 -17 -15.5 -33.5t-12.5 -33.5q-5 -20 -11.5 -38.5t-12.5 -38.5q-3 -9 6 -9q8 -1 15 -2t15 -3q11 -3 20 -9q4 -3 8 -11q2 -5 0.5 -6t-8.5 -2v-3q-27 1 -54 0q-18 -1 -22 -18q-3 -14 -7 -26.5
t-8 -26.5q-10 -34 -22.5 -66.5t-24.5 -64.5q-14 -36 -27.5 -71.5t-27.5 -70.5q-6 -14 -15 -28q-5 -6 -12 -8.5t-12 -0.5q-17 8 -12 26q8 28 16 55.5t19 54.5q18 47 30 94q5 18 11.5 35t11.5 34l18 60q3 10 -9 9l-18 -3q-38 -10 -74.5 -20.5t-73.5 -21.5q-11 -4 -15 -15
q-21 -58 -42 -115.5t-41 -116.5q-5 -17 -12 -32.5t-13 -32.5q-3 -8 -9.5 -12t-14.5 -6q-4 -2 -4 2q-2 7 -5.5 13t-3.5 14q-1 38 -2 76.5t-3 76.5q-1 14 -1.5 27t-3.5 27q-5 20 -3 40q1 15 -9 27q-8 8 -11 18l-6 20q-1 2 1 8q2 5 4.5 9t7.5 5t7 -3t4 -7q2 -4 3 -8.5t6 -6.5
t9 0t9 3q19 3 36.5 8.5t34.5 13.5q15 7 20 22q15 45 31.5 89.5t33.5 89.5q8 21 17 42l18 42q11 27 20 54.5t19 55.5q4 12 4 27q0 7 -1.5 8.5t-8.5 0.5q-33 -3 -60 -16q-36 -17 -67.5 -39.5t-57.5 -53.5q-18 -21 -32.5 -44.5t-21.5 -51.5q-1 -5 -1 -9t-1 -9q-3 -11 -13 -7
q-12 5 -18.5 16t-5.5 25q1 11 4 21.5t8 20.5q18 36 41.5 68t53.5 59q7 6 14.5 9.5t14.5 8.5q10 8 19.5 15t20.5 13q14 8 29 14t32 8q11 1 23 0q28 -3 38 -29q3 -8 7 -16l8 -16q8 -20 8.5 -41t-4.5 -42q-9 -42 -22 -81.5t-27 -79.5q-12 -34 -24.5 -67.5t-24.5 -67.5l-2 -6
t0 -7q8 0 15 2t15 3t15 1.5t15 4.5l-3 1.5l-3 1.5q11 4 22 5.5t22 3.5q16 3 31.5 4.5t31.5 2.5q9 0 11 1.5t5 9.5q14 35 25 70t23 70q10 27 22 53l24 52q7 14 12.5 29t12.5 29q5 11 10 21t12 20l4 6t7 3q9 0 12 -10l9 -21q5 -10 1 -19zM271 578v-1h1q0 2 -2 0zM265 556h1v1z
M177 658q4 2 7.5 3.5t7.5 3.5q-9 0 -15 -7zM193 666q14 4 28.5 7t28.5 7q-2 4 -3.5 7.5t-6.5 1.5q-9 4 -15 -4q-4 -5 -9 -6.5t-10 -3.5q-3 -3 -7 -3.5t-6 -5.5zM260 537q2 2 2 8q-2 -3 -2 -9v1zM47 35q8 35 20.5 68.5t21.5 69.5q-14 -3 -27 -5.5t-26 -4.5q-7 -1 -8 -2.5
t0 -8.5q2 -8 3 -16t3 -16l12 -84zM92 205q6 2 7.5 6t1.5 10q-7 -1 -11 -4q-4 -1 -7 -6q-2 4 -4 4q-8 -2 -16.5 -4t-14.5 -8q-6 -5 -16 -8q-2 -1 -5 -1.5t-7 -4.5q20 3 37 7.5t34 9.5zM336 288h15h-15v0zM487 263h-9q-1 0 -5 3q5 0 8 -1t6 -3v1zM442 290h-3h3h3q-1 1 -3 1v-1
z" />
    <glyph glyph-name="I" unicode="I" horiz-adv-x="235" 
d="M375 720q5 -5 6.5 -12t3.5 -14q1 -4 -5 -6q-13 -5 -22 -14.5t-17 -20.5q-28 -35 -48.5 -73t-37.5 -79q-17 -39 -33 -78t-30 -79q-18 -51 -33 -102t-29 -103q-9 -35 -16.5 -69t-15.5 -69l-3 -9q-2 -6 -2 -9q0 -4 -2.5 -1t-3.5 -1q-1 -5 -2.5 -9t-2.5 -9q-2 -11 -2.5 -21.5
t-2.5 -21.5q4 2 4 6.5t3 6.5q0 -14 -2.5 -28t-4.5 -28l-6 -45q-3 -18 -18 -8q-24 15 -24 43q0 32 3.5 63.5t8.5 63.5q6 40 14 79t17 78q8 35 17 70t20 70q5 14 8 27.5t10 26.5q2 4 1 7.5t1 7.5q11 35 27 73l2 4t3 4q2 11 6.5 22t8.5 22q2 5 3 9.5t2 9.5q3 16 9 29
q10 19 17 39t18 38q-2 2 -3 0.5t-3 -2.5q-32 -24 -62.5 -50.5t-58.5 -56.5q-44 -47 -76 -105q-5 -8 -7.5 -16t-4.5 -16q-5 -16 -17 -5q-2 2 -6.5 9t-8.5 15t-7 15.5t-3 10.5q2 29 14 51l9 15q8 13 12 23q5 11 12 20t15 17l66 66q24 25 52 43.5t58 35.5q24 13 49 24t51 20
q7 2 12.5 6t11.5 7q25 13 44 -8zM68 -112v1q-1 0 -1 -1h1zM149 379q1 1 -1 4q-2 -2 -1 -4h1h1zM157 399v3h-2q-1 -1 -1 -3v-3q2 2 2 3h1zM168 425q4 4 5 9t3 10q-2 -5 -4 -9.5t-3 -9.5h-1zM184 463q-2 -4 -2 -6q2 4 2 6z" />
    <glyph glyph-name="J" unicode="J" horiz-adv-x="395" 
d="M614 713q13 -4 13 -19q0 -14 -14 -11q-19 4 -37.5 4t-37.5 -2q-29 -3 -57 -7t-57 -9q-7 -1 -13.5 -2t-13.5 -3q-9 -2 -6 -9q2 -6 0.5 -11.5t-3.5 -10.5q-11 -49 -19 -98t-18 -98q-5 -29 -8 -57t-7 -57q-3 -21 -6.5 -42t-10.5 -41q-6 -17 -6 -34q0 -9 -4 -16
q-2 -17 -6.5 -32.5t-9.5 -31.5q-11 -38 -27 -73t-35 -69q-5 -10 -10 -19.5t-10 -19.5q-19 -35 -45 -62t-58 -49q-11 -8 -24 -10.5t-26 -3.5q-8 -1 -15.5 2.5t-14.5 8.5q-17 11 -25 27q-12 26 -21.5 51.5t-9.5 54.5q0 47 14 95q11 35 24.5 69t27.5 68q10 22 26 45q7 10 12 20
t10 21q5 8 9.5 16t9.5 16q2 4 4.5 7t7.5 5q10 2 11 -5q1 -5 -0.5 -8.5t-3.5 -7.5q-5 -11 -12 -19.5t-12 -18.5q-17 -31 -30.5 -62.5t-27.5 -63.5q0 -4 -2 -6t-4 -5l-3 -6l-3 -9q-11 -22 -18.5 -44.5t-9.5 -46.5l-2 -18l-2 -18q-4 -39 5 -81q4 -20 27 -19q17 1 32 13
q33 24 59.5 53.5t45.5 65.5q20 38 36.5 76t30.5 78q23 66 39 130q5 19 8 38t7 39q2 9 3 18.5t3 18.5q3 12 1.5 24t-6.5 23q-4 10 -8 19.5t-9 18.5q-5 10 -10 19.5t-10 19.5q-6 12 -13.5 22t-15.5 21q-5 6 -11.5 9t-13.5 6q-9 5 -19 7.5t-21 1.5q-19 -1 -23 19l-3 15
q-3 14 9 20l20 10t21 8l-6 -6q2 -3 6 -1q45 19 92 30t95 19q32 5 64.5 6.5t64.5 1.5h37.5t37.5 -2q10 -1 19 -4l18 -6zM307 191q1 0 1 -2v3zM347 635l2 6t-1 6t-5 2l-6 -2q-10 -2 -19.5 -5t-19.5 -6l-66 -18q-6 -2 -7 -4q-1 -3 3 -5q17 -11 28.5 -25t22.5 -31
q8 -14 16.5 -27.5t14.5 -29.5q4 5 4.5 8.5t1.5 6.5q4 23 8.5 46t11.5 46q3 8 6 16.5t5 17.5v-2zM575 698h-3h3zM610 692h-1h1v0z" />
    <glyph glyph-name="K" unicode="K" horiz-adv-x="467" 
d="M257 276q-20 -19 -37.5 -40t-36.5 -41q-7 -8 0 -17q27 -38 55.5 -75t60.5 -72l39 -42q12 -14 26 -24.5t30 -19.5q19 -11 37.5 -20.5t39.5 -14.5q8 -2 15 -2.5t15 1.5q6 2 10.5 -0.5t9.5 -4.5t5 -6t-1 -8q-6 -24 -24 -36q-11 -7 -21.5 -13.5t-23.5 -9.5q-14 -3 -25 1
q-62 26 -108 73q-28 29 -53.5 59.5t-51.5 61.5q-19 23 -35 47.5t-30 50.5q-2 2 -3 4.5t-3 4.5q-4 -3 -6 -11q-15 -42 -33.5 -81t-38.5 -78q-30 -60 -57 -120q-4 -8 -11.5 -13t-15.5 -3q-2 0 -4 2q-4 5 -8.5 9t-8.5 9q-6 9 -3 17q6 15 10.5 30t11.5 29q2 5 4 9t4 9
q5 20 14 37.5t17 35.5q19 38 36.5 76.5t30.5 79.5q8 23 18.5 45.5t18.5 45.5q27 72 60.5 140.5t69.5 137.5q15 28 30 55.5t29 56.5q7 13 12 29q7 18 -12 18q-5 0 -15 -2l-6 -2t-7 1q-2 2 -4.5 0.5t-4.5 -2.5l-33 -15q-4 -2 -5 -4q-5 -8 -11.5 -13t-14.5 -10
q-19 -12 -34.5 -27t-31.5 -30q-35 -32 -63.5 -69t-53.5 -77q-19 -30 -29 -60q-2 -6 -3.5 -6.5t-7.5 2.5q-12 6 -19 17.5t-6 25.5q2 28 13 51t23 45t27 42q5 8 10.5 15.5t15.5 11.5q1 0 3 2q11 14 24.5 26.5t27.5 24.5q16 14 32 29t37 23q14 6 27 17q3 1 0 3q2 4 10 8
q20 11 41 18t44 9q13 1 27 -3q19 -6 22 -24l9 -57q2 -16 -1 -31t-8 -30q-15 -46 -34 -90t-42 -87q-12 -23 -22 -47t-21 -50q5 2 7 5t4 5q47 49 94.5 96.5t97.5 93.5q23 21 45 42t42 44q22 25 41.5 51t37.5 54l4 6t7 5q2 -14 5 -26.5t2 -26.5q0 -8 -2.5 -14.5t-6.5 -13.5
q-20 -35 -45 -67t-53 -61q-26 -28 -52.5 -56t-53.5 -55q-17 -17 -33.5 -32.5t-33.5 -32.5q-18 -17 -35.5 -35.5t-36.5 -35.5zM16 547q-2 -4 -4 -5q2 4 4 5zM22 557q1 3 5 7q0 -4 -5 -7zM291 699q1 0 1 2h-1q-1 0 -1 -2h1zM317 738h3h-3h-3q1 0 1.5 -0.5t1.5 -0.5v1zM283 504
q5 3 6.5 7t3.5 9q-5 -3 -7 -8l-4 -10zM295 521q4 4 4 11q-5 -5 -5 -10zM313 560q-6 -4 -4 -12q1 3 2.5 6t1.5 6zM307 547q-5 -2 -6 -6t-2 -9q3 3 5 6.5t4 7.5zM277 492q-4 0 -2 -7h2q0 2 1 3t-1 2v2zM170 205q5 2 12 12q-10 -4 -11 -12h-1z" />
    <glyph glyph-name="L" unicode="L" horiz-adv-x="363" 
d="M413 -76q15 -18 12 -39q-1 -10 -11 -6q-35 17 -72 22t-75 1q-68 -7 -132.5 -24.5t-127.5 -41.5l-24 -9q-9 -3 -14 6q-5 10 -5 24v14t2 8.5t6 6l12 7.5q28 15 60 24l18 6q5 2 5 6q0 2 0.5 5t0.5 6q1 29 6 56.5t10 55.5q2 12 7 23t7 23q4 23 10 45t13 44q5 14 10 27.5
t8 27.5q0 2 0.5 3t0.5 3q1 22 8 41.5t15 39.5q2 5 4 9.5t3 9.5q1 11 4 21t6 21q26 81 57.5 159.5t69.5 155.5q8 18 21 37q4 6 13 8q7 1 10 -6l18 -36q5 -11 0 -27q-13 -38 -27.5 -74.5t-28.5 -74.5q-11 -31 -22 -61t-22 -61q-5 -16 -12.5 -31t-13.5 -31q-2 -4 -3 -7.5
t-1 -8.5q-7 -12 -9 -25.5t-6 -26.5t-7.5 -25.5t-8.5 -25.5q-22 -63 -41 -126.5t-39 -127.5q-2 -5 -3 -10.5t-2 -10.5q-1 -10 8 -7q17 5 33 7t33 5q20 4 39 5.5t39 1.5q17 0 32.5 -2.5t32.5 -4.5l24 -3q34 -4 55 -32h-6zM221 -51h-3h3z" />
    <glyph glyph-name="M" unicode="M" horiz-adv-x="630" 
d="M702 655q8 -7 8.5 -11t-4.5 -13q-11 -22 -21.5 -43.5t-21.5 -44.5q-14 -30 -27.5 -60t-24.5 -61q-17 -48 -33 -95.5t-30 -95.5l-22 -78t-21 -79q-20 -76 -33 -151q-2 -7 -4.5 -13t-2.5 -14q0 -6 -8 -4t-15 9t-9 15q-2 14 -2 28.5t2 28.5q5 44 15 86t22 84q0 1 2 3
q10 20 13.5 41t8.5 42q2 8 1.5 15t1.5 15q5 15 5 30.5t5 30.5q4 14 7.5 28.5t8.5 28.5q3 13 9 23q5 8 7.5 15.5t1.5 16.5q0 5 4 15q6 19 13 37t15 36l9 21q-5 2 -6.5 0t-3.5 -3v-3l-12 -15h-3l-3 -3l-3 -3l-3 -3l-9 -12q-11 -14 -22 -28.5t-23 -28.5q-15 -17 -28 -34.5
t-26 -34.5q-7 -8 -10.5 -18t-8.5 -19q-22 -36 -39.5 -74t-34.5 -76q-8 -17 -11.5 -18.5t-19.5 7.5q-10 6 -15.5 10t-7.5 9t-0.5 12t4.5 18q15 54 33.5 105.5t41.5 102.5q8 16 15 31.5t16 30.5q8 12 12 25.5t10 26.5q1 1 1 5q-14 -14 -27 -29t-25 -31q-27 -35 -54 -69.5
t-53 -69.5q-28 -38 -53.5 -76t-47.5 -80q-20 -37 -37.5 -75t-34.5 -76q-11 -25 -21 -50t-17 -51q-3 -10 -12 -8q-7 2 -14 2.5t-13 5.5t-5 11q2 23 3.5 45t8.5 44q4 11 5.5 23t4.5 24q5 23 10.5 45t11.5 45q7 27 16.5 53t17.5 52q2 8 6.5 14t7.5 14q5 11 8.5 21t8.5 21l6 16
t8 15q-1 4 0.5 7t3.5 6q7 11 11 23t8 25q8 25 19.5 47.5t22.5 45.5l15 27q-4 -1 -6.5 -3.5l-4.5 -4.5q-18 -22 -36.5 -42.5t-34.5 -43.5q-14 -20 -28.5 -40.5t-27.5 -41.5q-8 -14 -14.5 -29t-12.5 -30q-8 -20 -15.5 -39.5t-12.5 -39.5q-1 -5 -1.5 -9t-0.5 -9q2 -12 -8 -14
q-9 -2 -15 6v3q-17 35 -21.5 71.5t9.5 74.5q19 50 53 97q50 69 113 132q23 23 48 45.5t51 42.5q10 8 19.5 15t20.5 12q4 2 7.5 3.5t7.5 3.5q7 2 13 -1q3 -2 5.5 -3.5t4.5 -6.5q1 -2 5.5 -2t6.5 -3q4 -6 1 -12q-4 -7 -7.5 -13.5t-6.5 -13.5q-18 -37 -36.5 -73.5t-35.5 -74.5
q-26 -59 -51 -117.5t-46 -119.5q-2 -4 -3 -7t-1 -7l129 180q4 6 7 9q32 34 62 68t65 65q11 10 21.5 20.5t22.5 19.5q4 3 8 7t9 2q10 -3 17 -15q3 -5 4 -9.5t-3 -9.5q-5 -6 -8 -12.5t-7 -13.5q-1 -2 -2 -3t-1 -3q-3 -22 -13 -40.5t-18 -38.5q-4 -9 -7.5 -17.5t-7.5 -16.5
t-3 -12l-3 -6h3v-3q1 -2 -0.5 -3t-3 -1t-2.5 -0.5t1 -2.5q3 -3 1.5 -6t1.5 -5q5 3 8 7t6 9q45 61 99 114q20 20 39.5 40t42.5 37q4 3 6.5 6.5t4.5 7.5q5 8 10.5 16t12.5 15q14 15 25 -2q2 -2 2.5 -5t1.5 -5q3 -8 8 -13zM478 583v-3v3zM120 322q-1 -2 -1 -6q2 4 2 6h-1z
M115 308q-4 -4 -4 -8q3 2 3 4.5t1 4.5v-1z" />
    <glyph glyph-name="N" unicode="N" horiz-adv-x="623" 
d="M674 631q-5 -14 -10.5 -25t-10.5 -22q-6 -6 -9 -13.5t-6 -13.5v-3q-3 -8 -8 -19l-10 -22v3l-9 -28q-2 -6 -4 -11.5t-2 -11.5q-3 -5 -4 -8.5t-3 -5.5v-4v-3l-5 -4l8 -7q-3 -4 -3 -8q-17 -45 -37 -105t-37 -123q0 -6 -0.5 -13t-2.5 -13q0 -5 -0.5 -12.5t-2.5 -13.5
q0 -5 -2.5 -8.5t-2.5 -8.5q-5 -23 -10.5 -44.5t-8.5 -40.5q-2 -20 -4 -39t1 -38v-37q-3 -6 -1.5 -11t1.5 -11q0 -3 1.5 -6.5t1.5 -8.5q0 -3 -0.5 -7.5t-2.5 -7.5h-14q-17 3 -30.5 19t-13.5 33v4q0 3 3 6q0 9 0.5 20t2.5 22q0 24 3 51.5t8 54.5q4 28 9 55.5t14 54.5
q3 14 5 29.5t5 29.5q0 6 2 11t2 11q8 32 17 65.5t20 66.5q5 9 8.5 19t6.5 18q2 11 5 22t6 23l8 17l2 4l5 3l-7 9l-8 -9q-8 -5 -12 -10t-7 -10l-4 -16q-2 -3 -4 -4t-2 -3q-2 -3 -5.5 -7.5t-6.5 -7.5q-8 -5 -14 -12.5t-12 -12.5l-17 -20h3v-2q0 -1 -3 -1q-15 -16 -26 -32.5
t-23 -33.5l-7 -7q-14 -25 -27 -45t-24 -40q-4 4 -8 4l-4 -4v-7h-4v-4q-2 -3 -2.5 -5t-3.5 -2v-3l-4 -3q-7 -20 -19 -34l-3 -11q-9 -17 -16.5 -35t-16.5 -35v-4q-7 -9 -7 -11h-12l12 -11l3 4v-4q0 -3 -3 -3v-8l-26 25l14 -33h3l4 4q-17 -30 -28 -59q-9 -31 -22.5 -59
t-33.5 -58q-10 -21 -22 -33q-5 -5 -9 -7.5t-9 0.5q-3 2 -6 3t-6 4q-10 0 -13 4q-4 0 -4 7v3q0 8 0.5 16t3.5 14q2 11 3 20.5t3 20.5q3 21 8.5 44t14.5 51q27 100 65 198v4l2 2q2 2 2 5l7 4v4q6 11 9 22t7 22q2 17 9 29.5t12 26.5q0 2 1.5 6.5t1.5 6.5q3 3 6 8t3 11l3 8v3
l4 14l-7 -10l-5 3l5 -3l-5 3l5 -3l-9 -11q-7 0 -7 -7q-2 -4 -4.5 -7t-5.5 -9q-14 -19 -30 -37.5t-33 -31.5v-4q-2 -2 -5 -5.5t-7 -9.5v-2q0 -2 -3 -2v-3q-22 -28 -44 -50t-47 -39q-8 -8 -16.5 -6.5t-16.5 6.5q-9 6 -16.5 12.5t-12.5 17.5q-3 9 -2.5 15t5.5 14v4l4 -4l4 -3
v-4q10 -10 19.5 -10.5t20.5 6.5q2 3 5 6.5t6 8.5q16 20 32.5 41.5t33.5 43.5q3 3 5.5 8l5.5 11q13 16 26 34.5t30 38.5q10 14 19 27.5t21 27.5q13 16 27 34.5t31 35.5l4 7q11 14 23.5 28t24.5 28q5 5 13 10.5t16 10.5q5 2 7 1.5t8 -5.5q3 0 3 -2v-1q3 -2 6 -6.5t5 -4.5
q4 -6 6 -9.5t-1 -5.5q-4 -8 -5 -13t-3 -8q-16 -27 -26 -52q-2 -5 -5 -13t-6 -14q-5 -9 -12 -21v4l-10 -15q-6 -6 -9 -9.5t-3 -9.5q-2 -3 -2 -14l2 -7q-2 -8 -6.5 -18.5t-7.5 -18.5q-3 -9 -7.5 -17t-7.5 -16q-5 -11 -11 -22t-11 -20q-5 -10 -10 -21t-8 -22q-13 -23 -19 -44
l-16 -34t-13 -35q-1 -1 -1 -2q-2 -2 -3 -2v-8q-8 -14 -11 -26t-6 -29h-5v-4l9 -41l2 41q6 5 7.5 11t3.5 11l4 -7l7 7q4 3 5 6t3 6l14 28q8 17 16.5 31.5t13.5 31.5q4 7 6.5 10t7.5 8q3 6 6 9.5t6 9.5q9 19 18.5 35.5t17.5 29.5q9 9 14.5 18t12.5 21q5 8 12 17.5t12 18.5
q29 36 61.5 79.5t71.5 85.5q22 25 46 50t49 49q4 3 7 7.5t9 7.5q1 4 5 6q2 1 3 1t2 -1l4 -6q-1 -1 0 -2q0 -2 4 -2q2 -5 5.5 -10t8.5 -8q3 -6 3.5 -9.5t0.5 -5.5zM343 264l-2 -4l6 8zM370 333l-19 -44l-4 -4l-6 -10h-4l4 -5l-4 -2l4 2v-2l6 2v-2v2v5l4 3l8 3z" />
    <glyph glyph-name="O" unicode="O" horiz-adv-x="458" 
d="M443 492q2 -25 -0.5 -49.5t-6.5 -49.5q-5 -29 -11 -57t-17 -55q-3 -7 -5.5 -14t-6.5 -13q-16 -23 -27 -49t-26 -50q-13 -21 -24.5 -43t-25.5 -42q-3 -3 -3 -8l-3 -3q-5 -9 -12.5 -16t-10.5 -17q-1 -2 -3 -4q-8 -6 -8 -14q0 -5 -6 -5q-2 -10 -8 -16t-11 -13
q-30 -36 -74 -57q-48 -23 -93 0q-10 5 -19.5 10.5t-18.5 11.5q-14 10 -21.5 24.5t-14.5 28.5q-5 9 -8 18.5t-7 18.5q-5 14 -5 28.5t2 28.5q3 33 9 66q2 11 6 21.5t11 20.5q10 14 11 30q0 6 2.5 11.5t4.5 10.5q25 56 58 102q6 9 8.5 18t0.5 21q-5 32 -3.5 64.5t7.5 64.5
q16 84 68 154q21 28 48.5 44t62.5 18q51 5 87 -33q22 -23 41 -48.5t31 -55.5l3 -9q5 -24 12.5 -47.5t9.5 -48.5zM-20 77v1v-1zM374 418q8 38 8.5 76t-3.5 76q-5 46 -22 85q-8 16 -24 24q-19 9 -38 12t-40 -5q-23 -8 -42 -20.5t-34 -32.5q-24 -32 -41 -67.5t-26 -75.5
q-4 -17 -6 -33t-5 -33q-1 -5 -1.5 -10.5t0.5 -12.5q5 4 9 7t9 5q27 15 49 -8q6 -7 10.5 -14.5t9.5 -14.5q4 -7 -2 -12q-9 -6 -15.5 -14.5t-12.5 -17.5q-64 -90 -97 -198q-10 -30 -15.5 -60.5t-6.5 -62.5q0 -21 6 -42q2 -9 4.5 -11t11.5 -1q29 3 55 18q26 16 47 36t41 42
q22 25 40 52.5t37 55.5q6 8 7 13q3 10 7.5 19t9.5 18q26 49 44.5 100t29.5 105z" />
    <glyph glyph-name="P" unicode="P" horiz-adv-x="430" 
d="M456 609q9 -32 6 -64.5t-12 -64.5q-24 -90 -82 -161q-14 -17 -28.5 -33t-33.5 -27q-8 -5 -15.5 -9t-15.5 -6q0 2 1 2.5t0 2.5q-1 1 -6 -1q-9 -5 -17.5 -10t-17.5 -10q-32 -18 -72 -16q-9 0 -15.5 4.5t-12.5 10.5q-5 -4 -6.5 -9t-3.5 -10q-11 -42 -26 -81t-27 -80
q-11 -36 -23.5 -71t-24.5 -70q-5 -17 -9 -33t-8 -33l-3 -12q-2 -9 -5 -10t-11 4q-13 10 -12 24q2 14 3 27t5 26q3 9 3 20q2 2 2 5t2 6v-1q-3 5 -2 10t3 10q4 10 5.5 19.5t3.5 19.5q3 18 8 35.5t10 35.5q14 51 28 101t30 101q5 17 11.5 34.5t13.5 34.5q8 20 14.5 41t14.5 42
q11 28 21.5 55.5t24.5 53.5q7 13 12.5 26t10.5 27q11 28 24.5 55t26.5 54q4 8 7 12q10 11 16 -3q5 -9 7.5 -18.5t7.5 -18.5q2 -5 1 -10.5t-3 -10.5l-24 -60l-54 -138l-9 -24v-3q1 -5 -3 -7t-2 -7q-5 -4 -5.5 -8.5t-2.5 -9.5q-8 -31 -19 -60.5t-22 -59.5q-2 -4 -1 -7
q3 -2 6 -1.5t6 1.5q18 5 34 14t32 20q28 18 51.5 40.5t44.5 48.5q19 23 35.5 47t31.5 49q5 8 10 16.5t9 17.5q7 14 10.5 28t6.5 28q0 1 -0.5 1.5t-0.5 1.5l3 36q2 13 0.5 25t-3.5 24q-1 6 -3.5 10.5t-6.5 9.5q-13 14 -28.5 22t-32.5 13q-38 12 -75 9.5t-75 -11.5
q-45 -11 -81.5 -33.5t-68.5 -54.5q-14 -14 -25.5 -29.5t-14.5 -35.5q-2 -13 -3.5 -25.5t4.5 -25.5q2 -5 -2 -8q-4 -4 -11 -1q-18 8 -24 25q-8 20 -6 41q0 8 1 11q10 32 26 59t42 48q17 14 34.5 26.5t36.5 23.5q90 51 192 42q26 -2 49.5 -10t44.5 -24q18 -15 26 -32
q11 -23 19.5 -46.5t15.5 -47.5zM324 738h3h3h-3q-3 0 -3 1v-1zM279 266l6 6q-4 -4 -7 -5z" />
    <glyph glyph-name="Q" unicode="Q" horiz-adv-x="461" 
d="M445 529q7 -29 7 -57t-5 -57q-4 -28 -9 -55.5t-13 -54.5l-10 -28t-13 -26q-7 -11 -12.5 -22t-10.5 -22q-11 -22 -22.5 -42.5t-23.5 -40.5q-5 -8 -9.5 -16.5t-9.5 -16.5q-2 -6 -2 -9q-6 -3 -8 -11q-3 -2 -3 -5l-3 -3q-9 -9 -16 -19t-14 -21q-2 -2 -2.5 -5.5t-4.5 -5.5
q-1 -4 -5 -10q-8 -9 -1 -19q11 -14 23.5 -25t29.5 -17q20 -7 39.5 -11.5t40.5 -2.5q7 1 13.5 0.5t14.5 -1.5q0 -16 -15 -26q-17 -11 -34 -19t-37 -13q-22 -5 -40 2q-31 10 -55 37q-7 8 -13.5 15.5t-11.5 15.5q-4 5 -6 5.5t-7 -3.5q-11 -8 -21.5 -14.5t-22.5 -11.5
q-41 -18 -81 0q-19 8 -35.5 19.5t-30.5 27.5q-6 14 -13 27t-12 27q-4 9 -6.5 19t-2.5 21q0 29 3.5 56.5t10.5 55.5q2 8 5 15t8 14q9 14 9 27q0 6 2.5 11.5t4.5 10.5q13 30 29 58t34 54q7 9 4 22q-6 35 -4.5 69t8.5 69q16 83 68 153q21 28 48.5 44t62.5 18q52 3 88 -35
t59 -79q8 -14 13 -28.5t7 -30.5q1 -8 4 -14.5t5 -14.5zM-12 44q-1 0 -1 1v-1h1zM393 430q5 35 5.5 70.5t-3.5 70.5q-4 41 -23 81q-2 5 -4.5 9t-7.5 7q-26 16 -53.5 20t-55.5 -10q-35 -18 -61 -45t-46 -60q-3 -5 -5.5 -11t-3.5 -13q-1 -4 0.5 -3t2.5 0q0 -4 -2 -10
q-12 -39 -21 -76q-3 -14 -5 -28.5t-2 -28.5v-7.5t4 -6.5q7 6 14 11t15 8q15 5 24 -3q5 -4 10.5 -7t10.5 -6q6 -4 8 -7q3 -4 0.5 -4.5t-4.5 -1.5l6 -6q6 -5 6 -8.5t-6 -8.5q-8 -6 -14.5 -14t-12.5 -16q-17 -23 -31 -47.5t-27 -50.5q-20 -39 -34 -79.5t-21 -84.5
q-4 -23 -6 -45t3 -45q4 -17 8.5 -20t21.5 1q21 4 38.5 13.5t33.5 23.5q6 5 9 8t4 5.5t-0.5 6.5l-4.5 12q-8 20 -13 39.5t-7 40.5q2 4 2 7.5v7.5q0 12 4 20q3 8 10 9t12 -6q3 -4 5.5 -8.5t1.5 -9.5q-2 -12 6 -21q-3 -3 0 -6q3 -18 17 -32q2 -4 4 -6q4 -5 6 -5.5t7 4.5l3 3
q18 23 34.5 47.5t33.5 49.5q2 4 4 7.5t4 8.5q2 7 5 13l6 12q21 39 37 80t29 84q11 33 15 67h4z" />
    <glyph glyph-name="R" unicode="R" horiz-adv-x="425" 
d="M454 592q5 -29 -3 -56q-7 -25 -17.5 -47.5t-28.5 -42.5q-5 -5 -8.5 -11.5t-8.5 -12.5q-20 -26 -43 -48t-50 -40q-3 -2 -5.5 -3.5t-6.5 0.5q-6 1 -10 -5q-5 0 -13 -6q-15 -11 -29.5 -22t-29.5 -22q-7 -5 -14 -9.5t-15 -9.5q1 5 4.5 7.5t2.5 7.5q-13 -11 -31 -18
q-8 -3 -15 -7t-14 -9q-8 -5 -10.5 -14t-5.5 -17q-1 -2 0.5 -4.5t3.5 -4.5l27 -51q-10 11 -16.5 24.5t-15.5 26.5q-14 -21 1 -39l3 -3l3 -6l3 -3l30 -45q2 -2 3.5 -4.5t4.5 -4.5q3 -7 7 -12.5t9 -10.5q4 -6 8 -7l-3 9l12 -3q-2 9 -9 10q5 3 2.5 6t-1.5 6q4 -2 6 -5l4 -6
q46 -53 105 -90q12 -8 25 -14.5t28 -8.5q10 -2 18.5 -1t16.5 9q4 4 8 0q3 -3 1 -8q-2 -4 -3 -5q-14 -18 -36 -31.5t-54 -8.5q-31 5 -55 20t-46 35q-26 23 -45.5 50.5t-38.5 56.5q-8 11 -14.5 23t-13.5 24q-2 4 -5 4q-2 -2 -2.5 -4.5t-1.5 -5.5q-10 -26 -19 -52l-18 -52
q-9 -27 -18 -53.5t-18 -52.5q-5 -14 -8.5 -14.5t-14.5 10.5q-6 7 -7.5 14t0.5 15q6 35 12.5 69t14.5 68q9 35 19 70t18 70q2 13 5.5 25t8.5 23q8 18 13 37.5t12 38.5q11 31 23 62t26 61q6 12 12.5 23.5t12.5 23.5q8 14 14.5 28.5t13.5 28.5l6 12t7 11q2 2 3 3.5t3 3.5
q12 7 17 -5q4 -8 6 -17t7 -17q2 -3 1 -5.5t-2 -4.5l-12 -42q7 8 9 17.5t7 18.5q-3 -19 -7.5 -37.5t-12.5 -36.5l-75 -186q-2 -6 -4.5 -12t-5.5 -14q5 1 8.5 3t6.5 4q16 13 32 24.5t33 23.5q14 11 27 23t27 24q38 33 73 67q27 26 48 56.5t37 64.5q8 17 11.5 34.5t5.5 36.5
q1 25 -15 45q-18 22 -41.5 33.5t-51.5 14.5q-45 4 -90 -11t-82.5 -39t-69.5 -59q-17 -19 -30.5 -40t-21.5 -45q-4 -12 -12 -1q-5 6 -7 13t-2 15q-1 41 24 78l20 28t22 26q30 32 72 55q26 14 51.5 25.5t54.5 16.5q21 4 42 5t42 -3q66 -12 97 -75q12 -25 15 -53l4 -28l4 -28z
M163 724q2 1 3.5 1.5t2.5 3.5q-3 -1 -5 -5h-1zM177 731q2 1 4 1t2 4q-2 -1 -4 -1.5t-2 -3.5zM191 738q5 -1 8 4q-6 0 -8 -3v-1zM216 746h-1l1 -1v1zM233 751q2 -2 4 -1l4 2q-2 0 -4.5 0.5t-4.5 -1.5h1zM293 756q3 1 5.5 5t0.5 7q-2 5 -8 1h-6q-6 4 -13 -3l-3 -3
q-4 -2 -7.5 -4t-6.5 -1q-8 1 -15 -7l48 3q4 0 6 1zM311 771h-1v-1zM14 -17q0 -4 -1 -6q0 2 2 6h-1zM12 -24q0 -1 -2 -3l3 3h-1zM179 28q2 -8 13 -15q-2 5 -5 8l-6 6zM283 -22q1 2 -2 2h-3h3zM188 58l3 -3q-1 -1 -1 2zM177 54l-3 3q0 -3 2 -2zM176 30q-2 6 -7 9q1 -6 8 -9h-1
zM167 41q0 3 -2 2l3 -3zM158 53q0 -3 2 -2l-3 3zM147 64q-1 1 -1 2t-2 -1l2 -1h3v3zM157 401q-4 -6 -7.5 -12t-6.5 -12l-10 -24t-8 -25q11 17 17 36t14 37h1zM118 310q7 9 7 17q-6 -6 -8 -18zM186 268q-1 -1 -4 -1h3z" />
    <glyph glyph-name="S" unicode="S" horiz-adv-x="369" 
d="M442 634q3 -9 -4 -11q-33 -13 -56 -36.5t-43 -51.5q-18 -26 -34.5 -53.5t-29.5 -56.5q-9 -22 -15 -43q-4 -16 2 -33q-3 -4 -6 -2q-17 10 -27 25t-7 38q2 14 6 28t10 27l34 72t39 70q4 6 7.5 12t10.5 10q1 -2 3 0q8 5 13 12.5t12 15.5q-26 1 -48.5 -7t-43.5 -19q3 0 1 -2
q-1 -1 -6 -4q-61 -35 -107 -84t-80 -111q-21 -37 -33 -80q-2 -5 -3.5 -9t-4.5 -8t-3.5 -8t-1.5 -9q-4 -23 1 -44t14 -41t23 -35.5t29 -30.5t32.5 -27t34.5 -24q17 -11 33 -22.5t31 -25.5q5 -5 11 -8.5t12 -7.5q41 -29 66 -70q4 -5 5 -11q4 -17 9 -32.5t8 -32.5q4 -23 -8 -45
q-12 -21 -30 -36q-65 -53 -148 -56q-97 -5 -162 65q-14 15 -11 34q3 21 10 36q8 19 19 36t25 31q8 8 15.5 18t16.5 18q8 7 16 12.5t19 7.5q-4 -8 -9 -14l-10 -12q-7 -10 -13.5 -19t-13.5 -18q-2 -2 -3.5 -4.5t-1.5 -5.5q-2 -1 -3.5 -3t-4.5 -2q0 5 4 9t4 10q-4 -3 -10 -9h-3
q-4 -5 -7 -10l-6 -10q-9 -15 -16 -30.5t-7 -33.5q0 -2 -0.5 -5t2.5 -4q4 -1 5 2l2 6q5 16 11.5 30.5t13.5 28.5h3l6 3q-14 -29 -20 -57q-3 -17 -2 -30q2 -14 14 -17q8 -2 16 -3t17 2q10 3 20.5 4.5t21.5 3.5q84 16 137 86q-1 -6 -4 -10.5t-6 -9.5q3 1 7 5q15 16 23 41
q4 12 -3 24q-5 7 -8 14.5t-8 14.5q-14 21 -34 32q-23 14 -45.5 26.5t-44.5 27.5q-41 28 -74.5 62.5t-58.5 78.5q-15 26 -20 54.5t-3 58.5q1 12 2.5 24t2.5 24q2 16 6.5 30.5t9.5 28.5q8 25 21 46.5t27 43.5q9 14 21 25.5t23 23.5q17 19 36.5 34.5t39.5 31.5q32 26 66.5 44
t74.5 27q13 3 27 3q20 -1 33 -10.5t22 -26.5q5 -8 7 -9.5t11 0.5q10 1 21 0q16 -3 20 -17q2 -5 3.5 -10.5t3.5 -10.5zM120 -196h-1v-1zM149 -191q3 1 6.5 1t5.5 4q-9 0 -14 -5h2zM172 -187q15 -1 33 9t34.5 25t29.5 33.5t18 34.5q-8 -8 -14 -15.5t-12 -14.5q-8 -10 -17 -19
t-17 -18q-3 3 -6 1l-3 -3v-3q-1 -2 -5 -2q-3 -6 -9 -9l-27 -12q-2 -1 -3.5 -1t-1.5 -3v-3zM31 361q0 -1 -1 -1.5t1 -1.5v3zM35 371q5 7 5 14q-4 -4 -6 -14h1zM42 387q8 11 10 27q-5 -6 -7 -13l-4 -14h1zM64 439q-2 -3 -4 -5.5t-1 -7.5q3 3 3.5 6.5t0.5 6.5h1z" />
    <glyph glyph-name="T" unicode="T" horiz-adv-x="270" 
d="M594 658q0 -4 1 -8t-2 -6t-6 0.5t-6 4.5q-5 2 -9.5 3t-9.5 2q-21 1 -42 0q-44 -2 -86.5 -10t-85.5 -17l-42 -9q-7 -2 -13 -3.5t-11 -6.5q-6 4 -8 -3q-4 -11 -8.5 -21.5t-4.5 -22.5q-4 -2 -4 -4h3q-3 -14 -8.5 -27.5t-10.5 -27.5q-12 -32 -23.5 -64t-25.5 -64
q-1 -2 -1 -4.5t-1 -4.5h3.5t0.5 -3q-2 -6 -3.5 -12t-3.5 -12q-18 -54 -36.5 -108t-36.5 -108q-5 -13 -8 -26t-8 -26q-9 -24 -15 -48.5t-12 -49.5q-7 -28 -14 -55.5t-13 -56.5q-1 -5 -2 -9.5t-3 -9.5q-4 -11 -13 -11t-16 10q-5 9 -5 22q1 36 6.5 71.5t10.5 70.5
q9 72 14 143.5t3 143.5q-2 38 -4.5 75t-10.5 74q-5 20 -10 39.5t-10 39.5v6q-3 22 -9 42t-17 39q-12 21 -7 46q4 21 25 31q2 1 4 1.5t4 -1.5q5 -5 -1 -10q-6 -6 -8 -10q-5 -11 -7 -24q-1 -10 8 -13q15 -5 33 -2q17 3 32.5 8t31.5 10q32 11 64.5 21t65.5 18q11 2 22.5 4.5
t22.5 7.5q8 3 16.5 3t16.5 2q98 15 202 10q16 -1 31 -3.5t29 -7.5q11 -4 19 -11t13 -18q2 -6 2 -9zM205 629q-6 0 -9 -2q6 0 9 2zM194 626q-8 0 -11 -1q7 -2 11 1zM183 625l-6 -3q3 -1 5 2zM167 621h1h-1zM156 619h-1h1zM146 616h3h-3zM138 614v-1v1zM119 587h-3h-3h3h3
q2 0 0 2v-2zM109 605h3.5t3.5 2q-3 -1 -7 -1v-1zM115 585q-2 0 -3 -1q-1 0 -2 -1q1 -2 3 0q1 1 1 3zM101 601q6 0 8 3l-9 -3h1zM102 580h-2q-3 0 -3 -3l2 -1q2 0 2 3zM101 602q-3 -1 -6 -1t-5 -2h6t5 3zM87 600q-2 0 -2 -1h3zM55 596h1v1zM25 594h18h-18zM55 -14v3v-3z
M173 321q3 2 3.5 4.5t1.5 4.5q-3 -3 -3 -8zM183 347q2 2 2 3q-2 -2 -2 -4v1zM199 577q2 3 3 6t-2 7q-5 -2 -10.5 -2.5t-10.5 -2.5q-46 -13 -89 -17q-15 -2 -30 -3.5t-31 2.5q-9 3 -6 -7q5 -15 7.5 -30.5t6.5 -31.5q11 -45 14 -90.5t10 -90.5q4 -23 5 -46.5t3 -46.5
q4 16 7.5 31.5t8.5 30.5q10 32 19 63.5t23 61.5q5 10 9 19.5t9 20.5l54 129v-3zM208 629h7.5t5.5 3q-3 -2 -6.5 -2t-6.5 -2v1zM303 650q58 9 115 17t115 6q-23 3 -58 1t-69.5 -5.5t-63.5 -9t-39 -10.5v1z" />
    <glyph glyph-name="U" unicode="U" horiz-adv-x="547" 
d="M570 621q8 -6 3 -12q-13 -17 -21 -36.5t-16 -39.5q-16 -40 -27.5 -80.5t-22.5 -82.5q-14 -54 -25.5 -107t-23.5 -107q-7 -30 -13.5 -60t-8.5 -61q-1 -11 -4 -21.5t-8 -21.5q-2 10 0.5 19.5t0.5 20.5q-5 -17 -7.5 -33t-4.5 -32q-3 -23 -5.5 -45.5t-7.5 -45.5
q-2 -11 -1.5 -22.5t0.5 -22.5q0 -15 -2 -29.5t-1 -29.5q0 -2 -1 -5.5t6 -0.5q1 1 1 -1v-4v-33q0 -11 0.5 -22.5t0.5 -22.5q0 -6 -1 -12t-8 -8q-6 -2 -10 2.5t-7 9.5q-8 11 -9.5 23t-2.5 24t-1 24t-1 24q-2 27 -1.5 54t4.5 54l4 36l4 36q2 11 1 21t0 21q4 45 7 88.5t11 87.5
q8 45 15.5 89.5t20.5 89.5q5 16 8 32t5 33l-8 -12t-7 -12q-14 -26 -28 -52.5t-25 -53.5q-1 -2 -2 -3t-2 -3q-1 -8 -9 -14q-2 -4 -2 -8.5t-4 -7.5q-11 -13 -11 -27q1 -6 -1 -11.5t-4 -10.5q-8 -23 -16.5 -44.5t-16.5 -44.5q-6 -17 -14.5 -33t-16.5 -33l-63 -141
q-10 -20 -23 -38t-26 -37q-2 -2 -4.5 -4t-4.5 -4q-2 0 -2 -1h2v-1q-32 3 -53 24q-5 5 -6 10.5t-2 10.5q-3 18 -3 36v36q0 21 3 42q1 7 1.5 13.5t-0.5 13.5q-1 17 2.5 33.5t6.5 33.5l21 111q0 2 1 3q8 14 11.5 29t9.5 29q2 9 4 18.5t7 17.5q2 11 5 22t5 22q6 26 14 50.5
t14 50.5q2 5 2.5 10.5t2.5 10.5q2 10 4 15q14 32 22 66t21 66q1 2 1.5 4.5t-1.5 6.5q-19 -28 -40 -53t-41 -52q-2 -4 -4 -7.5t-2 -8.5l6 3q-4 -11 -9.5 -20t-10.5 -19q-22 -39 -42 -78.5t-36 -81.5q-11 -28 -18.5 -56.5t-10.5 -57.5q-3 -21 2 -44q-1 -1 -2 -1t-1 -1
q-13 5 -25.5 9.5t-19.5 17.5q-15 26 -6 52q3 9 3 18.5t1 18.5q2 17 5 33t9 32q9 25 20 48.5t25 46.5q7 10 11 20q17 35 38.5 65.5t44.5 60.5q20 26 40 50.5t40 49.5q10 12 21 22.5t23 20.5q4 4 7 5q14 8 22 -6q3 -6 6 -11.5t8 -10.5q3 -3 3.5 -7t0.5 -8q0 -13 -2.5 -25.5
t-5.5 -24.5q-10 -42 -21 -82.5t-23 -81.5q-19 -63 -35.5 -126.5t-32.5 -127.5q-16 -63 -27.5 -126.5t-20.5 -128.5l-3 -33q0 -1 2 -3q4 1 5 3.5t3 4.5q14 24 25.5 49t24.5 50q28 52 50.5 106t42.5 109q6 16 13 31t13 31q4 10 10.5 18t9.5 18q4 12 9.5 23.5t11.5 22.5
q17 34 37 66.5t40 64.5q16 25 32 49.5t33 48.5q6 8 10.5 17.5t9.5 18.5l8 12t9 12q6 8 10 10q9 5 15 4t7 -11q1 -9 6.5 -15t12.5 -11zM11 201h-1v-1zM26 244q2 0 0 2q-1 1 -3 -1q2 -2 3 -2v1zM31 271h-1h1zM135 467q0 -2 -1 -3l3 3h-2zM137 468q1 4 4 7q0 -5 -4 -6v-1z
M147 281l-3 -9q0 -4 3 -5q2 -1 4 2l3 9q7 22 12 44t11 45q-4 -3 -6 -11q-6 -19 -12.5 -37.5t-10.5 -38.5zM103 130l1 2q0 2 -1 3q-2 0 -2 -1q0 -2 1 -2zM106 144q5 6 1 11q-2 -3 -1.5 -5.5t0.5 -5.5zM111 162q2 2 1 3q0 1 -0.5 1t-0.5 -1v-3zM116 180v1q-1 0 -1 -1h1z
M364 -315q-1 10 0.5 19.5t-1.5 19.5q-1 -17 2 -39h-1z" />
    <glyph glyph-name="V" unicode="V" horiz-adv-x="516" 
d="M548 696q5 -5 5 -11.5t-1 -12.5q-2 -14 -6 -27.5t-9 -27.5q-20 -54 -41 -108l-42 -108q-16 -41 -31 -81.5t-33 -80.5q-1 -1 -3 -8q-3 -5 -5.5 -9.5t-2.5 -9.5q2 2 3 5t4 5q0 -3 -2 -9l-39 -114q-2 -4 -2 -5q-1 -1 -2 0.5t-1.5 3t-1.5 1.5t-3 -4q-5 -11 -7.5 -22.5
t-7.5 -22.5q-2 -5 -2 -10.5t-2 -10.5q-2 -4 -5 -7t4 -8q2 -1 1 -3l-2 -4q-4 -12 -7.5 -24t-8.5 -24q-17 -45 -34.5 -89.5t-38.5 -88.5q-7 -15 -15 -26q-9 -12 -22 -8q-6 2 -12 3.5t-11 5.5q-6 4 -10 5q-16 5 -21 25q-4 14 -5 27t-1 27q-1 49 2.5 97.5t9.5 96.5q3 26 5 51
t3 51q1 19 4 37t5 37q2 18 3.5 36t3.5 36q1 7 2.5 13.5t2.5 13.5q0 6 -2 9q0 18 3 36q3 20 3.5 39t4.5 38q5 22 6.5 44t7.5 44q7 24 9.5 48.5t7.5 48.5q2 6 0 10q-4 0 -5 -2.5t-3 -4.5q-9 -11 -18 -22.5t-17 -22.5q-4 -5 -8.5 -8.5t-6.5 -9.5v-3q0 -5 -6 -13
q-29 -44 -51.5 -90.5t-44.5 -94.5q-2 -3 -3 -6.5t-5 -5.5q2 11 6 21t8 21q3 8 6.5 16t6.5 16q-2 -1 -4.5 -1.5t-4.5 -3.5q-5 -5 -8 -12t-10 -13q1 6 2.5 10t1.5 9q-7 -11 -12 -23l-10 -24q-10 -17 -10 -33q0 -9 -6 -14q-3 -3 0 -8v-15q-2 -3 -3 -6t1 -8q4 -10 -7 -8
q-8 1 -15 3t-12 8q-3 3 -3 8q0 6 0.5 12t2.5 11q7 17 12 34l10 34t13 33l16 32q20 38 44 73t47 70q9 14 20 25t21 24q11 14 21.5 27t23.5 24q5 4 9.5 7.5t9.5 5.5q17 8 28 -11q13 -20 13 -41.5t-3 -43.5q-7 -50 -11.5 -99.5t-9.5 -100.5q-1 -10 -1.5 -19.5t-2.5 -19.5
q-5 -28 -6 -55.5t-5 -55.5q-5 -40 -6.5 -80t-6.5 -80q-5 -43 -7 -85.5t-4 -85.5q-1 -18 -2.5 -36t-6.5 -35v-6q18 35 29.5 70.5t24.5 70.5q6 16 11.5 31.5t12.5 30.5q5 12 8 24.5t7 25.5q37 114 84 225q8 20 16 40.5t16 40.5q7 17 15.5 32.5t15.5 32.5q4 9 7.5 17.5
t7.5 16.5q7 17 20 33q5 6 8 13.5t6 15.5q7 19 13 38t15 38q2 4 2.5 8t2.5 9l15 27q3 5 6.5 9.5t10.5 6.5q2 -2 3 0zM51 408q3 3 0 3l-1 -2v-5l3 3zM100 481v-3q0 2 1 3h-1zM99 475q-6 -4 -8 -14q6 5 8 15v-1zM70 415q0 3 -1 4l-1 -1q0 -2 2 -4v1zM90 459v-1q1 0 1 2
q-2 0 -2 -1h1zM214 243v-1q0 2 2 0zM213 232q-3 -20 -2 -36q4 8 3.5 17t-0.5 18zM210 195q-3 -11 -1 -24q0 6 1.5 12t-0.5 12zM188 115v-3h1v3h-1zM187 95q-4 -3 -1 -8q1 4 1 8zM186 78h-3v-18q2 3 2 9v9h1zM173 -160q-1 8 1.5 15t-2.5 15q-4 -29 -1 -63l2 16t0 16v1z
M181 -118q0 1 -1 2v-3zM183 -125q-2 -2 0 -3v3zM186 -120q3 0 1 2q-1 0 -3 -2q-1 0 -1 -2h3v2zM188 -109q4 0 4.5 2t1.5 5l6 39q3 20 3.5 39t1.5 39l3 69q1 19 2.5 37.5t-0.5 37.5q-1 -11 -3 -22.5t-4 -22.5l-3 -6l-9 -42q-2 -5 1 -7q-2 -4 -4 -7q-2 4 -4 10
q-3 -10 -3.5 -20t-1.5 -20q0 -8 -0.5 -15t2.5 -14q-6 -4 -1 -6v-12q0 -5 -0.5 -9t4.5 -7q-2 -4 -1.5 -7.5t0.5 -7.5q0 -1 -3 -1l-6 3q0 3 -1 4q-2 2 -2 -1v-9q0 -6 1 -9q1 -4 2.5 0.5t2.5 -0.5l-1 -27q-2 -5 -2 -9v-9q0 -2 4 -2q1 2 0.5 5.5t4.5 3.5zM280 -13q0 1 1 1.5
t-1 1.5v-3zM280 -13q-1 -1 -3 -8q3 3 3 7v1zM280 -38v-1v1zM271 -32q1 1 2 1t-1 2v-3h-1zM268 -54l-3 6l-3 -6h6zM257 -71q-3 -3 -3 -9q3 3 3 9zM229 -206q0 -2 2 0h-2zM240 -162q1 0 1 2l3 3h-3l-9 6q-2 -5 -4.5 -10.5t-4.5 -10.5q-4 -10 -8.5 -19.5t-6.5 -20.5q3 2 4 5
t3 6q5 11 9 21.5t14 18.5zM248 -148q17 28 28 65l24 81q1 2 2 5t-1 7q-1 -2 -3 -4q-2 -5 -2.5 -10t-5.5 -9l-3 -6q-5 0 -5.5 -3.5t-1.5 -6.5q0 -2 0.5 -4.5t-1.5 -4.5q-2 -4 -5.5 -7t-1.5 -8h-3q-3 -6 -3 -13q-9 -12 -11 -30q-2 -1 -2.5 -2t-2.5 -1q-2 2 0.5 4.5t0.5 4.5
q-3 -3 -4 -6.5t-3 -7.5q-1 -3 3 -5v-9q-4 -5 -5 -10.5t-3 -11.5q-4 -4 -6 -11q5 0 8 5q4 0 5 -3zM289 -60q3 3 3 7q-1 -2 -1 -6zM299 -45l-3 -6q-2 -5 -6 -3q1 5 2 8.5t3 7.5l3 9q7 -6 0 -17zM298 -29l6 15q2 10 5 14q1 5 8 5q-2 -8 -4.5 -14.5t-4.5 -13.5q-3 -7 -10 -7v1z
M318 4v6q3 -3 0 -6zM387 212q-1 -3 -1.5 -6t-4.5 -5q-1 5 1 6.5t5 3.5v1z" />
    <glyph glyph-name="W" unicode="W" horiz-adv-x="790" 
d="M698 561q15 -57 19 -113.5t0 -114.5q-3 -43 -8 -85t-11 -84q-7 -48 -20 -93t-30 -90q-32 -85 -85 -156q-9 -13 -19 -24.5t-23 -20.5q-25 -18 -55 -9q-58 17 -85 66q-12 22 -18 45t-11 47q-3 17 -5 33t0 33q2 18 1 36t1 36q1 5 0 10t-1 10q-1 49 4.5 96.5t13.5 95.5
q3 20 6 39.5t11 38.5q1 3 0 6q-8 -14 -17.5 -27t-16.5 -28q-2 -3 -3.5 -6t-1.5 -7q-3 -3 -3 -8q3 -4 2 -7t-3 -6q-8 -21 -17 -41.5t-17 -41.5q-16 -38 -28.5 -77.5t-26.5 -78.5q-8 -25 -15 -50t-17 -49q-8 -19 -14.5 -38t-15.5 -37q-13 -26 -28 -45q-11 -14 -29 -9
q-12 3 -22 9.5t-20 13.5q-8 5 -10 15q-1 3 -2.5 5t-3.5 4q3 3 2 7q-2 9 -3.5 18t-5.5 17q-4 9 -4 18.5t-1 19.5q-3 40 1.5 79t9.5 78q4 30 9.5 59.5t11.5 58.5q4 19 8.5 37.5t14.5 35.5q7 12 7 24q-3 4 -1 12q2 6 4.5 12.5t4.5 12.5q12 32 24.5 62.5t23.5 62.5q6 18 14.5 35
t16.5 34q2 5 4.5 9.5t3.5 9.5q-10 -8 -17 -17.5t-15 -18.5q-36 -44 -68.5 -89.5t-58.5 -96.5q-32 -62 -45 -129q-3 -11 1 -27q3 -15 -10 -9q-8 3 -13.5 8t-10.5 11q-19 23 -16 51q5 58 22.5 111t49.5 102q13 20 28 37.5t30 35.5q26 32 55.5 59.5t60.5 53.5q9 8 18 15t19 13
q6 4 12.5 7t14.5 2q3 0 5.5 1t5.5 3q9 5 15 -4l15 -21q3 -4 1 -14q-2 -9 -4.5 -17.5t-5.5 -16.5q-5 -14 -11 -28t-11 -28q-8 -25 -18.5 -49t-18.5 -50q-4 -12 -7.5 -24.5t-10.5 -23.5q-5 1 -7 -6q-9 -25 -17 -49.5t-14 -50.5l6 6h3q-23 -106 -43 -212t-27 -216q5 2 6.5 5
t3.5 6q15 34 28 73q9 29 19 57t22 56q4 8 6.5 17t5.5 17q6 16 15 29q2 4 4 7.5t4 7.5q18 53 41.5 102.5t49.5 99.5q15 29 31 56.5t33 56.5q6 11 11.5 21.5t11.5 21.5q9 17 15 15.5t15 -12.5q5 -6 8 -12.5t8 -11.5q6 -6 0 -11q-8 -6 -9.5 -14.5t-2.5 -16.5q-2 -14 -4.5 -27
t-5.5 -27q-9 -38 -14 -77t-10 -77q-4 -32 -7 -63t-5 -63q-2 -45 -2.5 -88.5t2.5 -87.5q2 -31 8.5 -60.5t20.5 -57.5q7 -14 11.5 -15.5t17.5 6.5q15 9 26.5 22t22.5 27q17 23 28.5 48.5t25.5 50.5l6 9q7 6 10.5 14t6.5 16q10 25 18 50t16 51q2 8 5 12q1 -3 0.5 -6.5t4.5 -5.5
q7 17 10 34l6 34q-5 -7 -7 -14t-4 -15t-4 -15t-7 -14q1 12 4.5 23.5t6.5 22.5t4.5 21t3.5 21q3 24 5.5 48.5t8.5 48.5q2 6 2 9q2 42 7.5 83.5t4.5 83.5q-1 27 -3.5 54t-10.5 53q-4 14 -11 26.5t-20 21.5q-2 2 -4 3t0 4q1 2 7 2q25 0 38 -21q16 -26 23 -52zM419 337v-3
q-2 -5 -1.5 -9t2.5 -10q13 42 20.5 82.5t18.5 80.5h-3l-15 -36q-4 -6 -5 -13t-3 -14q-4 -9 -4.5 -19t-5.5 -18q0 -10 -1 -15q-1 -7 -2.5 -13.5t-1.5 -14.5zM420 309q-3 0 -3 -2q0 -3 1 -3q2 0 2 3q0 1 -1 2h1zM413 333h1v1zM105 -22q4 13 4.5 19.5t-1.5 13.5q-4 -16 -3 -32
v-1zM111 29q-2 -4 0 -6v6zM112 30v3v-3zM113 47v2v3q0 -1 -0.5 -1.5t-0.5 -1.5q0 -3 2 -3zM115 61h-1q0 -1 1 -1v1zM122 154h1v1zM120 139l1 1l-1 1v-2zM121 89q4 9 3 21q-5 -10 -3 -22v1zM129 126h-1v-1zM130 133h1h-1zM133 143h-1v-1zM140 102q0 2 -1 2q0 -2 1 -2z
M198 294l-1 1v3v-3zM215 396q-3 -3 -3 -6zM216 398q0 2 -1 3v-3h1zM160 289q-3 -5 -3 -9q2 3 2 9h1zM158 280q-2 -2 -1 -4h1v3v1zM155 241q0 -2 2 0h-2zM151 228h1v1zM148 260q-1 1 -1 -2v-3h2q2 2 1 4zM145 255q0 -3 1 -3v3h-1zM141 194h1v1zM140 178q0 1 -1 2q-2 -2 -2 -3
t1 -2q2 0 2 3zM136 216v-1l1 1h-1zM137 136q2 -7 -3 -8q6 -6 6 -10q2 2 2 4q5 21 10.5 42.5t10.5 42.5q9 35 16 69.5t18 69.5q7 22 12 45q-3 -3 -5 -10q-7 -17 -11.5 -35t-15.5 -33q-1 -2 -0.5 -3.5t-0.5 -3.5q-3 -11 -5 -21.5t-9 -19.5q2 -4 1 -7.5t-2 -7.5
q-6 -29 -13.5 -57.5t-9.5 -58.5zM134 164v-3v3zM131 114q0 -1 1 -1v1h-1zM177 -78q-4 -3 -6 -11q3 3 5 11h1zM180 -78q3 5 1 10q-3 -5 -3 -9zM185 -68l6 6q0 4 -2 5q-1 0 -3 -2q-3 -3 -1 -6v-3zM220 50q0 3 -1 3v-3h3h-2zM201 6q-1 -2 -1 -6q2 4 2 6h-1zM200 -2q-3 -3 -1 -6
v6h1zM244 82q1 2 2 5t-1 8q-5 -12 -10 -22.5t-8 -21.5q-2 1 -3 0h-3v-6q4 -6 0 -8q-5 -3 -5 -9l-3 -6q-3 -3 -3 -8q5 -7 -3 -11q-1 -5 -9 -11l3 -6l-3 -3q-2 -3 -2 -10q3 0 4.5 2.5t4.5 2.5q4 -3 6 3t5 12t5 12l12 38t11 39zM277 136h-1v-1zM300 192q-12 -9 -12 -29
q6 8 8 15zM392 194h-1q-2 -2 0 -2zM394 209v1q-1 1 -1 0zM397 220q0 1 0.5 1.5t0.5 1.5t-2 1q0 -2 1 -2v-2zM406 277h-1v-1zM411 305h-1v-1zM640 89q2 -2 2 2q0 2 -3 4q-3 0 -3 -2q0 -3 2 -5zM661 171q2 4 0 7v-7z" />
    <glyph glyph-name="X" unicode="X" horiz-adv-x="649" 
d="M681 592q6 -9 3 -23q-4 -17 -14 -37q-16 -32 -35.5 -60.5t-41.5 -56.5q-42 -53 -83.5 -105t-85.5 -103q-14 -17 -28 -33.5t-28 -33.5q-12 -14 -5 -31q9 -23 17.5 -46.5t16.5 -46.5q34 -95 84 -183q2 -5 4 -9t2 -9q0 -13 -12 -11q-23 2 -37 20q-29 38 -50 80.5t-42 85.5
q-8 17 -15.5 34t-12.5 35v3q-3 8 -5.5 8t-7.5 -6q-38 -44 -78 -85.5t-82 -82.5q-24 -23 -48.5 -45.5t-49.5 -45.5q-17 -15 -36 -27q-8 -5 -11.5 -5t-11.5 5t-11 13l-6 16q-2 4 1 6.5t5 4.5q17 20 34 39.5t35 39.5q23 25 44 50.5t42 51.5q20 24 39 47.5t42 44.5q4 4 7 8t5 9
q7 15 17 27t21 24t7 26q-5 20 -11 39t-14 38q-5 13 -9 26t-8 27q-7 28 -13.5 55.5t-11.5 56.5q-1 4 -1.5 8t4.5 6q-5 27 -13 49q-7 19 -8 38.5t2 39.5q1 4 3 6.5t4 5.5q5 7 10 2t12 -6.5t12 -7.5q2 -2 5 -2h5q9 0 11 -10v-6l6 -54v-8t-2 -9q-6 13 -6.5 26t-5.5 25
q-2 -51 10 -97q2 -16 5.5 -31.5t5.5 -31.5q2 -13 5.5 -25t4.5 -25q0 -4 3.5 -7t-1.5 -8v-1q0 -1 1 -1q8 -4 7.5 -10.5t1.5 -12.5t3.5 -11.5t4.5 -10.5q4 -8 0 -15v-3q2 -6 5 -8q3 -3 1 -6l3 -6v-3q4 -5 5 -2.5t3 5.5q6 2 10 6.5t9 9.5q23 26 44.5 52t43.5 52l132 156
q8 9 14.5 18t13.5 18q4 5 7 13q6 17 14 32l16 30q4 7 9 13l10 12q5 7 12 8q8 2 11 -5q4 -6 5 -9q2 -10 6.5 -18.5t9.5 -16.5zM212 433q-1 0 -1 3v3v-3v-3h1zM213 416v3v-3zM215 404v1v-1zM33 -154q7 4 12 12q-7 -1 -11 -12h-1zM45 -141q6 4 7 8q-6 -2 -6 -8h-1zM57 -129
q8 5 9 11q-8 -2 -9 -10v-1zM68 -114q7 2 9 7q-4 -2 -8 -8zM100 -88q5 3 9.5 6t4.5 10q-7 3 -12 -4l-6 -8t-6 -9q3 0 5.5 1.5t4.5 3.5zM140 -56q13 16 23 33.5t23 33.5q2 2 -1 3q-6 -5 -10.5 -10.5t-9.5 -10.5q-13 -14 -25 -28t-23 -28q-5 -5 -3 -10q5 -1 10 4l7.5 7.5
t6.5 7.5zM283 277q4 -4 5 0h-6h1zM380 33l3 -3q-1 1 -1 3h-2zM381 34l-3 9q0 -5 3 -8v-1zM557 423q5 3 5 7q-2 -2 -4 -8zM564 435q6 2 6 6q-3 -1 -3.5 -3t-1.5 -4z" />
    <glyph glyph-name="Y" unicode="Y" horiz-adv-x="451" 
d="M449 574q5 -13 -4 -22q-1 -1 -1 -2t-1 -3q-5 -4 -7 -9t-6 -10q-2 -4 -3.5 -8t-3.5 -9q7 7 9.5 14t9.5 12q-1 -4 -5 -12q-25 -46 -45 -93.5t-39 -96.5q-23 -59 -45 -117.5t-42 -118.5q-34 -100 -63 -201t-55 -204q-6 -23 -12.5 -46.5t-11.5 -46.5q-2 -11 -4 -21t0 -21v-3
q0 -5 -0.5 -9.5t-5.5 -6.5t-8 1l-6 6q-9 11 -11.5 23t-2.5 25q1 29 5.5 57.5t9.5 57.5q5 26 12.5 51t14.5 51q11 43 22 85t22 85q8 32 16.5 63.5t14.5 63.5q3 17 11 35q7 15 8 28q1 10 4 19.5t6 19.5q12 37 24.5 73.5t26.5 72.5q1 2 2 4.5t1 6.5q-20 -21 -25 -41h3
q-2 -8 -7 -12q-2 -7 -6 -11l-9 -15q-4 -9 -9.5 -17.5t-10.5 -17.5q-31 -53 -58 -107t-53 -109q-12 -27 -23.5 -54t-22.5 -54q-5 -10 -10 -19t-13 -17q-7 -6 -11 -6.5t-12 4.5q-9 6 -17.5 12t-16.5 14q-10 10 -13 23q-3 17 -4.5 35t0.5 36q4 48 12 96q2 14 8 27.5t9 27.5
q2 6 2 10q2 27 9.5 52.5t17.5 50.5q3 9 5.5 18t4.5 18q7 28 17.5 54t21.5 52q10 26 19.5 51t20.5 50q2 5 3 9t3 9q9 30 23.5 57.5t31.5 53.5q4 7 9 7t9 -7q5 -8 9.5 -16.5t9.5 -16.5q2 -5 1.5 -9t-2.5 -8l-24 -54q-14 -32 -26 -65t-23 -66l-36 -111l-36 -117q-2 -6 -3 -11
q5 4 5.5 9t4.5 8q-2 -17 -6.5 -32.5t-8.5 -31.5q-6 -25 -12 -49t-9 -49v-9q3 0 3.5 1.5t1.5 3.5q8 21 16.5 41t20.5 38q8 11 12.5 23.5t9.5 24.5q14 32 30.5 60.5t35.5 57.5l8 12t8 13q17 29 37 56l40 54q27 37 54.5 73t55.5 72q9 12 18.5 24t17.5 26q3 6 8 11q12 10 17 -4
q4 -9 7 -18t7 -18zM72 261v-3v3zM68 249h1v1zM59 22q2 -2 2 0v1q-2 2 -2 0v-1zM42 104v3v-3zM42 108q6 6 6 16q-3 -5 -3.5 -9t-1.5 -8zM42 151q3 8 4.5 16t3.5 16q-9 -14 -7 -32h-1zM53 149q-1 -1 -3 -8q2 2 2 8h1zM49 136v3q0 -2 -1 -3h1zM57 173v3q0 -1 -2 -3h2zM62 167
v-3v3zM60 191v-3v3zM57 154v-3v3zM55 220h1v1zM54 171q0 -1 -1 -1.5t1 -1.5v3zM50 150v3v-3zM51 200v-3v-3v3q0 3 1 3h-1zM50 194v-9q0 6 1 9h-1zM6 -23q-2 -2 0 -5v7v-2zM6 -22v6q1 -3 0 -6zM13 11q5 21 9 42l8 42q2 13 5 25t5 25q-8 -10 -11 -21t-7 -22
q-8 -22 -10.5 -44.5t-5.5 -45.5q-1 -7 -1.5 -14t1.5 -14q2 7 4 13.5t4 13.5h-1zM47 -46q10 21 17.5 42.5t16.5 42.5q2 4 4 12q-3 -2 -5 -8q-18 -30 -30 -63q-2 -6 -5 -8l-3 -12q-4 -5 -5.5 -11.5t-7.5 -11.5q-2 -2 -1 -4t3 -4q4 -3 6 2q7 10 11 20zM157 161q6 5 6 14
q-3 -4 -4.5 -6.5t-1.5 -7.5zM168 180q2 2 0 2v-1v-1zM249 301q-2 3 -3 0h3zM160 -85q2 3 3.5 6t-0.5 8q-6 -6 -3 -14zM183 -15q-4 -6 -7.5 -14t-5.5 -15.5t-3.5 -13t-0.5 -8.5q5 6 9 20t7 31h1zM187 -7q-3 -3 -3 -6zM188 -6q0 2 -1 3v-3h1zM380 439v-1v1zM421 514q4 1 4 6
l-6 -6h2z" />
    <glyph glyph-name="Z" unicode="Z" horiz-adv-x="629" 
d="M660 613q8 -2 10.5 -5.5t0.5 -11.5q-2 -6 -2 -10q2 -18 -6 -32t-20 -26q-2 1 -3 0q-2 -2 -5 -4.5t-5 -4.5q-3 -2 -5.5 -4.5t-2.5 -7.5q4 3 6.5 7t7.5 6q-2 -6 -5.5 -10t-7.5 -9q-27 -31 -54.5 -61t-54.5 -61q-22 -25 -44 -49t-43 -50q-16 -20 -30 -40t-29 -40
q-23 -29 -45 -59t-45 -59q-26 -33 -51 -67t-50 -69q-15 -21 -30 -41.5t-33 -39.5q-4 -4 -3 -8q8 0 15.5 2t15.5 4t12 4q23 10 48 13t49 9q28 7 56 11t57 6q26 2 52.5 3t52.5 -2q13 -2 27 -6q20 -7 17 -27q-2 -9 -4.5 -17.5t-5.5 -16.5t-12 -11q-4 0 -5 1q-2 2 0 5l6 12
q4 7 -4 9t-12 2q-16 2 -31.5 1t-31.5 -2q-43 -2 -85 -10l-84 -16l-30 -6q-8 -2 -15 -4.5t-15 -5.5h1q-3 -3 -6.5 -4t-7.5 -3q-29 -9 -57 -18.5t-56 -20.5q-7 -3 -13 -6t-10 -10q-4 -6 -7 0q-2 3 -7 0q-9 -6 -19 -10t-19 -10q-12 -7 -13 4q-1 7 -2.5 13.5t-0.5 14.5
q2 19 15 28q11 7 21.5 13.5t21.5 11.5q8 4 11 13q4 11 9.5 20.5t11.5 19.5q19 30 33 58q8 16 17 31t20 29q10 14 19 28.5t18 29.5q8 12 15.5 24t15.5 24q13 20 25 39.5t26 38.5q11 16 22.5 32t23.5 32q2 4 4 5q17 15 29 33t26 35l24 30l6 8t9 4q0 5 2.5 8t4.5 6
q26 35 54.5 67.5t60.5 62.5q13 12 25 24l24 24q1 0 1 2q-2 2 -8 0q-58 -14 -116 -26.5t-116 -27.5q-7 -2 -14 -3.5t-13 -6.5q8 -1 16 1.5t16 4.5t15 4t15 3q-11 -6 -22.5 -8.5t-22.5 -5.5q-20 -5 -39 -11t-38 -14q-21 -8 -42 -14.5t-42 -13.5q-8 -3 -12 -1t-8 10
q-5 9 -5.5 18t0.5 19q0 12 10 18q24 12 48 21q35 13 69 24.5t69 22.5q20 6 40 9.5t40 8.5q18 4 36 8.5t37 6.5q33 3 66 8.5t67 5.5q9 0 18 0.5t18 1.5q10 0 15 -2zM285 483q3 -1 4.5 0t3.5 2q-4 0 -7 -2h-1zM26 -231l3 3q-1 0 -3 -2v-1zM31 -228q1 0 3 2q-1 0 -3 -2z
M56 -216q11 0 20 7q-5 -1 -10.5 -2.5t-10.5 -6.5zM495 -108h1v1zM467 -113h-4.5t-7.5 -2h12q2 0 0 2zM334 -145v-1h3v1h-3zM324 -148h1h-1zM162 -189q-38 -3 -52 -15q14 5 27 8.5t26 7.5zM103 -205q-1 1 -1 0h1zM620 503q-3 0 -7 -4q3 0 7 4z" />
    <glyph glyph-name="bracketleft" unicode="[" horiz-adv-x="211" 
d="M229 610q1 -9 -8 -10q-5 -1 -10.5 -1h-10.5v2q-4 1 -7.5 1.5t-7.5 -1.5q1 -2 5 -2q1 -1 0 -1q-9 -3 -20 -3q-19 -1 -37.5 -4.5t-38.5 -3.5q-6 0 -6 -5l-36 -189q-7 -32 -13 -64.5t-11 -65.5q-4 -20 -6.5 -39.5t-5.5 -39.5q-2 -12 -2.5 -24t-2.5 -23q-1 -9 7 -7
q14 5 28.5 8t29.5 5q13 2 25.5 4t25.5 2q10 0 20 2.5t20 2.5q8 0 16 1.5t16 -0.5q10 -2 13.5 -11.5t-1.5 -17.5q-3 -3 -6 -3q-4 -1 -11 -1q-22 -2 -43 -7.5t-42 -10.5q-27 -6 -54.5 -12t-55.5 -13q-4 -2 -7 -2q-9 0 -9 8q-1 3 -1.5 5.5t-1.5 5.5q-2 5 -1 9t1 9q0 1 1 2
q7 3 5 12q-1 14 0 28l2 28q1 17 3 34l4 34q1 5 1 10.5v11.5q0 17 3 32.5t8 32.5q1 5 1 9.5v9.5q0 11 0.5 21.5t2.5 21.5q2 9 2.5 18t2.5 18q2 11 4 20.5t6 20.5q5 13 7 26.5t4 27.5q4 27 12 54q2 9 0 14q-3 5 -3.5 11t-0.5 12q0 5 7 9q14 8 28 9q19 4 37.5 5t36.5 3
q11 1 21 1h21t23 -3q5 -2 6 -3.5t2 -6.5q1 -6 1 -12.5t2 -13.5zM8 94h-1v-1zM197 127h-2h2h5q1 0 1 0.5t-1 0.5h-5v-1zM187 125h-4h4zM173 125h-1q0 -1 1 -1h2h-2v1zM58 105q2 0 3.5 -0.5t3.5 1.5q-5 0 -7 -2v1zM131 119q-5 -1 -11 -1.5t-11 -3.5q27 3 54 9q-8 0 -16 -1
t-16 -3zM107 114q-5 1 -7 -1q5 -2 8 1h-1zM98 113q-7 -1 -13 -2t-12 -3q7 1 13 2t12 3zM71 107q-5 0 -7 -1q5 0 7 1zM56 104q-4 0 -6 -1q3 0 5 1h1zM43 101h2v1h-2v-1zM36 100h-2h2zM19 96h1v1zM13 94h-2h2zM31 424q1 6 2.5 12.5t1.5 14.5q-5 -18 -7.5 -29t-4.5 -19.5
t-3 -17t-1 -21.5q1 0 3 5q6 27 9 54v1zM163 595l1 2q-2 2 -3 2q-2 0 -2 -1q1 -2 3 -2zM177 598q0 3 -2 3t-4 -0.5t-5 -1.5q5 -4 10 -2zM81 605q33 2 66 5.5t65 5.5q-33 -1 -66 -4t-66 -7h1z" />
    <glyph glyph-name="backslash" unicode="\" horiz-adv-x="90" 
d="M106 119q2 -9 -3 -14q-9 -10 -14 2q-2 7 -5 13.5t-5 14.5q-2 7 -5 10q-1 -6 2 -11t3 -12q-5 8 -6 14q-2 7 -4.5 14t-4.5 14q-2 4 -2 5q-8 11 -11.5 24t-7.5 25q-2 7 -3 13t-3 13q-2 2 -2 5q1 8 -1.5 14.5t-4.5 13.5q-5 16 -9 31.5t-9 31.5q-3 12 -5.5 24.5t-4.5 25.5
q-2 10 -2 16q-1 17 -5 32t-5 32q-2 7 -2 14v15q-1 14 -2.5 28.5t-1.5 28.5t-1.5 28.5t-1.5 28.5q0 21 3 42q2 11 10 4q4 -2 8 -3t9 -3q9 -4 12 -15q4 -18 6 -37q9 -113 27 -224q4 -26 7.5 -51t8.5 -51q1 -3 -0.5 -6t0.5 -6q0 -12 3 -24q1 -4 1 -8t2 -8q0 -7 2 -10q1 1 1 4
q1 -2 3 -4q3 -14 8 -28t8 -28q2 -9 4.5 -18t4.5 -18zM71 155q0 -3 2 -5q0 4 -2 5z" />
    <glyph glyph-name="bracketright" unicode="]" horiz-adv-x="241" 
d="M247 635q8 -11 9.5 -15.5t-1.5 -18.5q-8 -45 -18 -88.5t-26 -86.5q-3 -8 -6 -16.5t-5 -16.5t-3.5 -14.5t-3.5 -14.5q-10 -30 -18.5 -60t-16.5 -61q-7 -26 -13.5 -53t-11.5 -54q-2 -5 3 -8q3 -3 6 -6.5t4 -8.5q1 -7 -5 -8q-23 -3 -44.5 -8.5t-44.5 -10.5q-23 -6 -45 -9
q-8 -1 -13.5 2.5t-7.5 11.5q-1 2 -2 4.5t-1 4.5q0 3 -2 5t-1 5q4 4 12 7q12 5 25 8t27 5q13 2 26 3t26 1q7 0 11 1q6 2 3 7q-1 1 -1 6q2 9 -1 17q-2 5 -0.5 10t2.5 10q2 -2 1 -5t1 -5q0 7 1.5 13t-1.5 12q2 29 10 54q3 10 4.5 20t3.5 20q10 47 20.5 93.5t23.5 93.5
q7 25 18 52q4 11 7.5 20.5t5.5 20.5q2 10 4.5 19.5t5.5 19.5q0 1 0.5 1.5t0.5 1.5q2 5 -4 5q-2 0 -5 0.5t-5 -1.5q-8 -5 -16.5 -6t-16.5 -3q-24 -5 -47.5 -8t-47.5 -5h-7q-5 0 -6 4l-8 14t-4 15q-1 5 -0.5 5.5t5.5 1.5q17 5 35 8t36 5q23 2 45 3t45 1q10 0 21 -3
q6 -2 7.5 -3.5t2.5 -7.5q0 -3 3 -7zM108 165l1 1q1 1 0 2q0 1 -0.5 1t-0.5 -1v-2v-1zM113 134q3 5 4.5 15t0.5 22q-2 -10 -4.5 -18t-0.5 -18v-1zM191 382q-1 -1 -1 -3q1 1 1 3zM189 377q-1 -1 -1 -3q1 1 1 3zM188 371q-6 -9 -6 -20q2 5 3 10.5t3 10.5v-1zM173 340
q5 11 8 21.5t5 21.5q-4 -11 -7.5 -21.5t-5.5 -21.5zM173 338q0 -2 -1 -3q1 1 1 1.5t1 1.5h-1zM172 334v-2v2zM65 629q17 2 34 4.5t35 4.5q36 4 72 6q3 0 4 1q-5 -1 -9 -0.5t-9 -0.5q-12 -1 -23.5 -1.5t-23.5 -1.5q-20 -2 -41 -4.5t-41 -5.5q-4 0 -5 -2q3 1 7 1v-1zM76 616
h-1q-2 -2 0 -2zM95 605h1h-1zM99 617q5 0 8 5q-15 0 -20 -1t-8 -5q3 0 5 -1.5t4 0.5q4 2 11 2zM108 608q5 -3 10 2q-6 1 -10 -3v1zM119 609l1 1h-2zM218 628q3 2 2 6q0 3 -4 3h-7q-8 -2 -15.5 -2.5t-15.5 -1.5q-5 0 -6 -4q-2 -2 -5 0q-1 2 -2 1.5t-1 -2.5q-1 -5 -7 -5
q-4 1 -2 5q-7 2 -13.5 0t-13.5 -3q-4 0 -2 -3l2 -4q-8 8 -16 1q-2 -3 2 -3h4.5t3.5 -3q2 -4 4 -3.5t4 0.5h1q5 2 8.5 3t8.5 3q-1 -4 3 -2h1q1 2 3.5 3t2.5 3q1 0 2 -1q5 0 9 1t9 0q5 0 9 1t9 2q6 3 13 3q6 0 8 2h1zM221 646q-5 2 -8 0h8z" />
    <glyph glyph-name="asciicircum" unicode="^" horiz-adv-x="193" 
d="M132 653q9 3 13 -7q2 -6 4 -12.5t3 -14.5q7 -44 12 -92q2 -8 0 -12q2 -3 2 -9q1 -3 0 -7l2 -4q1 -10 2.5 -19t2.5 -19q1 -6 1.5 -11.5t2.5 -11.5v-4q-2 -6 -7 -3q-7 0 -10 7q-6 10 -8 22q0 4 -1.5 8t-1.5 8q-2 8 -3 16t-3 16q0 6 -3 9q-2 6 -3 12t-3 13q-2 11 -3.5 22
t-4.5 22q-2 8 -3.5 15.5t-3.5 15.5q-3 3 -2 3q-2 0 -2 -3q-2 -4 -3.5 -7.5t-2.5 -7.5q-2 1 -2 2t-1 2h-1q-1 2 -2.5 2.5t-1.5 2.5q-3 -2 -2 -5t-1 -5t-3 -5t-3 -5q-1 -2 -2 -5t-1 -5q-2 -5 -3 -10t-3 -10q0 -8 -1 -12q-2 -3 -2 -6t-1 -6v-4q1 1 1 4q2 7 4.5 13t4.5 13
q2 1 0.5 2t-0.5 3q0 2 2 3v1q0 4 3 7v3q-1 4 1.5 5t4.5 3q3 0 2 -3q-3 -7 -4 -13.5t-3 -12.5q-2 -7 -4 -13l-4 -12l-6 -16t-5 -16v-2q0 -1 -1 -1.5t-1 -2.5q-1 -2 -2 -4.5t-1 -5.5q-1 -6 -3.5 -12t-5.5 -11q-2 -6 -10 -8q-5 -2 -9 -2t-9 2h-5q-12 0 -12 11q1 6 2 11t4 10
q4 7 10 1q2 2 2 3.5t1 3.5q8 27 16 57q8 23 15.5 44.5t18.5 42.5q4 9 12 18q7 8 17 5q3 -2 6 -2t6 -2t6 -1zM135 644q-2 -1 -1 -4v3zM101 635v2q-1 0 -1 -1zM100 635q-1 -1 -3 -6q1 2 2 3t1 3zM139 614q1 0 1 2l1 1h-1q-1 0 -1 1v-2h-1q-1 -1 -1 -2l2 -1v1zM144 613
q-1 0 -1 -1l2 1h-1zM74 517q2 2 2 4t1 4q-2 -2 -2 -4t-1 -4zM74 566q9 30 23 62q-2 -2 -2.5 -3.5t-1.5 -3.5q-8 -15 -13.5 -31t-11.5 -33q-3 -11 -6.5 -22t-6.5 -22q-2 -8 -4 -15l-4 -14q-1 -5 -2.5 -9t-2.5 -9q1 3 3 7q2 7 4 13.5t4 13.5l10 34l10 34zM109 622l-2 -2
q1 0 2 1v1zM105 617l2 2q0 -5 -3 -9q-1 -2 -1.5 -3.5t-2.5 -2.5q1 3 2 6.5t2 6.5h1zM109 600q0 1 -2 1q-1 0 -1 -2q2 0 2 2zM110 603q2 4 3 7.5t3 7.5q0 2 -1 3q0 1 -1 1h-1q0 -3 -2 -5v-1q-2 -2 -2 -6q-1 -1 0 -2q-2 -2 -2 -4q2 -2 2 -1h1zM142 604q1 0 2 -1q-1 0 -1 0.5
t-1 0.5zM145 602v1v-1l1 -1q-1 0 -1 1v0zM141 594q1 -2 4 1q-2 -1 -3 -1h-1zM146 595q0 -2 -0.5 -2.5t-0.5 -1.5q1 0 1 3v1zM142 589q1 0 3 2q-3 0 -3 -1v-1zM161 523q-1 4 -1.5 7.5t-2.5 7.5v-8q1 -5 1 -10t2 -11q1 -3 1.5 -7t3.5 -6q-1 -4 1 -8q0 4 2 6l-2 6v2v-2
q-2 4 -2 5q-1 5 -1 9t-1 7zM158 539q-1 0 -1 -1h1l-1 1h1zM151 543v1v1v-1v-1zM147 563v1l-1 -1h-1q1 0 1 -1q-1 -4 0.5 -7.5t1.5 -7.5q0 -2 3 -2q-2 5 -2 9t-1 9h-1zM147 571q-3 3 -4 3q1 -2 1 -3.5t2 -3.5v4h1zM144 574q2 0 1 3v5v1q0 3 -3 3q0 -8 2 -12zM154 575
q-1 3 -0.5 6t-1.5 6q-2 -3 -0.5 -6t1.5 -6h1v1v-1zM143 631q1 1 2 1q-2 0 -2 -1v-1v1zM141 638q-1 1 -1 2v1l-1 1q-3 0 -4 -4q3 -2 4 -6t2 -7q1 -4 1 -7t1 -6q2 -3 0 -5q2 0 2 -2q0 -5 1 -8.5t2 -7.5q0 -2 3 -3q2 3 -1 8q-1 2 -1.5 3.5t1.5 3.5q1 2 -1 3.5t-2 3.5
q-2 6 -3 11.5t-2 11.5q-1 2 -0.5 3.5t-1.5 3.5v1z" />
    <glyph glyph-name="underscore" unicode="_" horiz-adv-x="833" 
 />
    <glyph glyph-name="grave" unicode="`" horiz-adv-x="106" 
d="M79 489q5 -7 5 -13q-2 -16 -6 -29q-4 -9 -8.5 -17.5t-10.5 -16.5q-7 -10 -14 -22q-2 -4 -4.5 -7.5t-6.5 -6.5l-4 -2t-4 0t-2 7q0 7 1 10q4 11 7 22t8 22q2 4 4 7t4 8q5 14 7.5 27.5t1.5 27.5q-1 4 4 4t7 -5t5.5 -8.5t6.5 -7.5h-1z" />
    <glyph glyph-name="a" unicode="a" horiz-adv-x="312" 
d="M341 296q2 -2 2.5 -6t-0.5 -7q-1 -6 -7 -14q-7 -8 -13 -16t-13 -16q-7 -7 -12.5 -14.5t-10.5 -15.5t-10.5 -16t-11.5 -16q-5 -7 -11 -14.5t-11 -15.5t-9 -16t-9 -16q-9 -17 -18.5 -33t-20.5 -32q-4 -5 -8.5 -10.5t-10.5 -7.5t-11.5 2t-10.5 8q-12 9 -22 21.5t-14 27.5
q-1 3 -1 6.5t-3 5.5q-8 -20 -16 -39t-19 -37q-4 -7 -8.5 -13.5t-11.5 -11.5q-10 -6 -24 -1t-26.5 14t-20.5 23t-10 30.5t-3 33.5q-1 12 -2 24.5t1 24.5q0 6 1 9q1 2 2 2.5t3 2.5q2 3 1.5 6.5t-0.5 7.5q1 4 0 9q1 2 2 2.5t2 2.5t1 6v11q1 6 1.5 12t2.5 12q3 11 8 22l10 22
q18 43 48 80q15 17 32.5 32t37.5 26q17 9 36.5 9t36.5 -11q8 -5 13 -12t10 -15l4 -10t-5 -7q-3 -1 -4.5 0.5l-3.5 3.5t-4 3l-4 2q-5 2 -13 6t-13 2l-8 -4t-9 -4q-10 -5 -17.5 -12t-15.5 -15q-62 -66 -87 -150q-14 -45 -18 -90q-2 -13 -2 -26v-26v-6q1 -3 3 -2t6.5 -2.5
t5.5 -1.5q3 6 6.5 11.5t6.5 11.5q4 10 12 15q0 2 3 5q8 15 13.5 31.5t12.5 31.5q7 14 16 29q6 8 7 12q4 6 7 7q2 0 3 -1t3 1q1 1 4 6q2 4 3 7.5t0 8.5q1 -1 3 4t2 6l1 9l-6 -3q2 4 4.5 7.5t4.5 7.5v-3l3 3v7q2 2 3 4t3 4l9 18q5 9 9 18.5t9 19.5q4 6 9.5 15t14.5 11
q5 1 9 -4q2 -4 3 -8t3 -8l3.5 -3.5l3.5 -3.5q2 -4 2 -8q0 -5 -4 -15q-6 -18 -14 -40q-7 -21 -13.5 -41.5t-12.5 -41.5q-4 -11 -6.5 -23t-5.5 -23l-6 -24l-2 -10t-1 -10q3 2 5 5.5t4 7.5q2 5 4 8.5t4 8.5q5 8 10.5 16t10.5 16q10 17 21 33l22 32q12 16 23.5 31t25.5 29
l7.5 7.5t6.5 7.5q5 5 13 10t16 5h6t6 -2zM105 361q-1 -2 -1 -3t-1 -3q2 3 5 5.5t7 5.5q6 6 10 9q4 2 5 4v3q1 1 3 1q5 1 10 4t11 4q6 2 11 2t10 5q-4 0 -7 0.5t-7 -0.5q-4 -2 -6 -4l-3 -3h-2h-3q-10 0 -13 -3q-2 -1 -6 -5q-3 -3 -7 -4q-6 -3 -11.5 -7t-9.5 -10zM88 343
q-4 -2 -4 -4q2 0 4 3l3 3q-1 -1 -2 -1zM102 160l2 4q-1 -1 -3 -5zM108 170q5 7 5 13q-7 -7 -8 -14v-3l3 3v1zM259 179v-3v3zM267 191h1q1 1 1 5l-3 -3v-3l-2 -2q0 -1 -2 -3v-3q2 2 2 3q1 1 1 3t1 2z" />
    <glyph glyph-name="b" unicode="b" horiz-adv-x="278" 
d="M230 333q14 -14 16.5 -30t-0.5 -33q-16 -84 -81 -144q-35 -33 -74 -60.5t-81 -52.5q-12 -8 -19.5 -7t-18.5 11q-2 2 -3 2q-11 -1 -14.5 7.5t-9.5 13.5q-5 5 -3 15q2 8 2 17t1 18q1 19 9 37q11 29 19.5 59.5t16.5 61.5q14 58 33 114t45 110q12 26 26 51t29 50q8 12 16 28
q6 15 15 1q7 -12 10.5 -24.5t-1.5 -27.5q-15 -51 -32.5 -101.5t-40.5 -98.5q-2 -5 -4 -10.5t-2 -12.5l15 15q13 14 29 22.5t33 14.5q29 9 47 -16q8 -12 21 -25zM207 308q-5 -8 -7.5 -17t-6.5 -17q-1 -2 4 -4q5 9 7 19l4 20zM189 266q-3 -4 -3 -8v-9q5 4 7 9.5t3 11.5
q-5 0 -8 -4h1zM139 351q-10 -4 -15 -11t-10 -15q12 4 27 15.5t20 20.5q-7 -2 -12 -5.5t-10 -5.5v1zM111 324q-4 -3 -8 -5.5t-5 -8.5q3 2 7 4q2 2 5.5 3.5t3.5 6.5h-3zM95 323q-2 -2 -4.5 -3.5t-4.5 -6.5q8 5 9 10zM94 302q-14 -1 -22 -21l22 22v-1zM129 199q19 21 35 43.5
t25 49.5q7 17 7 31q0 9 -9 8q-3 0 -9 -2q-9 -3 -16.5 -7.5t-15.5 -9.5q-20 -14 -37 -30.5t-32 -35.5q-35 -42 -57 -89.5t-34 -100.5q-2 -6 0 -12q7 5 12 12t11 13q11 11 21 23t21 24l16 20t19 18q8 6 15 12.5t14 14.5l18 18h-4zM169 225q1 1 1 0h-1zM177 244q0 3 -2 2l3 -3z
M179 244q0 -2 1 -2v2h-3h2zM207 311q0 2 -1 3v-3h1z" />
    <glyph glyph-name="c" unicode="c" horiz-adv-x="233" 
d="M259 318q3 -6 4.5 -12t-2.5 -13q-1 -3 -5.5 -10.5t-10 -16t-10 -16t-6.5 -9.5q-17 -21 -31.5 -44t-30.5 -46q-17 -25 -31.5 -51t-30.5 -52q-10 -15 -21 -26q-15 -14 -33 -5q-68 32 -84 102q-3 9 1 23q2 8 3 15t-1 15q-1 4 1 12q7 36 19.5 69.5t29.5 65.5q21 26 40.5 52.5
t48.5 45.5q13 8 26.5 13.5t29.5 4.5q10 0 18 -6q22 -17 27 -48q2 -5 -2 -8q-2 -2 -3.5 -1t-3.5 2q-14 8 -24.5 15.5t-22.5 -2.5q-17 -14 -30.5 -30t-26.5 -33q-5 -6 -10 -11t-8 -13q-19 -45 -33.5 -91t-16.5 -96v-21q0 -2 6.5 -12.5t8.5 -13.5q8 6 13.5 12.5t11.5 13.5
q20 22 37 45.5t34 46.5q8 10 19.5 25.5t24 31.5t24.5 31l20 25q5 6 11.5 10.5t12.5 9.5q5 5 8 -2zM173 405q-9 0 -13 -4l6 2t7 3v-1z" />
    <glyph glyph-name="d" unicode="d" horiz-adv-x="274" 
d="M302 295q4 -5 1.5 -9.5t-4.5 -9.5q-10 -19 -19 -37.5t-20 -36.5q-8 -14 -10.5 -17.5t-3.5 -6t-3 -6.5l-9 -18q-8 -15 -14.5 -30.5t-14.5 -30.5q-5 -11 -10 -21t-12 -20q-5 -8 -9 -21l-3 3v-3v-3q-2 -8 -6.5 -14t-9.5 -11q-6 -6 -14 -4q-13 3 -27 18t-22 26q-6 9 -8 22
v9.5t-1 10.5q-6 -8 -9 -16t-5 -16q-7 -21 -18 -43q-3 -7 -9 -11q-10 -10 -25 -3q-17 8 -29.5 19t-19.5 28q-14 38 -11 82q7 96 56 183q9 16 20 29.5t26 24.5q5 4 11 7l12 6q24 9 45 1q7 -3 8.5 -2.5t3.5 7.5l18 52t20 52q5 11 9.5 22t9.5 22q10 19 19.5 37t19.5 36q4 7 8 13
t9 11q11 11 19 -1q5 -6 8 -12.5t8 -12.5q5 -7 0 -13q-10 -14 -16 -29l-12 -30q-19 -48 -37 -96t-37 -96q-5 -12 -4 -22q1 -9 -4 -19l-3 -5q-11 0 -11.5 -7.5t-3.5 -13.5q-1 -2 -1 -4t-1 -4q2 2 3.5 4.5t5.5 4.5q-1 -10 -2 -19t-4 -18l-15 -57q-5 -21 -4.5 -51t-2.5 -51
q3 0 5 3q5 11 10.5 20t9.5 20t14 25q7 9 11.5 18.5t9.5 20.5q2 5 4.5 10.5t5.5 10.5q11 20 17 29.5t11.5 17t12.5 16.5l21 27q4 5 8.5 10t10.5 9q14 9 17 -7v-6zM142 228l9 21q-5 -5 -6 -10.5t-1 -11.5zM151 262q-2 -6 -1 -10q2 6 2 10h-1zM141 226q-5 -5 -5.5 -11t-1.5 -12
q5 9 7 23zM115 343h1v1zM43 290q-1 -1 -1 -4q2 2 2 4h-1zM41 284q-6 -3 -9 -15q3 5 5 8t4 7zM121 321q1 2 1.5 4t-2.5 4q-2 1 -4 0l-4 -2q-6 -4 -9 -7q-24 -20 -38 -45q-10 -17 -18 -35t-13 -37q-11 -35 -19.5 -69.5t-10.5 -70.5v-9t2 -9q18 21 22 43q3 18 10 33
q11 25 21.5 49.5t24.5 47.5q14 24 23 49.5t15 52.5z" />
    <glyph glyph-name="e" unicode="e" horiz-adv-x="238" 
d="M268 331q3 -2 4 -8.5t-1 -12.5q-3 -8 -10 -15q-8 -8 -14.5 -17.5t-13.5 -19.5q-3 -3 -3 -7l-3 -6q-3 -3 0 -6q-20 -33 -39.5 -66t-38.5 -67q-10 -17 -20.5 -33.5t-22.5 -32.5q-5 -7 -10.5 -13t-13.5 -11q-33 -21 -63 -2q-8 5 -16 10.5t-16 12.5q-17 14 -24 32.5t-12 38.5
q-4 20 -1 44q0 6 1 8q8 15 10.5 32t8.5 33q6 17 13.5 32.5t15.5 31.5q10 21 24.5 37.5t30.5 33.5l13.5 13.5t14.5 12.5q17 14 36 17q28 5 42 -16q3 -5 6 -9t5 -9q4 -7 -5 -7h-3q-10 0 -6 -8q10 -17 8 -33t-8 -32q-15 -41 -51 -71q-15 -12 -32 -18.5t-37 -1.5q-3 1 -5 -0.5
t-4 -2.5q0 5 -2 7q-10 8 -13 -3q-1 -2 -0.5 -4.5t-1.5 -4.5q-7 -7 -7 -14q0 -4 -1 -7.5t-2 -7.5q-14 -47 -6 -95q2 -10 8 -15q1 6 0.5 12t1.5 11l6 -24q2 -10 6 -12t14 1q13 5 22 13t17 19q16 22 27 43q15 26 32 50.5t34 48.5q12 17 23 33.5t24 32.5q9 11 19 22l20 22
q3 4 7 7t10 1h2zM126 347q-5 -2 -8 -5l-6 -6q-18 -22 -34 -45t-29 -48q-1 -2 -2.5 -4.5t0.5 -5.5q10 5 24 20t26.5 32.5t21 35t8.5 26.5h-1zM86 321q-7 -4 -10 -10.5t-7 -12.5q6 5 11 10.5t7 13.5zM58 277q-8 -13 -15.5 -25.5t-13.5 -26.5q6 -2 8 3q6 12 11.5 24t11.5 24
q-2 2 -3 2zM167 156q-6 -3 -2 -8l3 6zM166 149q-8 -5 -13.5 -10t-3.5 -16q6 5 9.5 11.5t6.5 13.5zM147 119q-9 -2 -5 -9q3 3 5 10v-1zM99 64q-1 -1 -1 -3q1 1 1 3zM60 17q14 7 22 18t15 24q-5 -2 -8 -6t-8 -7q-10 -8 -20 -14.5t-22 -11.5q5 -5 10 -4.5t10 2.5zM98 41v1
q-2 -2 0 -2v1zM103 46q8 7 7 16q-2 -3 -4 -6.5t-3 -8.5v-1zM110 63q4 -2 5 -1q6 8 12 16.5t7 19.5q-4 -3 -8 -11q-4 -6 -7.5 -12.5t-7.5 -12.5zM136 99q5 1 7 8q-4 -1 -8 -7z" />
    <glyph glyph-name="f" unicode="f" horiz-adv-x="156" 
d="M171 314q11 -8 12 -13t-4 -17q-5 -11 -12 -19.5t-13 -18.5q-2 -4 -5 -7t-5 -8l6 3q0 -6 -3 -10l-6 -8l-10 -12t-13 -9v6l-3 -6l-33 -30l-6 -3q-7 -4 -7.5 -5.5t2.5 -8.5q7 -16 9 -33t3 -34q0 -5 -0.5 -9t1.5 -9q6 -9 1 -18q2 -8 2 -15t-1 -15q-3 -24 -9 -48q-3 -4 -4 -8
t-2 -9q2 2 3 4t3 3q-1 -9 -3.5 -17.5t-4.5 -16.5q-8 -24 -17 -47t-23 -45q-9 -15 -20 -21t-21.5 -5.5t-21.5 6.5t-20 14q-1 1 -1.5 2t-1.5 2q-12 8 -15.5 20t-4.5 26q-1 29 1.5 57t4.5 57q5 54 12 104q4 23 9 45t13 44q2 6 5 8q2 11 1 21t3 21q5 14 9.5 28.5t12.5 27.5
q2 2 2.5 5t1.5 5q8 29 19.5 55t26.5 51q11 18 19.5 37t17.5 39q10 21 21 41t25 39q8 12 16 18q6 5 9.5 4.5t8.5 -5.5q15 -13 20 -28q5 -12 -2 -20q-7 -9 -13 -18t-13 -18q-13 -17 -21.5 -35.5t-16.5 -37.5q-19 -42 -37 -83t-35 -83q-5 -14 -4 -25q1 -12 -4 -20v-9
q-1 -9 5 -14t14 -3t14 6t11 9q33 33 60 72q7 10 11 21.5t9 22.5q2 7 9 2zM-2 125q-4 -7 -4 -16q2 5 4 15v1zM-11 92v3v-3zM-13 92v-3v3zM-24 50q-11 -44 -16 -94q3 6 4.5 12t3.5 12q5 23 10.5 45.5t13.5 44.5q1 3 2.5 6t-0.5 8q-2 -5 -4.5 -9.5t-3.5 -9.5t-4 -8.5t-5 -8.5z
M-43 -44v-3l1 -1q1 0 1 3zM-46 -66h-1v-1zM33 -149h-3v-1h3v1zM41 64q4 23 3 46t-9 46q-3 2 -4.5 6t-5.5 6q-7 -20 -13 -40t-11 -40q-2 -6 -2 -12.5t-2 -12.5q-11 -35 -18.5 -71t-15.5 -72q-2 -13 -4 -25.5t-3 -25.5q-1 -17 9 -34q4 -8 9 0q6 8 8 13q12 32 23.5 63t19.5 64
q5 22 7.5 44t5.5 45h3zM51 -84v3v-3zM85 71v-7q-2 2 -1.5 3.5t0.5 3.5h1zM127 219q2 2 4 7q-3 -3 -3 -7h-1zM132 227q7 3 7 10q-6 -6 -7 -10z" />
    <glyph glyph-name="g" unicode="g" horiz-adv-x="210" 
d="M216 -85q19 -13 16 -34q-1 -4 -1.5 -7.5t-1.5 -8.5q-4 2 -4.5 4.5t-1.5 5.5q-3 13 -18 18t-30.5 6t-31.5 -1q-8 -1 -16.5 -2.5t-16.5 -3.5q-6 -2 -9 -7q-2 -4 -3.5 -7.5t-3.5 -7.5q-6 -17 -15 -31.5t-19 -28.5q-6 -8 -12.5 -15.5t-14.5 -13.5q-16 -12 -35 -6
q-37 11 -63 37l-12 12q-6 6 -11 3t-11 -4t-12 -3q-18 -7 -25 4q-5 7 -5.5 16.5t4.5 14.5q4 5 7 9.5t8 8.5q4 -7 0 -12t-2 -11q8 1 13.5 4t10.5 7q9 6 18.5 11.5t20.5 9.5q26 9 51 19t51 16q20 4 27 22t11.5 36.5t9.5 37.5q3 12 5.5 24t5.5 24q2 11 4 22.5t3 23.5
q2 17 7.5 33t11.5 32q2 5 3.5 10.5t0.5 11.5q-9 -11 -15 -24t-14 -25q-5 -9 -10 -18.5t-12 -17.5v6q-5 -7 -9 -14t-6 -15q3 2 4.5 4.5t4.5 4.5q0 -4 -4 -12q-6 -13 -13 -24.5t-15 -22.5q-6 -9 -10.5 -10.5t-12.5 3.5q-15 10 -27.5 21.5t-16.5 31.5q-5 26 -5.5 52.5t5.5 52.5
q5 18 9.5 36t11.5 35q10 26 21 51t28 48q15 20 33 36.5t41 27.5q26 13 55 3q13 -5 19 -15t9 -23q1 -3 1 -9q2 -18 -12 -7q-9 7 -17.5 5.5t-16.5 -4.5q-9 -4 -16.5 -9.5t-15.5 -12.5q-30 -27 -48 -63q-11 -20 -19.5 -40.5t-13.5 -42.5q-5 -18 -7.5 -36t-5.5 -36q-2 -9 -3 -18
t-1 -19q5 0 6 3t3 5q11 20 23 40t25 40l36 54t38 53q4 5 8 9.5t12 7.5q-1 -4 -2 -7.5t4 -6.5q5 -2 5.5 -7t-1.5 -10q-13 -29 -17 -59l-8 -60q-12 -90 -30 -181q-2 -9 -4.5 -17.5t-4.5 -17.5q-2 -8 -1 -9.5t9 -0.5q16 1 31 -0.5t30 -3.5q19 -3 30 -11h-2zM132 239q4 3 3 10
q-4 -4 -4 -9zM-56 -160q-3 0 -3 -2h3v2zM-5 -207q1 0 1 0.5t-1 0.5h-3q-2 0 -4 -1h4h3zM-9 -184q22 11 39 39q-11 0 -17 -3q-12 -5 -24.5 -8.5t-25.5 -6.5l-15 -3q-6 -1 -4 -8q1 -4 7 -8q21 -11 40 -2zM7 -138q8 2 15.5 4t14.5 7q-4 2 -6.5 1.5t-4.5 -1.5q-20 -5 -38 -13
t-37 -15q-2 -1 -4 -5l30 9l16 6l16 6zM41 -196v-1v1zM42 -197q4 2 5 4l-6 -3z" />
    <glyph glyph-name="h" unicode="h" horiz-adv-x="286" 
d="M283 298q6 10 13 13t13 2.5t9 -3.5t1 -6q-2 -2 -15 -22t-29.5 -47t-33.5 -56.5t-28 -51.5q-10 -25 -20.5 -49t-24.5 -47q-7 -11 -13.5 -13t-18.5 2q-25 9 -28 36q-2 12 0 24q4 28 8.5 55.5t13.5 54.5q2 7 4.5 13t6.5 12q5 10 8 20.5t11 21.5q-5 0 -7 -2.5t-4 -4.5
q-38 -48 -71 -99.5t-56 -108.5l-6 -15q-4 -7 -9 -6q-8 1 -12 -8q-1 -4 -6 -7q-10 -6 -16 4q-7 16 -4 35q3 17 5.5 34.5t7.5 34.5q8 27 12.5 54.5t9.5 54.5q5 29 12.5 58t14.5 58q2 11 6 22t6 22q3 16 8.5 31t10.5 30q7 20 16.5 39.5t17.5 39.5l21 51l3 6q5 8 13 2l3 -3
l13.5 -16.5t5.5 -11t-1.5 -12t-6.5 -19.5q-13 -37 -25.5 -73.5t-23.5 -74.5q-5 -16 -10 -31.5t-10 -31.5q-1 -2 -2 -3t-2 -3q0 -8 -2 -11q-8 -12 -11.5 -25.5t-4.5 -27.5t-5.5 -28t-7.5 -28l-2 -6t-1 -8q9 12 17.5 22.5t16.5 21.5q15 19 36 40q10 9 18.5 19t17.5 20
q17 18 34 29q11 7 21 6q5 0 4 -6q2 -11 -0.5 -20.5t-7.5 -19.5q-3 -7 -5.5 -14t-5.5 -15q-2 -4 -2 -6q1 -14 -4 -27t-9 -27q-6 -23 -9.5 -45t-7.5 -45v-7q4 2 5 4.5t3 4.5q14 26 28.5 51t29.5 50q14 24 29.5 47.5t32.5 46.5zM73 308v-3h3v3h-3zM71 160q5 3 5 7q-5 -3 -5 -7z
M116 238l12 18q-7 -4 -11.5 -9t-10.5 -9q-7 -7 -13.5 -14t-11.5 -16q-6 -6 -11 -13l-10 -14q5 0 4 -3t-2.5 -5.5t-3.5 -5.5q-3 -7 -7.5 -12.5t-6.5 -13.5q9 8 16 18t15 19t15.5 18.5t15.5 19.5q3 5 5.5 9.5t5.5 9.5zM146 266q3 2 5.5 4.5t3.5 7.5q-9 -5 -10 -13zM164 290
q-1 0 -1 -1v-3q2 2 1 3v1z" />
    <glyph glyph-name="i" unicode="i" horiz-adv-x="136" 
d="M152 308q19 -3 10 -20q-5 -8 -10.5 -16.5t-10.5 -16.5q-8 -12 -20.5 -33t-26 -43.5t-26 -43t-20.5 -32.5q-9 -14 -16.5 -28.5t-15.5 -28.5l-8 -12t-9 -11q-15 -18 -35 -6q-4 2 -7.5 5t-7.5 5q-10 4 -7 15q5 17 6.5 35t5.5 36q7 32 15 63t17 62q16 53 40 99q5 10 9 20
t9 20q4 8 7 12q9 10 18 0q6 -8 9.5 -16t0.5 -19q-9 -36 -20.5 -71t-25.5 -70q-11 -26 -20 -52t-19 -52q-1 -2 -2 -4.5t0 -5.5q4 2 5.5 5t3.5 6q9 14 23 36t29.5 45t30.5 44t26 33q3 4 6.5 7.5t8.5 4.5q0 -2 2.5 3t2.5 3q4 4 5 7h2q1 1 1 2t1 2t-1.5 -5t-1.5 -5l3 3l3 3
q1 2 -1 6q3 10 14 8zM84 432q-14 10 -14 25q3 25 12 48q5 12 10.5 24t11.5 23q4 8 7 11q8 11 17 0q3 -5 6 -9t7 -8q10 -10 3 -23l-6 -12t-6 -11l-14 -24l-14 -24q-2 -3 -2.5 -6.5t-2.5 -6.5q-5 -11 -14 -5zM138 526q0 -1 -0.5 -1t-0.5 -1q0 1 0.5 1t0.5 1zM128 513v-3h3
q2 2 1 3q-2 2 -2 -2z" />
    <glyph glyph-name="j" unicode="j" horiz-adv-x="103" 
d="M39 -17q26 -11 38.5 -32t16.5 -48v-4t-3 -4q-4 3 -5 7l-2 8q-3 19 -23 27q-9 4 -18.5 6t-19.5 0q-22 -4 -43 -9t-43 -10q-5 -1 -8 -4t-5 -7q-12 -20 -26.5 -37.5t-33.5 -31.5q-4 -3 -7.5 -5.5t-7.5 -4.5q-20 -13 -38 -12t-40 13q-7 5 -7 16q-1 11 1 20.5t5 19.5l3 9
q4 8 -4 12q-24 10 -34 31q-5 8 -1 15q2 4 6 4q2 0 5 -5q2 -2 0.5 -5t2.5 -5t8 -1.5t8 1.5q11 2 21 5.5t21 7.5q21 8 42 15t43 12q11 3 15 13q20 45 35 90t32 90q14 37 27 74t27 74q4 11 9 21.5t10 21.5q8 16 21 12q18 -5 18 -23q0 -7 -1 -13t-3 -12q-7 -26 -15.5 -51.5
t-16.5 -51.5q-4 -11 -7 -22.5t-6 -22.5q-12 -45 -26.5 -88t-32.5 -86l-3 -6q-5 -9 5 -9q9 -1 18 -1.5t17 -2.5q14 -3 28 -9zM11 141q-5 -5 -6 -13q5 3 5.5 6.5t1.5 6.5h-1zM-29 34q0 -2 1 -2v1v1h-1zM-122 -98q-4 -2 -1 -4v4h1zM-149 -82q-2 0 -4 1t-4 -1q4 -1 7 0h1z
M-171 -83q-6 0 -12 1.5t-11 -3.5h24zM-204 -151q18 11 31.5 26t25.5 32q0 1 -0.5 1.5t-0.5 1.5l-60 -3q-4 0 -6 -6q-3 -11 -5 -21.5t-2 -21.5q0 -9 3 -11t11 2h3zM-174 -153l-6 -3q5 0 6 4v-1zM-187 -164q1 0 1 2zM-144 -151q13 12 22.5 26.5t18.5 29.5q2 2 2 5q0 5 -1.5 3
t-3.5 -2q-5 -2 -8.5 -5.5l-7.5 -7.5q-1 -8 -10 -11q-5 -2 -1 -6q-2 -2 -3 -5t-5 -1q-5 -2 -7.5 -5.5t-5.5 -7.5l-3 -3l-3 -3q-4 -2 -7.5 -4.5t-6.5 -5.5q3 -1 6 0t5 -1v-3q-6 -6 -11 -7q-7 -2 -10 -8q13 -1 22.5 6t17.5 15v1zM-102 -114q3 2 5 8q-2 -1 -4.5 -1.5t-0.5 -5.5
v-1zM-94 -103h-3v-3zM-88 -94h-3v-6zM-89 -93q5 3 6 7h-3q-2 1 -3 0v-3v-6v2zM-33 25q0 -1 1 0h-1zM-44 6q-2 -4 1 -5q3 -2 5 2q2 3 3 6.5t-1 9.5l-7 -14zM-61 -64l12 3q-7 2 -12 -2v-1zM-48 -61q6 2 12.5 2.5t11.5 3.5l-12 -2t-11 -5zM-23 -56q10 0 15 2q-8 2 -15 -1v-1z
M-7 -53h42q-11 1 -21 2.5t-20 -3.5zM132 544q3 -5 3 -11q0 -4 -4 -12q-9 -16 -17.5 -31.5t-19.5 -30.5q-2 -4 -3.5 -7.5t-3.5 -7.5q-6 -15 -18 -3q-13 11 -10 26q3 19 10 36.5t15 34.5q3 7 6 13.5t8 12.5q9 12 19 0q4 -5 7.5 -9.5t7.5 -9.5v-1zM108 494q3 3 3 7q-3 -3 -2 -7
h-1zM120 514q2 0 2 2q2 2 0 2l-2 -2q-2 -2 0 -2zM125 526v3q1 -1 -1 -3h1z" />
    <glyph glyph-name="k" unicode="k" horiz-adv-x="224" 
d="M263 276q8 -5 2 -17q-3 -6 -5.5 -12t-6.5 -11q-11 -17 -24 -43t-21 -44q-7 -16 -13 -32t-13 -32q-4 -9 -7 -18t-11 -16q0 2 1 4.5t2 4.5q-4 -2 -5.5 -5t-3.5 -6q-21 -31 -55 -17q-23 9 -36 29q-14 24 -20 48q-2 11 -6 20.5t-9 20.5q-4 -3 -4.5 -7t-2.5 -8q-2 -8 -4.5 -15
t-7.5 -13q-1 -1 -3 -8l-3 -15q-5 -21 -12 -41t-12 -42q-4 2 -7.5 2.5t-6.5 2.5q-12 8 -11 22q2 17 5.5 33.5t5.5 33.5q6 37 14 73.5t14 73.5q4 24 9 48t13 47q0 2 1 3q11 16 15.5 34t11.5 35l3 6q6 18 13.5 35t18.5 33q7 9 6 17q-1 4 0.5 7t3.5 6q11 21 22.5 41t24.5 40
q10 17 20 0q2 -2 2.5 -4.5t2.5 -4.5q12 -18 2 -38q-14 -27 -23 -55.5t-20 -57.5q-11 -31 -21.5 -61.5t-21.5 -62.5l-10 -30t-11 -29q-2 -4 0 -7l8 6t8 7q6 6 12.5 10.5t13.5 9.5q12 9 22 19q11 12 24 22t27 19l6 3q8 3 8 -5q0 -7 -0.5 -13.5t-3.5 -12.5q-20 -38 -46 -69.5
t-64 -52.5q-5 -2 -6.5 -4.5t1.5 -7.5q11 -20 19 -41.5t16 -43.5q4 -10 8 -19.5t9 -18.5q4 0 4.5 2t1.5 4l12 24t11 25q10 26 26 53q5 9 11.5 20t13.5 22.5t14 22.5t12 19q4 6 8 11t9 10q4 3 8 5t9 -1zM-23 11q1 0 1 2t-1 2t-1 -2v-1zM14 303q-2 -2 -2 -8q2 2 2 8zM11 294
q-2 -2 -2 -8q2 4 2 7v1zM5 267v3v-3zM8 278v7q-2 -2 0 -6v-1zM15 306v2q2 0 1 0.5t-1 -1.5v-1zM169 65v-3q0 2 1 3h-1z" />
    <glyph glyph-name="l" unicode="l" horiz-adv-x="147" 
d="M170 263q3 -2 5 -7t0 -9q-1 -6 -5 -11q-14 -20 -27 -40l-26 -40q-11 -17 -21.5 -35t-15.5 -38q-2 -6 -5 -11.5t-6 -10.5q-8 -15 -17.5 -29t-21.5 -26q-10 -10 -17 -10.5t-19 6.5q-15 8 -20 21t-6 29q-2 23 1.5 45.5t8.5 45.5q11 56 25.5 110t34.5 108q14 38 31.5 74
t34.5 72q6 12 10 25t12 25q4 6 5.5 6.5t6.5 -4.5l9 -12q14 -18 7 -40q-14 -42 -28 -83t-29 -83q-5 -15 -11 -30l-12 -30q-8 -20 -16.5 -40.5t-14.5 -42.5q-5 -19 -11.5 -37.5t-12.5 -37.5q-5 -14 -7.5 -29t-1.5 -30q8 8 13 16.5t10 16.5l15 27q3 5 6.5 10t8.5 9q4 3 6.5 6.5
t4.5 7.5q17 29 37.5 54t43.5 48l3 3q4 2 7.5 3.5t7.5 -0.5z" />
    <glyph glyph-name="m" unicode="m" horiz-adv-x="365" 
d="M332 417q8 -8 7 -17t-4 -19q-11 -36 -23.5 -71.5t-26.5 -70.5l-7 -24.5t-11 -41t-12.5 -50t-13 -49.5t-11.5 -41t-8 -24q0 1 2.5 14t6.5 31.5t8.5 40t8.5 40t6.5 31t3.5 14.5q2 5 3 10t0 10q-3 -2 -3.5 -5t-1.5 -6q-8 -22 -14.5 -44t-11.5 -45q-4 -14 -9.5 -28t-7.5 -29
q0 -2 -1 -4.5t1 -4.5q4 -7 2 -11t-7 -9t-9 0q-9 10 -10 21q-1 5 -1.5 10.5t0.5 10.5l10 68t15 67q8 29 15 58.5t20 57.5q1 4 0 9q-11 -14 -20 -30l-18 -32q-10 -18 -19 -36.5t-19 -37.5l-9 -15q-4 -5 -6.5 -5.5t-9.5 1.5l-4 2l-4 2q-8 2 -10 6.5t-2 10.5q-1 16 -0.5 31
t3.5 30q2 11 4 22.5t4 23.5q-4 0 -5 -2.5t-3 -4.5q-31 -48 -58 -96.5t-47 -101.5q-6 -15 -12 -29.5t-10 -30.5q-1 -3 -3 -7q-5 -14 -10.5 -16.5t-19.5 2.5q-4 2 -7.5 4t-8.5 1q-5 0 -5 6q-1 3 -1 11q0 23 2.5 45t6.5 45q0 4 1 6q12 37 20.5 74.5t22.5 74.5q14 38 30 75.5
t36 72.5l3 3q6 11 9.5 10.5t11.5 -9.5q11 -13 11 -25.5t-5 -26.5q-8 -25 -16 -49.5t-18 -48.5q-2 -5 -4.5 -10.5t-2.5 -11.5q5 4 8 9l6 10q20 31 43 60t50 55q6 6 12.5 11.5t14.5 7.5q9 3 12 1t7 -9q3 -6 -2 -13q-3 -4 -4 -8t-2 -9q-2 -16 -6 -31.5t-8 -31.5q-1 -2 -2 -4.5
t0 -4.5q3 0 4 2.5t3 4.5q48 66 105 119q5 5 6 7q3 7 9 9l12 4q8 2 7 -9q-4 -3 -3 -6.5t3 -5.5zM-25 88q5 8 6 14.5t1 13.5q-2 -7 -6 -13t-2 -16zM55 244q1 1 1 4q-1 -1 -1 -2t-1 -2h1zM34 174q2 2 6 8q10 15 16.5 31.5t15.5 31.5q-2 -1 -3 -1t-2 -1q-12 -14 -19.5 -29.5
t-15.5 -31.5q-2 -5 2 -7v-1zM182 341q2 2 2 3q0 3 -2 1t-2 -3t1 -1h1zM212 299q12 10 18 24q-7 -5 -10.5 -11.5t-7.5 -13.5v1zM266 201v3v-1v-2zM260 358q6 4 8 7q11 12 19 30q-7 -2 -9.5 -7.5t-6.5 -10.5q-2 -5 -5 -9t-5 -9z" />
    <glyph glyph-name="n" unicode="n" horiz-adv-x="268" 
d="M290 321q9 -7 4 -17q-12 -23 -25 -46t-28 -45q-4 -5 -6.5 -11t-5.5 -11q-6 -12 -13 -23t-13 -22q-4 -7 -7 -13.5t-6 -13.5q-12 -26 -26 -51.5t-25 -51.5l-3 -3q-2 -3 -4 -3q-4 0 -4 4v6q-12 -5 -23.5 3t-9.5 20q4 23 4.5 45.5t7.5 44.5q9 28 13.5 56.5t12.5 56.5
q7 24 9 50q-5 -5 -8 -10.5t-8 -10.5q-4 -5 -7.5 -10t-10.5 -7q-2 -1 -6 -7q-8 -12 -15 -24.5t-15 -24.5q-2 -3 -3 -6.5t-3 -6.5h-3q-5 -7 -9.5 -14t-12.5 -12q2 5 5 9.5t3 10.5q-5 -4 -7 -9.5t-5 -10.5q-11 -20 -20.5 -39l-19.5 -39q-8 -14 -16.5 -26.5t-10.5 -29.5
q-1 -5 -8 -8.5t-11 -2.5q-15 3 -15 19q0 12 3 24q10 47 19 93t23 92q2 7 3.5 13.5t3.5 13.5l4 12t7 11q4 4 4.5 10t0.5 12v9t2 9q9 26 19 52t24 51q8 16 16 17t22 -10q13 -12 14.5 -17t-4.5 -22q-7 -19 -13 -38t-13 -38q-6 -17 -13 -34.5t-14 -34.5q-2 -5 -3.5 -9t-2.5 -9
q5 2 6.5 5.5t3.5 6.5q16 25 32 49t35 47q14 16 29 29.5t32 26.5q8 6 12 5.5t10 -8.5l10 -14t11 -13q5 -5 1 -15q-3 -10 -6 -19.5t-8 -18.5q-4 -8 -4 -13q2 -7 -1 -13t-5 -12q-12 -37 -20 -75l-16 -76l2 -4q3 3 4.5 6.5t3.5 7.5q23 43 48 84.5t56 79.5l6 6q8 9 14 4zM131 108
q-4 -8 -4 -15t-2 -13q3 5 4 11.5t2 14.5v2zM132 30q2 1 2 9l-4 -8l1 -1h1zM165 219v-3h1v3h-1zM163 207q-3 -4 -3 -14q2 4 3.5 6.5t-0.5 6.5v1zM157 183v-3h1v3h-1zM156 168h-1h1zM152 149q0 2 0.5 3.5t-1.5 3.5v-7h1zM152 145q-4 -9 -6 -18.5t-4 -19.5q4 2 5 5.5t2 7.5
l3 27v-2zM164 75q-11 -5 -16 -16.5t-3 -25.5q5 11 9 21.5t9 21.5zM166 76q1 2 2.5 4.5t-0.5 6.5q-3 -1 -5 -5q-1 -2 1 -6h2z" />
    <glyph glyph-name="o" unicode="o" horiz-adv-x="236" 
d="M267 296q4 -3 2 -8q-2 -10 -4 -15q-12 -29 -33 -53q-8 -8 -15 -16.5t-17 -15.5q-12 -15 -30 -21h-3v-3q-5 -2 -9 -6.5t-9 -7.5q-5 -5 -15 -8q-8 -3 -13 -12q-8 -16 -16.5 -31.5t-17.5 -31.5q-11 -19 -26.5 -34t-32.5 -28q-12 -10 -31 -13q-15 -3 -26 5q-20 14 -32 31.5
t-13 43.5q0 21 3 41t11 40q6 15 11 30.5t10 30.5q3 8 6.5 16.5t6.5 16.5q2 6 6.5 9.5t6.5 9.5h1h1l-3 6l3 3q5 -1 7 2t4 7q8 12 13 24.5t10 26.5l3 3h-3q3 8 8.5 14.5t10.5 13.5q3 5 6.5 9t5.5 9t12 9q9 5 16.5 10.5t13.5 13.5q14 20 38 12q12 -3 18 -14l10 -18l10 -18
t6 -18.5t1 -19.5q-1 -24 -5.5 -46.5t-11.5 -45.5q-3 -10 -6.5 -19.5t-6.5 -19.5q-1 -2 -2 -4.5t1 -5.5q5 1 9 4l8 6q17 14 31.5 29t29.5 30q6 6 12 12.5t12 12.5l6 6q4 4 8 2zM72 142q5 9 -3 16q-34 33 -37 76q0 3 -2 9q-4 -3 -5.5 -7t-3.5 -8q-5 -11 -9 -20.5t-8 -20.5
q-11 -32 -20 -65t-12 -68q-1 -5 -2 -11.5t5 -9.5q5 -2 9 2l8 8q24 21 43 46t36 53h1zM147 356q1 5 0.5 9t-0.5 9q0 7 -7 4q-8 -3 -13.5 -8t-10.5 -11q-11 -12 -18.5 -25.5t-14.5 -27.5q-10 -22 -16 -44.5t-7 -46.5v-12q0 -17 18 -25q7 -3 10 -2t7 8q5 11 10 21.5t9 21.5
q11 32 18.5 64.5t13.5 65.5zM188 178q-2 2 1 2h3v-3q-2 -2 -3 -1zM201 186q0 3 3 3v-6l-2 2z" />
    <glyph glyph-name="p" unicode="p" horiz-adv-x="246" 
d="M220 361q4 -8 4 -16.5t-2 -16.5q0 -3 -1.5 -9t-3 -13t-3 -13t-2.5 -8q-5 -11 -12 -21.5t-15 -20.5q-6 -9 -12 -15q-18 -26 -45 -48.5t-53 -40.5t-46.5 -29.5t-26.5 -15.5q-3 -8 -4 -12.5t-2 -8t-2 -8t-4 -12.5q-7 -21 -15.5 -58t-16 -73.5t-13 -65.5t-5.5 -33
q0 -5 -3 -5.5t-7 3t-6.5 11.5t-2.5 21q1 14 3.5 42.5t6.5 58.5q3 31 9 57q2 11 3 18t2 11q4 16 7.5 32t7.5 32q5 24 9.5 48t11.5 47q8 23 15 46t11 47q0 7 7 16q5 5 8.5 11.5t5.5 13.5q4 18 15 36q6 11 10.5 23t10.5 23l8 16t9 16q2 2 3 4t4 2q4 0 6 -7q3 -11 7.5 -22
t-0.5 -23v-4q5 4 10.5 6.5t10.5 5.5q9 5 18.5 7.5t20.5 1.5q28 -2 42 -26q5 -8 8.5 -15.5t8.5 -15.5zM185 379q-17 2 -32 -3.5t-24 -16.5l27 12q12 6 29 8zM127 358q-3 0 -5 -1q4 0 5 1zM122 356q-8 -3 -12 -9q10 4 12 9zM65 393h1v1zM62 273q-4 -10 -9 -24t-10 -29.5
t-10.5 -30t-9.5 -26.5q6 -11 30 4t52.5 45.5t54.5 70t37 78.5v3q2 7 0 8.5t-8 2.5q-13 1 -28 -7q-31 -14 -54 -36.5t-41 -49.5q-4 -6 -4 -9z" />
    <glyph glyph-name="q" unicode="q" horiz-adv-x="213" 
d="M239 275q-1 -5 -5 -15q-7 -14 -14.5 -28t-15.5 -28q4 2 8 10l18 33q2 2 3 4t4 4q1 -2 -2 -7q-8 -15 -15.5 -30t-16.5 -29q-13 -20 -29.5 -34.5t-35.5 -28.5q-2 -2 -5 -2.5t-5 -1.5q-5 -4 -10 -5l-10 -2q-9 -2 -6 -10q10 -24 9 -48t-4 -48q-2 -15 -6.5 -38.5t-9.5 -49
t-10.5 -49t-9.5 -38.5q-6 -23 -10.5 -47t-9.5 -47q-1 -5 -1.5 -9t-2.5 -9q-8 -26 -31 -15q-18 8 -26 23t-10 34t0.5 37.5t5.5 37.5q2 13 7 35t10 45.5t10.5 45t9.5 34.5q7 23 12.5 47t10.5 47q2 9 5.5 17.5t6.5 17.5q-6 -3 -10 -7.5t-9 -9.5q-8 -8 -13.5 -8.5t-15.5 5.5
q-43 26 -46 75q-2 26 0.5 51t10.5 50q5 17 10.5 32.5t15.5 29.5l4 8t0 9q-1 2 0 3.5t2 3.5q11 21 26 37t38 24q20 8 41 2t29 -23q6 -11 10 -22t10 -22q1 -2 1 -7q-1 -3 -2 -4t-3 4q-12 -5 -13 2t-3 13q-5 19 -27 16q-10 -2 -14 -5l-6 -3q-4 0 -5 -2q-2 -2 0 -3
q0 -4 -2.5 -6.5l-4.5 -4.5q-35 -38 -47 -87q-5 -21 -11.5 -42t-9.5 -43q-2 -11 -3.5 -21.5t-0.5 -21.5q4 -1 5 1t3 4q17 24 32 49.5t32 50.5q4 5 7 11t8 11q18 19 29 39q2 3 8 9q4 5 9 4q4 -1 4 -9v-3q3 2 5.5 4.5l4.5 4.5q5 5 8 -1t5.5 -12t-0.5 -14q-3 -7 -5.5 -14
t-5.5 -14q-15 -32 -27 -64.5t-25 -64.5q-1 -2 -2 -3.5t1 -4.5q7 2 12.5 6t10.5 9q21 20 39.5 41t32.5 47q9 18 24 33q2 3 8 7q5 3 9 1q4 -3 2 -8zM100 428q-4 1 -7.5 1.5t-6.5 -2.5h15zM84 427h3h-3zM76 -50l-1 -1l1 -1v2zM74 -14q-2 11 -0.5 22.5t3.5 22.5q1 7 2 14.5
t-2 16.5q-8 -15 -10 -31q-1 -10 -3 -19l-4 -18q-4 -15 -9.5 -39.5t-10.5 -50.5t-9.5 -50.5t-5.5 -40.5q-1 -5 -1.5 -9.5t2.5 -9.5q5 5 6.5 11.5t3.5 12.5q2 11 6.5 30.5t10 41t10 41t6.5 30.5q2 6 3.5 12t0.5 12zM78 -37v1q0 -2 -2 0zM80 -17q-2 0 -2 -2q0 -1 2 -3v3v2z
M85 -1q5 7 8.5 19t5 25t1 25.5t-3.5 19.5q-1 -22 -5 -43.5t-7 -44.5zM110 130q0 1 2 1h-2v-1zM115 126q-1 0 -0.5 -0.5t1.5 -0.5t1 2q-2 0 -3 -1h1zM148 143q10 9 18.5 19.5t15.5 22.5l12 18q-3 0 -4.5 -1.5l-3.5 -3.5q-5 -5 -10.5 -11t-11.5 -11q-12 -11 -24.5 -21
t-25.5 -21h3v-6h6q8 2 14 5.5t11 8.5v1zM200 198h-1v-1z" />
    <glyph glyph-name="r" unicode="r" horiz-adv-x="213" 
d="M205 398q5 -6 -1 -13q-20 -25 -33 -53t-23 -58q-10 -29 -7 -56q0 -8 -4 -9q-3 -1 -4.5 1.5t-3.5 4.5q-7 10 -8.5 21t-3.5 22q-1 15 2 33q-4 0 -5 -2t-3 -4q-29 -41 -54 -84t-48 -88q-8 -17 -14.5 -34t-11.5 -34l-12 -36q-3 -8 -5 -8.5t-10 1.5q-16 4 -17 11
q-8 -1 -5 27.5t13 71.5t25.5 94t32.5 97t33 80t29 43q3 3 8 3q7 0 9 -9q1 -3 2.5 -5t3.5 -4q5 -5 6.5 -11t-4.5 -13q-2 -2 -2 -5t-2 -5q-1 -1 -3 1q-4 -3 -6 -13q-9 -11 -1 -20q0 -1 -0.5 -2t-0.5 -2l-3 3h-3l-3 -6q-7 -14 -13 -32q5 2 6 6t4 8q0 -5 -1.5 -9t-2.5 -8
q0 -3 -2 -3q-8 -1 -9.5 -7t-3.5 -11l-10 -22t-9 -22q4 2 8 10q3 7 6.5 13t9.5 11q2 2 2 3q5 11 13 19.5t16 16.5q23 25 44 50q11 14 21 27.5t18 29.5q3 8 10 12q11 6 14 -4q5 -16 13 -27zM86 380v-3q2 2 1 3h-1zM119 337q5 3 5 7q-4 -4 -4 -7h-1zM124 346q5 0 5 7
q-3 -2 -5 -8v1zM131 356q2 2 1 4l-3 -3v-3h3zM137 367v3q-3 0 -2 -2zM185 405v3q-2 -2 -2 -3h2z" />
    <glyph glyph-name="s" unicode="s" horiz-adv-x="195" 
d="M197 394q4 -9 -5 -9q-5 0 -8.5 -2.5t-6.5 -5.5q-46 -47 -52 -114q0 -3 0.5 -6.5t-4.5 -5.5q-4 -2 -6 1.5t-4 5.5q-15 17 -15.5 36.5t5.5 39.5l2 6l2 6q-2 3 -1 6.5t1 7.5q-12 -13 -24.5 -25.5t-21.5 -27.5q-11 -18 -15 -37q5 3 7 7.5t7 6.5l-6 -21q-3 -11 4 -18l12 -15
q12 -14 22 -29.5t17 -32.5q4 -10 8 -19.5t9 -19.5q21 -47 -14 -84q11 2 15.5 10.5t8.5 17.5q2 5 2.5 10.5t0.5 10.5q4 -13 0.5 -24t-11.5 -21q-11 -14 -31 -23q-38 -15 -78 -11q-20 2 -35 15q-11 8 -20 17.5t-17 20.5q-5 8 -7 17t-2 18q0 6 2.5 11t9.5 7q3 1 4.5 3t3.5 4
q9 -9 9 -25q-2 -34 32 -31q8 1 16.5 1.5t16.5 2.5q16 3 28 12t23 21q5 5 5 14q0 8 -2 12q-8 17 -15.5 35t-21.5 33q-11 13 -20.5 26.5t-17.5 29.5q-20 43 1 84q26 52 75 82q31 18 63 8q6 -1 13 0q21 3 31 -16q2 -5 3.5 -10t3.5 -10zM30 26q6 -2 7.5 -2t6.5 2h-15h1zM60 28
l-1 1v-1h1zM110 45q-1 -2 -1.5 -4t-3.5 -2q0 3 2 3.5t4 2.5h-1z" />
    <glyph glyph-name="t" unicode="t" horiz-adv-x="162" 
d="M134 441h5h-5zM331 469q0 -7 -4 -7q-2 -3 -3 0.5t-5 3.5q-3 3 -10 3q-12 7 -25 7q-55 7 -110 0v5q-11 -4 -19 -4.5t-16 -0.5q-3 -11 -11 -33.5t-16.5 -47.5t-16 -47t-8.5 -30q-5 -19 -15 -37.5t-21 -38.5q-8 -22 -16.5 -47.5l-16.5 -49.5q-1 -1 -1 -3q0 -5 1 -5q2 2 5 7
t6 8q17 27 44.5 57.5t49.5 55.5q11 17 26 25l3 4q8 8 19 11.5t21 3.5t15.5 -2t3.5 -5q-3 -2 -15 -15t-27.5 -30.5t-31 -36.5t-25.5 -31q-8 -14 -19.5 -29.5t-23.5 -31l-24 -31t-20 -29.5t-18 -26.5t-18 -23.5q-8 -8 -10.5 -7.5t-7.5 3.5q-6 6 -11.5 9.5t-10.5 8.5
q-16 16 -11 40q6 30 13.5 57.5t16.5 55.5q8 16 14 34.5t14 37.5q5 16 11 32t14 33q0 3 4.5 17t10.5 30t11.5 29.5t7.5 16.5q3 8 8 24t10 30h-4h-10h-25h-3q-2 0 -2 -3q-5 0 -10.5 0.5t-10.5 2.5h-19h-17q-11 3 -19.5 10.5t-16.5 18.5q-3 3 -5.5 6.5t-2.5 8.5q-7 5 0 18
q0 2 2.5 7t5.5 8q2 2 5 3t8 4q1 -1 2 -1q1 -1 2 -1t1 -2v-3q-4 -3 -6 -4t-2 -4q-7 -7 -7 -14q0 -2 0.5 -5.5t2.5 -5.5q5 -3 11 -3.5t11 -0.5q11 0 22 2t22 2q22 6 43.5 8.5t43.5 2.5h4q5 17 14 34t14 28q3 5 5.5 8.5t6.5 9.5q5 2 8.5 5.5t9.5 1.5q17 -12 17 -25l-2.5 -5
t-0.5 -3q-3 -11 -8 -24t-11 -27q33 0 63.5 -4t60.5 -10q8 -3 18 -6t18 -9q5 -3 10.5 -8t8.5 -14v-7zM-32 491h-11l11 -3v3zM-6 488h3h-3zM1 473q3 0 3 3h-3v-3zM4 488q-1 1 -2 1q-3 0 -5 -1h7zM4 488q7 0 7 3h-2q-1 0 -2 -1t-3 -2zM11 476h4h-4zM19 476h-4h4zM11 491
q3 0 4 -1t4 1h-8zM26 491h-4h4zM101 200q-3 0 -3 -3q0 3 3 3v0zM94 192q-1 0 -5 -2.5t-8.5 -6t-8 -7t-3.5 -6.5q1 1 5.5 4t8.5 7t7.5 7t3.5 4zM69 170q-4 -1 -4 -2t1.5 -2t2.5 -3t0 -6q5 5 1 5t-1 8zM69 152q-4 0 -4 -7q0 3 2 5zM84 494h-3h3zM66 494q-4 0 -4 -3zM66 494
q0 -5 7 0h-7zM73 494q0 -1 2 -1q1 0 2.5 -0.5t3.5 1.5h-8zM146 494q35 0 72.5 -0.5t72.5 -5.5q-14 4 -35.5 6.5t-43 4t-40 1t-26.5 -1.5v-4z" />
    <glyph glyph-name="u" unicode="u" horiz-adv-x="276" 
d="M303 268q1 -1 1 -5q-2 -6 -4.5 -11.5t-5.5 -10.5q-16 -29 -31.5 -58.5t-30.5 -59.5l-27 -57q-7 -14 -15.5 -27t-18.5 -26q-5 -7 -8 -7t-12 3q-7 2 -12.5 5.5t-11.5 6.5q-16 8 -19 28q-3 16 -2.5 31.5t2.5 31.5q1 7 2.5 13.5t-0.5 14.5q-2 -3 -10.5 -14t-19.5 -24.5
t-21.5 -27t-14.5 -21.5l-12 -21q-8 -16 -18 -29q-9 -11 -21 -4q-37 19 -44 56q6 18 -1 30v-13q-4 8 -3.5 15t1.5 15q0 5 5 5t4 5q0 3 -0.5 6.5t1.5 6.5q5 8 2 19q-1 3 0 7t3 7q8 18 13.5 36.5t12.5 36.5q2 6 3.5 12.5t3.5 13.5q3 11 9 30.5t13 40.5t14 40t10 30q3 13 12 22
t15 -3q2 -2 3 -4t3 -4q7 -5 8 -11t-1 -13q-1 -6 -5 -20.5t-8.5 -30.5t-8.5 -30.5t-5 -20.5q-7 -26 -14 -52.5t-13 -52.5q-5 -20 -8 -41t-5 -42q2 0 2 1q8 13 17.5 24.5t17.5 24.5q9 14 20 31.5t23 36.5t23.5 37.5t22.5 35.5q2 4 4.5 8t4.5 8q4 6 11 20.5t15 30.5t16.5 30
t14.5 18q2 2 2.5 4t2.5 4q3 5 9 8q10 4 13 -6q1 -9 8 -14q13 -9 7 -24q-2 -6 -7.5 -21t-11.5 -31.5t-11.5 -32t-7.5 -21.5q-24 -78 -39 -159q0 -2 -0.5 -3t0.5 -3q3 0 3.5 2t1.5 4q10 16 19 31.5t19 30.5q8 12 15 24t14 25q8 15 17.5 29t20.5 28q4 5 8 8t10 4
q-7 -8 -10.5 -17t-6.5 -18q7 3 10.5 9t8.5 10q5 2 6 2zM12 275v-3v3zM-8 219q7 5 10 14t6 29q-7 -10 -11 -26q-2 -4 -3.5 -8t-1.5 -9zM11 92v-3v1v2zM228 170q4 6 5 10q-3 -2 -5 -9v-1zM274 235q4 3 4 8q-2 -2 -3.5 -3t-0.5 -4v-1z" />
    <glyph glyph-name="v" unicode="v" horiz-adv-x="238" 
d="M224 398q5 -2 2 -7q-9 -23 -22.5 -56.5t-24.5 -55.5q-2 -4 -3.5 -7.5t-4.5 -6.5q-3 -2 -4.5 -4.5t1.5 -6.5l-3 -6q-2 5 -4 1t-4 -12q-8 -9 -10.5 -19.5t-5.5 -21.5q-2 -5 -2.5 -9t-2.5 -9q-15 -38 -31 -76t-36 -74q-2 -4 -5 -7.5t-6 -7.5q-6 -10 -17 -5q-24 10 -41 25
q-4 3 -8 13q-5 15 -7 35q-2 26 -1 51t4 51q2 20 4 39t5 39q2 11 4 27t4.5 33t5 32.5t4.5 26.5q2 8 3.5 16t2.5 16q0 3 2 9q4 7 9 2q5 -6 9.5 -12t1.5 -16q-2 -5 -1.5 -11t0.5 -12q0 -9 -1 -22.5t-1.5 -27.5t-1.5 -27.5t-1 -22.5q-1 -1 1 -1t0 1t-1 0.5t1 1.5t1 3
q1 -46 -2 -91t-2 -93q5 3 6 6t3 6l22 52l22 52q7 15 16.5 33t19.5 36.5t20.5 36.5t18.5 32q8 13 16.5 25t15.5 26q3 6 8 11q2 2 4 5t7 -1q6 -5 7 -7t-2 -8q-2 -4 -4.5 -8t-6.5 -7q-1 4 -3 0q-2 -1 -2 -5q-11 -17 -25 -45t-24 -45q-2 -4 -1.5 -7.5t-1.5 -7.5
q-5 -17 -13 -33.5t-15 -33.5l-3 -9q5 4 7 8.5t4 9.5l6 12l9 15q2 2 3 5.5t6 2.5q3 0 3 2q3 12 10 22.5t12 21.5q3 7 8 17t10 21t9.5 21.5t6.5 17.5t5 13.5t5 13.5v-2zM16 120q-1 -1 0 -2v3v-1zM17 121q0 1 0.5 2t-1.5 1v-3h1zM16 137q2 16 3.5 31.5t0.5 32.5
q-4 -16 -3.5 -32t0.5 -33zM19 216v3v-3q0 -1 0.5 -1.5t0.5 -1.5zM91 146q-6 -5 -5 -12l2 6l2 6h1zM64 85q0 -4 -1 -6q0 2 2 6h-1zM64 86q3 2 5 8l18 39q-5 -1 -7 -6q-4 -10 -8.5 -19.5t-6.5 -20.5z" />
    <glyph glyph-name="w" unicode="w" horiz-adv-x="297" 
d="M290 410q4 0 6.5 -6t2.5 -13q0 -4 -1.5 -7.5t-3.5 -7.5q-14 -38 -29 -76t-28 -77q-8 -24 -15 -48t-13 -48t-14.5 -46.5t-19.5 -44.5q-1 -3 -5 -9q-4 -7 -13 -6q-16 4 -25 11q-6 4 -7 8q-6 21 -9 43q-2 13 1.5 24.5t5.5 23.5l9 78q-9 -15 -14 -31.5t-10 -33.5
q-18 -54 -42 -105q-5 -12 -15 -25q-7 -10 -20 -7q-11 3 -19 9l-16 12q-4 3 -6 13q-4 16 -6 32t-1 33q2 32 3 64t9 64l12 56t17 55q2 5 3 10.5t2 10.5q3 22 12 41q10 19 21 1q2 -2 2.5 -4t2.5 -4q5 -5 6 -10t0 -11q-3 -22 -7 -43.5t-8 -43.5q-8 -42 -13.5 -83t-8.5 -83
q-1 -11 -2 -21t0 -21q4 0 4.5 2t1.5 4q7 20 15.5 39t13.5 39q6 27 15.5 52.5t20.5 50.5t21.5 50t21.5 50q8 18 21 37q10 16 20 0l4 -8t6 -7q4 -2 4 -6t-1 -8q-2 -13 -4.5 -25.5t-4.5 -25.5q-7 -51 -15 -101.5t-13 -101.5q-1 -6 -1 -12t3 -12q5 -2 6 1.5t2 6.5q8 23 13 52
q0 27 9 51.5t17 49.5t18 49t21 48l9.5 19t9.5 18q2 5 5.5 8.5t10.5 2.5zM16 197q2 8 2 12h-3q-1 -3 -1 -6t-1 -6h3zM39 279q1 0 1 0.5t-1 0.5h-3q2 -2 3 -2v1zM47 340q-2 -5 -2.5 -10.5t-1.5 -10.5q0 -6 5 -6q8 19 12 38.5t-1 27.5q-4 -3 -6 -11q-2 -7 -3 -14t-4 -13z
M45 306q-3 -4 -4.5 -8t1.5 -9q-1 5 3 8.5t0 8.5zM33 289v1q0 -2 -2 0zM65 125q2 2 2 8q-2 -6 -2 -9v1zM122 94v-1q0 2 1 2zM124 72v3v-3zM137 234v-3v-3v3q0 2 1 2zM73 143q2 0 4 4q0 2 -1 2q-3 0 -3 -4q0 -1 1 -2h-1zM77 156v3q1 -2 -1 -4zM84 163v6q1 -3 0 -6zM91 179
q11 23 17.5 46.5t12.5 47.5q-7 -9 -10.5 -19t-7.5 -21l-3.5 -7t-6.5 -4l3 -6v-3l-6 -3q0 -4 1 -7.5t-1 -7.5v-6q-5 0 -6 -2q-2 -5 -3 -9t-2 -9q0 -3 5 0q2 2 4.5 3t3.5 4zM132 217q3 4 3 12q-3 -4 -3 -12zM135 156q6 17 8 34.5t3 35.5q-7 -17 -9 -34.5t-2 -35.5zM150 236v3
h-1v-3h1zM280 369q0 -1 -2 -3q-1 2 2 2v1zM287 381l-1 1v-1h1z" />
    <glyph glyph-name="x" unicode="x" horiz-adv-x="224" 
d="M216 423q6 -8 7 -17t-1 -19q-3 -18 -9.5 -34.5t-15.5 -32.5t-18 -31.5t-19 -30.5q-11 -17 -20.5 -34t-21.5 -33q-4 -5 -4 -11t2 -12q8 -37 17.5 -73t25.5 -71q2 -5 5 -9.5t-2 -8.5q-5 -5 -9.5 -1.5t-9.5 5.5q-16 8 -25.5 20.5t-16.5 28.5q-5 13 -9.5 25.5t-9.5 25.5
q-1 3 -1.5 6.5t-4.5 4.5q-5 1 -7 -2l-4 -6q-15 -20 -30 -40.5t-31 -40.5l-6 -8t-8 -6q2 7 6.5 12.5t7.5 12.5q2 5 3.5 8.5t2.5 8.5q-7 -10 -13.5 -19.5t-14.5 -18.5q-3 -4 -6.5 -7t-9.5 0q-5 2 -8 9t-1 12q1 6 5 11q21 35 41 70t43 68q6 9 2.5 25.5t-6.5 26.5q-4 14 -5 29
t0 30q1 20 0.5 41t2.5 41q1 5 1 10t-5 10q-2 2 -2.5 5.5t-0.5 6.5q0 9 6 10t8 10q2 10 12 3q14 -9 15 -25q2 -19 3 -37.5t-1 -37.5q0 -2 -0.5 -5t0.5 -5q7 -14 8.5 -29.5t3.5 -30.5q0 -4 3 -5q8 5 14.5 11.5t11.5 14.5q37 47 66 94q5 8 8.5 16.5t4.5 19.5q0 5 0.5 11.5
t6.5 8.5t8 -4.5t5 -11.5v5z" />
    <glyph glyph-name="y" unicode="y" horiz-adv-x="240" 
d="M243 -34q3 -7 1 -15l-3 -18q-8 11 -19.5 14.5t-24.5 4.5q-16 1 -32 0q-6 -1 -14 0t-13 -3q-2 -2 -4.5 -1.5t-3.5 -1.5q-2 -4 -4 -7t-4 -7l-12 -30q-6 -14 -13 -27.5t-16 -25.5q-8 -11 -20 -18.5t-26 -6.5q-7 1 -13 3.5t-12 5.5t-11.5 6.5t-10.5 7.5q-10 8 -15.5 13.5
t-11.5 16.5q-3 5 -5 10.5t-7 9.5t-10 5l-10 2q-11 2 -16 8q-6 6 -8 19q-1 6 -0.5 12.5t2.5 12.5q4 9 16 16q1 -4 -2 -9q-2 -3 -4 -9q-2 -4 -2 -8.5t6 -3.5q7 1 13 4t12 5q10 5 25 10q13 5 25.5 9t26.5 8t27.5 6.5t27.5 4.5q5 1 8.5 2t5.5 5q4 5 5.5 11t3.5 11l15 54
q8 28 14.5 55.5t13.5 55.5l15 63l6 33l3 15q1 3 1.5 5.5t-1.5 4.5q-16 -26 -30.5 -52t-29.5 -52q-7 -12 -14 -23.5t-16 -22.5q-6 -6 -8 -10q-2 -3 -2.5 -6t-2.5 -5q-3 -5 -8 -9t-10 -6q-7 -2 -12 2l-10 8q-5 5 -9 9.5t-8 9.5q-7 10 -9.5 21.5t-1.5 23.5q1 14 3.5 28t6.5 28
q7 28 18 57q2 7 5 13.5t5 13.5t4 13.5t4 13.5q4 13 10 24t14 22q2 3 8 9q4 6 8 4q9 -6 11 -19q1 -7 -1.5 -14t-4.5 -13l-9 -27q-8 -29 -15.5 -59t-15.5 -60l-6 -30l-3 -12q-1 -2 -0.5 -6t4.5 -2q1 1 4 6q2 3 3.5 6t3.5 6q4 6 7.5 12t6.5 12t5.5 12t6.5 12q6 10 15 21
q10 11 18.5 23t16.5 24q8 11 16.5 21.5t18.5 20.5q5 5 8 10.5t6 11.5q4 6 7.5 12t8.5 11t7 5t4.5 -1t2.5 -3q6 -11 3 -22q-2 -6 -3.5 -11.5t-3.5 -11.5q-3 -12 -5 -24l-4 -24q-4 -25 -8.5 -49.5t-8.5 -49.5l-6 -27q-2 -7 -3 -13.5t-1 -13.5q5 10 6 21t6 21q2 -9 1 -18
t-3 -18t-2.5 -18t-2.5 -18q-5 -38 -12 -75l-4 -18l-4 -18q-1 -3 -2.5 -9t2.5 -8q3 -1 10 -1q5 0 9 -0.5t9 -1.5q9 -2 18 -3.5t17 -4.5q8 -2 15 -6.5t10 -12.5zM57 -79q2 2 3.5 5t-0.5 6q-2 0 -2.5 0.5t-2.5 0.5t-6 -2l-12 -3l-27 -9q-6 -2 -12.5 -4t-12.5 -4q-5 -2 -5 -6
t2 -9q3 -13 9 -23q5 -7 12 -7q11 -1 19 6.5t14 15.5q4 5 7.5 10.5t6.5 10.5l6 12h1zM127 14q-2 0 -2 -0.5t2 -0.5v1zM148 -33q1 -2 4.5 -1t2.5 3q-2 2 -5 1q-3 0 -1 -2zM219 -38q5 -2 15 -2q-3 8 -10 12t-15 6q-12 3 -24.5 3.5t-24.5 -1.5l24 -3q5 -1 10.5 -1.5t10.5 -2.5
q4 -2 7 -5.5t7 -5.5z" />
    <glyph glyph-name="z" unicode="z" horiz-adv-x="291" 
d="M244 21q3 -9 1.5 -14.5t-8.5 -11.5q1 18 -16 27q-59 38 -132 32q23 -2 45.5 -5.5t42.5 -15.5q-4 1 -12 1q-10 3 -20 4t-19 6q-5 2 -11.5 2t-12.5 -1q-12 0 -24 1t-24 3q-9 1 -17.5 -1t-16.5 -8q-10 2 -23 -4q-3 0 -9 -2q-4 -3 -8 -5.5t-8 -5.5q-7 -2 -2 -7q2 -2 0.5 -2
t-2.5 -1q-4 -2 -4 0q-4 11 -10 21.5t-1 23.5q4 10 7 19.5t7 17.5q5 12 11.5 22.5t14.5 20.5q12 14 23.5 29t22.5 32q7 10 14 19t15 18q21 22 41.5 44t44.5 40q9 8 18 15t20 12q4 2 8 4.5t7 7.5q-16 -1 -30.5 -1h-28.5q-32 0 -65 -2t-66 -6h-10.5t-10.5 1q-7 1 -8.5 3.5
t-0.5 10.5q1 6 3.5 11t4.5 10q8 22 25.5 26.5t36.5 3.5l57 -3q17 0 33 -0.5t33 -1.5q7 0 13.5 -1.5t12.5 -3.5q11 -2 22.5 -4t22.5 -4q4 0 12 -2q10 -4 11 -7.5t-3 -14.5q-8 -20 -22 -33t-27 -27q-20 -23 -42.5 -43t-44.5 -40q-31 -29 -59.5 -59.5t-55.5 -62.5
q-2 -2 -3.5 -4.5t-0.5 -6.5q5 -2 10.5 -1t10.5 2q32 1 63 -3t62 -16q30 -11 54 -31q14 -12 19 -25zM170 371q5 -2 6 -1q-2 2 -6 0v1zM200 369q4 -1 14 -1q-5 1 -8 1t-6 1v-1zM76 52h1q1 1 -1 1l-1 -1h1zM162 66h-1v-1zM175 63h-1v-1zM185 59l1 -1z" />
    <glyph glyph-name="braceleft" unicode="{" horiz-adv-x="239" 
d="M255 81q2 -6 -3 -13q-11 -14 -26 -23q-18 -10 -36 -17t-38 -13q-13 -4 -25.5 -7t-26.5 -5t-26 1q-23 4 -36 24q-7 9 -11.5 18.5t-9.5 20.5q-11 31 -4 61q4 17 8 33.5t11 32.5q2 5 4.5 9t4.5 9q2 6 4 12.5t4 13.5q0 7 -4 9q-2 0 -2 3q-5 5 -6.5 5t-7.5 -2q2 -2 4 -2.5
t4 -1.5q-8 -1 -14.5 -4t-14.5 -5q-2 -1 -3.5 -2t-3.5 1q-4 4 -2 6q0 3 -3 3q-9 5 -11 17q0 2 -1 3q-3 2 -2 5.5t-1 6.5q0 1 3 4q5 2 8.5 4.5t8.5 4.5q22 13 39 28l3.5 3.5l3.5 3.5q19 19 15 45q-3 13 -9 27q-6 17 -12 33.5t-11 33.5q-4 14 -6 28t-1 28q0 12 5 25
q3 9 5.5 18.5t7.5 17.5q7 14 17 25.5t24 19.5q7 5 13.5 9t14.5 9q11 6 23.5 11.5t26.5 6.5q18 2 32 -4t24 -27q2 -8 4 -11q0 -3 -2 -3q-3 -3 -3 0q-8 11 -17.5 11.5t-19.5 -0.5q-11 -2 -21 -6q-23 -10 -42 -23t-34 -32q-25 -30 -28 -66q-2 -14 -1.5 -28t3.5 -28q1 -11 6 -23
q5 -16 11 -32t11 -33q2 -8 2.5 -16t2.5 -16q0 -3 -1 -4q-3 -2 -4 -5.5t-3 -6.5q0 2 -0.5 4.5t1.5 4.5q-2 -1 -4 -4q-3 -9 -9 -16t-13 -13q-4 -3 -4 -4t5 -3q5 -10 7.5 -20t6.5 -19q5 -14 5 -27t-3 -27q-4 -15 -9 -30l-10 -30q-10 -29 -11 -57q-1 -7 0.5 -9t7.5 -4
q7 -4 14 -4.5t15 0.5q17 2 33.5 7t32.5 10q14 5 28 11l28 12q8 3 14.5 5.5t14.5 4.5q5 2 15 2q5 0 6 -4q0 -3 -4 -5q-2 -2 -4 -3t-4 -3q0 -2 -3 -2q-8 -1 -10 -3t-3 -10q-4 -1 -8 -1.5t-6 -4.5q4 0 6.5 1.5t4.5 1.5h4l2 2q5 2 10.5 5.5t10.5 6.5q8 5 10 -4zM68 214
q-3 -10 -5.5 -19.5t-5.5 -18.5q-2 -5 -4.5 -10.5t-2.5 -10.5q2 0 2 2q10 19 15 42q1 3 1.5 6.5t-1.5 6.5zM51 155q-2 -1 -2 -4q2 2 1 4h1zM187 61q-2 -1 -5 -1.5t-5 -3.5q5 0 10 5zM176 56q-5 2 -7 -3q2 0 3.5 1t3.5 2zM155 48q1 -2 3 0l2 1h-2h-2zM158 49q2 0 2 1zM166 52
h1h-1zM191 62q3 0 4 2q-3 0 -5 -2h1zM208 70q-2 0 -2 -1zM205 69l-2 -2q0 1 2 1v1z" />
    <glyph glyph-name="bar" unicode="|" horiz-adv-x="105" 
d="M77 39q0 -4 -0.5 -7.5t-4.5 -5.5q-11 -8 -13 4q-2 8 -3 15t-3 15q0 5 -3 11q-2 -6 0.5 -11.5t0.5 -12.5q-2 5 -2.5 8t-1.5 6q-1 8 -2 15.5t-2 14.5q0 4 -1 6q-5 12 -6.5 25t-3.5 26q0 7 -0.5 13.5t-1.5 12.5v5q2 8 1.5 15t-2.5 15q-3 16 -4 31.5t-3 32.5q-1 13 -1.5 26
t-0.5 26q0 4 0.5 7.5t0.5 8.5q2 16 0.5 31.5t0.5 32.5q1 8 1.5 14.5t2.5 14.5q2 14 3 28.5t3 28.5t3 28.5t4 28.5q3 22 10 41q3 9 10 2q6 -5 16 -9q8 -5 10 -17v-18.5t-1 -19.5q-5 -57 -8 -112.5t-5 -112.5q0 -26 -1 -51.5t0 -51.5q0 -3 -2 -6t0 -5q-2 -7 -2 -12.5v-11.5
q1 -5 0 -9t1 -8q0 -3 -1 -5.5t1 -4.5q-1 0 2 3q0 -1 0.5 -2t0.5 -2q1 -15 3.5 -29.5t3.5 -29.5q0 -9 1 -18t1 -18zM49 80q-1 -1 1 -4q0 3 -1 4z" />
    <glyph glyph-name="braceright" unicode="}" horiz-adv-x="224" 
d="M240 260q1 -2 0 -3.5t1 -3.5q1 -2 -3 -4q-2 -1 -4.5 -1t-4.5 -1q-6 -1 -12.5 -2t-12.5 -3q-17 -6 -23 -22q-5 -14 -5 -32q0 -11 2 -21.5t4 -21.5q3 -14 6.5 -28t5.5 -28q1 -10 1 -19.5t-2 -19.5q-2 -11 -11 -21q9 28 8 52q-1 -5 -1.5 -9.5t-1.5 -9.5q-8 -23 -27 -36
q-6 -6 -12 -6q-2 0 -3 -2.5t-4 -1.5q-6 -5 -13 -7l-14 -4q-2 -1 -4.5 0.5t-5.5 0.5q-2 -1 -5 -1t-5 -1q-14 -2 -29 0q-5 1 -9 2t-9 3q-13 6 -13 20q-1 8 6 7q5 -1 9.5 -1.5t9.5 -0.5q14 0 23 4q14 5 26.5 9.5t24.5 11.5q45 27 36 76q-2 13 -5 25.5t-6 24.5q-2 11 -3 20.5
t-1 19.5q-1 12 0.5 23.5t6.5 22.5q2 3 -1 6q-4 2 -7.5 4.5t-6.5 5.5q-17 17 -24 38q-7 23 -8 44q-1 10 1 19t5 18q10 30 29 60q2 5 5 9.5t4 9.5q-3 -2 -4 -4.5t-3 -4.5l-9 -15q-2 2 -1 2.5t1 2.5q6 12 13 24l14 24q1 1 1 1.5t2 1.5v-6q6 8 10.5 17t9.5 18q2 4 3.5 8t3.5 9
q-4 -2 -5 -6.5t-5 -6.5q5 10 9.5 20t8.5 20q2 6 1.5 8t-5.5 7t-11 8t-13 6q-14 5 -28.5 7.5t-28.5 4.5q-24 3 -47.5 0.5t-46.5 -8.5q-16 -3 -29 -12q-4 -3 -5 -3t-4 4q-9 11 -9.5 14.5t6.5 15.5q2 5 9 8q20 13 45 16q57 9 113 -3q11 -2 22 -6t20 -11q19 -13 24 -38
q2 -14 6 -26q3 -9 2.5 -18t-2.5 -18q-4 -13 -9.5 -25.5t-11.5 -24.5q-11 -22 -22 -42.5t-21 -41.5q-7 -15 -13 -29.5t-9 -30.5q-3 -13 -2 -16t12 -11t23.5 -13t25.5 -10q8 -2 14.5 -3.5t14.5 -3.5q5 -2 7 -7q3 -8 4 -15.5t3 -15.5zM2 624q4 0 6 3q-4 -1 -6 -3zM21 639
q1 1 2 0.5t2 1.5q-3 0 -5 -2h1zM139 662h1h-1h-2h2zM134 647q-2 4 -5 2q2 -2 5 -2zM59 665q-3 0 -6.5 -0.5t-7.5 -0.5q18 2 36 1.5t36 -1.5q-6 2 -12.5 2t-13.5 1q-4 1 -8 0.5t-8 -0.5h-8t-8 -1v-1zM115 650l-2 1l-1 -1q0 -1 1 -1q2 0 2 1zM41 647q-3 0 -4 -3q7 2 13 2.5
t12 2.5q-3 2 -4 1q-5 -1 -8.5 -1.5t-8.5 -1.5zM37 644q-4 3 -7 -1q2 1 3.5 1t3.5 1v-1zM41 635q1 0 1 0.5t-1 0.5v-1zM54 636q5 0 8 2q-4 2 -5 1.5t-4 -3.5h1zM64 647q2 0 2 1t-2 1h-2h2v-2zM70 649l1 -1l1 1l-1 1zM74 638h1v2h-2l-2 -2h2h1zM85 641q-3 0 -1 -2v2h1z
M102 645q1 1 2 1.5t2 2.5q-3 0 -5 1q-5 3 -9.5 3h-9.5t-4 -4q4 0 8 -0.5t8 0.5q2 1 2.5 -0.5t1.5 -2.5q2 -2 0.5 -3t1.5 -2q2 0 2 1t1 2zM112 643q2 -1 4.5 -2t5.5 1q-5 3 -10 1zM119 665q4 -1 8 0h-8zM134 640q-2 5 -7 2q2 -2 3.5 -1.5t3.5 0.5v-1zM135 640q5 0 8 1
q-5 3 -8 -1zM152 637q2 0 2 1v1l-2 -1v-1zM164 634l1 1q0 1 -1 1q-2 0 -2 -1t2 -1zM173 633v1h2h-2v-1zM169 509v-1v1zM163 502v-1v-2h1l2 2q0 1 -2 1h-1zM162 498q-1 -1 -1 -2q1 0 1 1v2h-1zM157 488v2v-1v-1zM61 22q-2 0 -3 -1h3v1zM62 22q19 -5 36 1q-9 -1 -18 -1.5
t-18 0.5zM100 23q2 0 2 1h-2l-2 -1h2zM201 254q5 1 9 1.5t9 0.5q-8 1 -18 -2z" />
    <glyph glyph-name="asciitilde" unicode="~" horiz-adv-x="143" 
d="M161 238q5 -12 -2 -24.5t-20 -17.5q-5 -2 -15 -2q-29 3 -50 17q-4 2 -7.5 4.5t-8.5 4.5q-14 7 -31 0q-16 -8 -27 -19q-8 -8 -15 2q-2 4 -2 6q7 8 12 20l4 4q0 2 -1 3q7 8 18 11.5t21 -0.5q7 -2 12.5 -5.5t11.5 -7.5q18 -11 36 -14q21 -5 39 9q7 4 13 12q8 7 11 -3h1z" />
    </font>
</defs>
</svg>
